<?xml version="1.0" standalone="no"?>
<!DOCTYPE svg PUBLIC "-//W3C//DTD SVG 1.1//EN" "http://www.w3.org/Graphics/SVG/1.1/DTD/svg11.dtd" >
<svg xmlns="http://www.w3.org/2000/svg" xmlns:xlink="http://www.w3.org/1999/xlink" version="1.1">
<metadata>
Created by FontForge 20170731 at Mon Nov 24 18:10:09 2008
 By Aleksey,,,
Copyright (c) 2008 by Hubert Jocham. All rights reserved.
</metadata>
<defs>
<font id="SusaLight" horiz-adv-x="550" >
  <font-face 
    font-family="SusaLight"
    font-weight="400"
    font-stretch="normal"
    units-per-em="1000"
    panose-1="2 0 5 0 4 0 0 2 0 3"
    ascent="750"
    descent="-250"
    x-height="482"
    cap-height="734"
    bbox="-194 -252 1328 983"
    underline-thickness="20"
    underline-position="-173"
    unicode-range="U+0020-FB02"
  />
<missing-glyph horiz-adv-x="870" 
 />
    <glyph glyph-name=".notdef" horiz-adv-x="870" 
 />
    <glyph glyph-name=".null" horiz-adv-x="0" 
 />
    <glyph glyph-name="nonmarkingreturn" horiz-adv-x="333" 
 />
    <glyph glyph-name="space" unicode=" " horiz-adv-x="254" 
 />
    <glyph glyph-name="exclam" unicode="!" horiz-adv-x="370" 
d="M411 711q-47 -89 -92 -223.5t-65 -246.5q-17 0 -28 14t-11 40q0 70 35.5 196.5t65.5 187.5q22 42 58 42q22 0 37 -10zM197 -9q-20 0 -32.5 12.5t-12.5 31.5q0 30 17.5 47t42.5 17q20 0 32.5 -12.5t12.5 -33.5q0 -25 -16.5 -43.5t-43.5 -18.5z" />
    <glyph glyph-name="quotedbl" unicode="&#x22;" horiz-adv-x="488" 
d="M281 468q-7 -2 -17 -2q-65 0 -65 156q0 112 64 112l17 -4q-4 -41 -4 -101zM469 468q-7 -2 -17 -2q-65 0 -65 156q0 112 64 112l17 -4q-4 -41 -4 -101z" />
    <glyph glyph-name="numbersign" unicode="#" horiz-adv-x="600" 
d="M422 182q-32 -110 -56 -220q-15 0 -24.5 16t-8.5 41q3 52 29 168q-42 2 -125 4q-22 -101 -40 -222q-15 0 -26 16t-11 42q0 64 17 163l-107 -5q-6 5 -6 14q0 33 123 42q10 50 23 111l-121 -6q-6 5 -6 14q0 36 139 43q30 114 52 151q17 28 51 28q8 0 15.5 -1.5t11.5 -2.5
l3 -2q-34 -73 -63 -170q92 0 132 -3q34 103 58 137q19 28 53 28q8 0 15.5 -1.5t11.5 -2.5l3 -2q-35 -64 -73 -165q108 -15 108 -52q0 -5 -0.5 -9t-1.5 -6.5t-2 -4.5t-2 -3v-1q-44 11 -122 19q-7 -19 -19 -56.5t-14 -43.5q142 -14 142 -56q0 -5 -0.5 -9t-1.5 -6.5t-2 -4.5
t-1 -3l-1 -1q-54 13 -153 22zM377 244q13 50 29 102q-40 3 -129 5q-15 -51 -27 -107q21 1 65 1q11 0 31.5 -0.5t30.5 -0.5z" />
    <glyph glyph-name="dollar" unicode="$" 
d="M169 -178q31 87 46 161q-77 8 -121 47t-44 92q0 27 13.5 47t37.5 20l19 -4q-12 -65 27.5 -105.5t113.5 -40.5q70 0 110 29t40 79q0 38 -31 59.5t-75.5 32t-89 24t-75.5 46.5t-31 88q0 71 56.5 120.5t145.5 56.5q0 59 24 110.5t64 51.5l20 -4q-32 -89 -46 -159
q65 -8 106.5 -40t41.5 -77q0 -38 -22 -54t-53 -11q7 15 7 38q0 42 -33.5 64t-87.5 22q-67 0 -106.5 -30t-39.5 -80q0 -37 31.5 -59t76 -33.5t89.5 -25.5t76.5 -45.5t31.5 -82.5q0 -75 -59 -122.5t-155 -54.5q-1 -59 -25 -111.5t-63 -52.5z" />
    <glyph glyph-name="percent" unicode="%" horiz-adv-x="717" 
d="M215 319q43 0 69.5 31.5t26.5 82.5q0 86 -68 86q-38 0 -68.5 -32.5t-30.5 -87.5q0 -80 71 -80zM208 267q-52 0 -85.5 35t-33.5 87q0 87 48 135t113 48q51 0 83 -35.5t32 -92.5q0 -73 -43.5 -125t-113.5 -52zM36 2q144 85 309.5 247.5t270.5 314.5q10 0 17.5 -8t7.5 -16
q0 -68 -184.5 -269t-292.5 -271q-44 -28 -79 -28q-33 0 -49 30zM540 12q40 0 65 29.5t25 76.5q0 79 -63 79q-36 0 -64.5 -30t-28.5 -80q0 -75 66 -75zM534 -40q-50 0 -82 33.5t-32 82.5q0 83 45.5 128.5t108.5 45.5q49 0 79 -34t30 -87q0 -70 -41.5 -119.5t-107.5 -49.5z
" />
    <glyph glyph-name="ampersand" unicode="&#x26;" horiz-adv-x="918" 
d="M510 21q-90 -42 -198 -42q-85 0 -134.5 43.5t-49.5 111.5q0 136 194 181q-3 22 -3 52q0 103 55.5 172.5t158.5 69.5q71 0 109.5 -38.5t38.5 -90.5q0 -39 -17 -69.5t-35.5 -48t-63.5 -35t-65.5 -23.5t-76.5 -19q-19 -5 -28 -7q28 -115 128 -186q75 40 129 108.5t83 151.5
q12 0 22 -9.5t10 -21.5q0 -57 -51.5 -131.5t-137.5 -130.5q46 -19 120 -19q39 0 71.5 7.5t45.5 14.5l13 8q7 -6 7 -18q0 -28 -46.5 -50.5t-108.5 -22.5q-96 0 -170 42zM388 328q120 26 158 46q69 34 69 97q0 87 -95 87q-65 0 -100.5 -53t-35.5 -127zM461 62
q-105 92 -129 203q-65 -16 -98 -46.5t-33 -81.5t34.5 -76t89.5 -25q63 0 136 26z" />
    <glyph glyph-name="quotesingle" unicode="'" horiz-adv-x="299" 
d="M280 730q-4 -41 -4 -101l5 -161q-7 -2 -17 -2q-65 0 -65 156q0 112 64 112z" />
    <glyph glyph-name="parenleft" unicode="(" horiz-adv-x="400" 
d="M388 -75q-5 -26 -42 -26q-66 0 -119.5 87t-53.5 213q0 104 36 205t91.5 173.5t124 117t133.5 44.5q32 0 32 -24q0 -5 -1.5 -9.5t-2.5 -5.5l-2 -2q-63 -11 -124 -52t-109 -105t-77.5 -153.5t-29.5 -188.5q0 -117 41.5 -182.5t102.5 -91.5z" />
    <glyph glyph-name="parenright" unicode=")" horiz-adv-x="400" 
d="M-48 -60q63 11 124 52t109 105t77.5 153.5t29.5 188.5q0 117 -41.5 182.5t-102.5 91.5q5 26 42 26q66 0 119.5 -87t53.5 -213q0 -104 -36 -205t-91.5 -173.5t-124 -117t-133.5 -44.5q-32 0 -32 24q0 5 1.5 9.5t2.5 5.5z" />
    <glyph glyph-name="asterisk" unicode="*" 
d="M339 479q-98 -90 -159 -90q-13 0 -22 5t-11.5 8.5t-2.5 5.5q50 31 146 108q-57 37 -82.5 64t-25.5 59q0 8 3 15t7 10l3 2q53 -47 131 -95q26 77 52.5 120t61.5 43l15 -5q-41 -91 -60 -160q84 6 127 -7.5t43 -42.5l-3 -12q-30 4 -49 4q-52 0 -115 -5q18 -63 18 -110
q0 -24 -11 -46.5t-26 -22.5q-18 95 -40 152z" />
    <glyph glyph-name="plus" unicode="+" 
d="M314 229q-16 -84 -27 -177q-7 -7 -21 -7q-38 0 -38 88q0 50 5 89q-162 0 -162 69q0 8 1.5 14.5t3.5 9.5l1 3q46 -18 115 -18l53 1q18 92 51 152t77 60l19 -8q-36 -89 -62 -197q51 6 95 16t63 16l19 7q7 -7 7 -16q0 -39 -56.5 -64.5t-143.5 -37.5z" />
    <glyph glyph-name="comma" unicode="," horiz-adv-x="303" 
d="M89 -135q-12 0 -19.5 6t-9.5 13l-2 6q5 2 12.5 6t27.5 18t35 30t27.5 43t12.5 56q0 20 -8.5 32t-16.5 15l-8 2q14 32 49 32q27 0 43 -18t16 -50q0 -80 -54.5 -135.5t-104.5 -55.5z" />
    <glyph glyph-name="hyphen" unicode="-" horiz-adv-x="494" 
d="M468 333q0 -47 -56.5 -80t-157.5 -33q-113 0 -113 66l5 22q48 -10 86 -10q138 0 228 59q8 -9 8 -24z" />
    <glyph glyph-name="period" unicode="." horiz-adv-x="303" 
d="M179 -9q-20 0 -32.5 12.5t-12.5 31.5q0 30 17.5 47t42.5 17q20 0 32.5 -12.5t12.5 -33.5q0 -25 -16.5 -43.5t-43.5 -18.5z" />
    <glyph glyph-name="slash" unicode="/" horiz-adv-x="397" 
d="M514 714q-97 -135 -214.5 -366.5t-193.5 -416.5q-14 2 -22.5 13t-8.5 29q0 70 130 350t198 363q33 40 70 40q27 0 41 -12z" />
    <glyph glyph-name="zero" unicode="0" 
d="M454 505q34 -4 55 -44t21 -100q0 -145 -90.5 -262t-220.5 -117q-79 0 -126 54.5t-47 148.5q0 97 42 187.5t117 148t162 57.5q40 0 64 -18t24 -49zM400 481q13 15 26 20q-24 13 -56 13q-102 0 -177 -98t-75 -230q0 -66 29.5 -102.5t85.5 -36.5q86 0 156.5 92t70.5 219
q0 53 -17.5 84.5t-42.5 38.5z" />
    <glyph glyph-name="one" unicode="1" 
d="M290 89q80 -13 135 -39t55 -58q0 -6 -1.5 -11t-2.5 -7l-2 -2q-15 7 -41.5 16.5t-111 26t-169.5 16.5q-30 0 -56.5 -4.5t-37.5 -8.5l-11 -5q-7 4 -7 18q0 30 34 49.5t96 19.5q19 0 63 -4q9 113 121 337q-83 -30 -150 -30q-84 0 -84 54l2 17q22 -6 46 -6q178 0 299 114
q19 -13 19 -34q0 -36 -23 -73q-102 -159 -173 -386z" />
    <glyph glyph-name="two" unicode="2" 
d="M465 -27q-150 50 -320 50q-23 0 -47 -2.5t-36 -5.5l-12 -3q-5 14 -5 24q0 61 43.5 104t105 67.5t123 48.5t105 62.5t43.5 93.5q0 45 -35 73.5t-97 28.5q-73 0 -119.5 -43t-52.5 -111q-5 -4 -12 -4q-15 0 -24.5 12t-9.5 32q0 72 64.5 124t159.5 52q91 0 145 -43t54 -116
q0 -61 -29.5 -104t-78.5 -68.5t-100.5 -45t-106.5 -46.5t-86 -60q122 0 227.5 -27t105.5 -72z" />
    <glyph glyph-name="three" unicode="3" 
d="M159 360q-5 -4 -12 -4q-15 0 -24.5 12t-9.5 32q0 72 64.5 124t159.5 52q91 0 147 -41.5t56 -111.5q0 -32 -13 -59t-31 -42.5t-36.5 -26.5t-31.5 -15l-13 -4l9 -3t20 -11t25 -20t20 -30.5t9 -43.5q0 -80 -73.5 -134.5t-194.5 -54.5q-92 0 -144 37t-52 94q0 28 15 45.5
t40 17.5l10 -1q-3 -13 -3 -24q0 -111 151 -111q73 0 121.5 35t48.5 89q0 48 -40 70t-103 22l-41 -6q-3 4 -3 13q0 43 73 43q72 0 117 29.5t45 85.5q0 46 -35.5 71t-98.5 25q-73 0 -119.5 -43t-52.5 -111z" />
    <glyph glyph-name="four" unicode="4" 
d="M393 116q-27 -80 -41 -159q-21 0 -35.5 16.5t-14.5 43.5q0 44 22 112q-93 14 -184 14q-20 0 -44 -2t-38 -4l-14 -2q-5 11 -5 25q0 40 25.5 83t65 83.5t81 82t80.5 93t57 101.5q22 0 35 -14t13 -41q0 -35 -34 -79t-78 -81t-93 -88.5t-72 -94.5q123 0 225 -19
q53 137 121 233q11 0 20 -11.5t9 -25.5q0 -34 -23 -80q-34 -69 -59 -133q91 -27 91 -66l-4 -17q-40 15 -106 30z" />
    <glyph glyph-name="five" unicode="5" 
d="M192 356q65 0 115.5 -7t96 -23.5t70.5 -50t25 -81.5q0 -92 -75.5 -153.5t-200.5 -61.5q-92 0 -144 37t-52 94q0 28 15 45.5t40 17.5l10 -1q-3 -13 -3 -24q0 -55 34.5 -82.5t111.5 -27.5q84 0 136 43t52 104q0 64 -67 89.5t-203 25.5q-30 0 -30 27q0 97 62 245
q87 -29 206 -29q40 0 75.5 11.5t51.5 23.5l15 11q8 -7 8 -21q0 -41 -36.5 -68.5t-113.5 -27.5q-34 0 -74.5 6t-64.5 12l-24 7q-28 -72 -36 -141z" />
    <glyph glyph-name="six" unicode="6" 
d="M177 352q64 11 122.5 6.5t103.5 -20.5t71.5 -53t26.5 -92q0 -89 -65.5 -151t-173.5 -62q-95 0 -151 57t-56 154q0 80 37 154t93.5 124t121.5 79.5t122 29.5q35 0 52 -11.5t17 -28.5l-3 -15q-96 0 -182.5 -47t-135.5 -124zM149 298q-20 -51 -20 -105q0 -73 39 -115
t108 -42q67 0 109 41t42 109q0 137 -278 112z" />
    <glyph glyph-name="seven" unicode="7" 
d="M148 -35q-20 0 -33.5 14t-13.5 43q0 24 16 53q29 52 131 170.5t205 214.5q-354 -11 -354 86q0 7 1.5 13t3.5 8l1 2q13 -5 37 -12.5t104 -20.5t167 -13q36 0 68 4t46 8l14 4q8 -10 8 -30q0 -21 -11 -41.5t-20 -30t-36 -35.5q-101 -102 -192.5 -222.5t-141.5 -214.5z" />
    <glyph glyph-name="eight" unicode="8" 
d="M386 281q49 -18 77 -46t28 -75q0 -80 -72 -130.5t-180 -50.5q-94 0 -148.5 39.5t-54.5 106.5q0 60 45 100.5t104 55.5q-76 36 -76 117q0 77 65.5 127.5t165.5 50.5q92 0 140 -39.5t48 -100.5q0 -56 -43 -96.5t-99 -58.5zM250 258q-18 -4 -37 -11.5t-43.5 -21.5
t-39.5 -38.5t-15 -54.5q0 -96 131 -96q72 0 118.5 32t46.5 82q0 15 -4 27.5t-15 22.5t-19 16.5t-27.5 13.5t-29 10t-34 9.5t-32.5 8.5zM317 303q19 5 38 13t43.5 22.5t39.5 38.5t15 54q0 43 -32 66.5t-87 23.5q-67 0 -107.5 -32.5t-40.5 -82.5q0 -18 8 -32.5t18 -24
t30.5 -19t34.5 -14.5t40 -13z" />
    <glyph glyph-name="nine" unicode="9" 
d="M396 204q-64 -11 -122.5 -6t-103.5 21t-71.5 53t-26.5 92q0 89 65.5 151t173.5 62q95 0 151 -57t56 -154q0 -80 -37 -154t-93.5 -124t-121.5 -79.5t-122 -29.5q-35 0 -52 11.5t-17 28.5l3 15q95 0 181.5 46.5t136.5 123.5zM424 258q20 51 20 106q0 73 -39 115t-108 42
q-67 0 -109 -41t-42 -109q0 -136 278 -113z" />
    <glyph glyph-name="colon" unicode=":" horiz-adv-x="370" 
d="M187 -9q-20 0 -32.5 12.5t-12.5 31.5q0 30 17.5 47t42.5 17q20 0 32.5 -12.5t12.5 -33.5q0 -25 -16.5 -43.5t-43.5 -18.5zM264 363q-20 0 -32.5 12.5t-12.5 31.5q0 30 17.5 47t42.5 17q20 0 32.5 -12.5t12.5 -33.5q0 -25 -16.5 -43.5t-43.5 -18.5z" />
    <glyph glyph-name="semicolon" unicode=";" horiz-adv-x="370" 
d="M89 -135q-12 0 -19.5 6t-9.5 13l-2 6q5 2 12.5 6t27.5 18t35 30t27.5 43t12.5 56q0 20 -8.5 32t-16.5 15l-8 2q14 32 49 32q27 0 43 -18t16 -50q0 -80 -54.5 -135.5t-104.5 -55.5zM264 363q-20 0 -32.5 12.5t-12.5 31.5q0 30 17.5 47t42.5 17q20 0 32.5 -12.5t12.5 -33.5
q0 -25 -16.5 -43.5t-43.5 -18.5z" />
    <glyph glyph-name="less" unicode="&#x3c;" 
d="M427 46q-175 134 -320 184q-44 15 -44 51q207 25 429 178q11 -9 11 -26q0 -47 -86.5 -101.5t-187.5 -84.5q81 -30 146 -79.5t65 -85.5q0 -13 -3 -22t-7 -12z" />
    <glyph glyph-name="equal" unicode="=" 
d="M517 425q7 -7 7 -16q0 -36 -52.5 -62t-121 -36.5t-139.5 -10.5q-62 0 -96 20t-34 51q0 8 1.5 14.5t3.5 9.5l1 3q42 -19 106 -19q92 0 173 11.5t116 23.5zM489 250q7 -7 7 -16q0 -36 -52.5 -62t-121 -36.5t-139.5 -10.5q-62 0 -96 20t-34 51q0 8 1.5 14.5t3.5 9.5l1 3
q42 -19 106 -19q92 0 173 11.5t116 22.5z" />
    <glyph glyph-name="greater" unicode="&#x3e;" 
d="M507 213q-207 -25 -429 -178q-11 9 -11 26q0 47 86.5 101.5t187.5 84.5q-81 30 -146 79.5t-65 85.5q0 13 3 22t7 12l3 2q175 -134 320 -184q44 -15 44 -51z" />
    <glyph glyph-name="question" unicode="?" horiz-adv-x="464" 
d="M246 237q-17 0 -30 14t-13 37q0 40 27 67t65.5 43.5t77.5 34.5t66 50t27 79t-36 72t-97 25q-74 0 -120.5 -41.5t-46.5 -107.5q-8 -5 -18 -5q-15 0 -24 12.5t-9 34.5q0 70 63.5 120t157.5 50q89 0 142.5 -42t53.5 -112q0 -62 -29.5 -103t-71.5 -62.5t-84 -40t-71.5 -49
t-29.5 -76.5zM187 -9q-20 0 -32.5 12.5t-12.5 31.5q0 30 17.5 47t42.5 17q20 0 32.5 -12.5t12.5 -33.5q0 -25 -16.5 -43.5t-43.5 -18.5z" />
    <glyph glyph-name="at" unicode="@" horiz-adv-x="934" 
d="M756 25q0 -43 -86 -85.5t-204 -42.5q-138 0 -225 81t-87 226q0 117 56 220t159 167.5t228 64.5q129 0 206.5 -74.5t77.5 -205.5q0 -118 -62 -204t-156 -86q-22 0 -38.5 8t-25 19t-13.5 22.5t-6 19.5l-1 8q-2 -3 -5.5 -8.5t-16 -19t-27 -24t-39.5 -19t-52 -8.5
q-49 0 -78.5 35t-29.5 84q0 108 81.5 185.5t196.5 77.5q51 0 80 -17.5t29 -43.5q0 -6 -2 -12t-4 -9l-2 -2q-38 30 -104 30q-88 0 -149 -59t-61 -150q0 -31 17 -48.5t44 -17.5q86 0 135 171q6 23 22 36t33 13l16 -5q-37 -86 -37 -152q0 -37 12.5 -50.5t40.5 -13.5
q60 0 104 69.5t44 163.5q0 113 -65.5 171t-173.5 58q-106 0 -191.5 -56t-130.5 -145t-45 -191q0 -124 66 -188t191 -64q50 0 96 9t76 22t53.5 26t34.5 22l10 9q8 -8 8 -17z" />
    <glyph glyph-name="A" unicode="A" horiz-adv-x="972" 
d="M1035 218q10 -1 16 -9t6 -16q0 -58 -64 -135.5t-140 -77.5q-56 0 -88 33t-32 88q0 51 16 112q-45 -24 -121 -34.5t-137 -1.5q-122 -196 -289 -196q-80 0 -126 45t-46 129q0 98 72.5 180.5t179.5 82.5q74 0 74 -50l-3 -16q-19 12 -59 12q-85 0 -136 -62t-51 -141
q0 -55 28.5 -85t78.5 -30q57 0 109 37t93.5 100t74 126t69 138t61.5 113q110 169 255 169q57 0 80 -26t23 -65q0 -41 -27 -109.5t-59.5 -132.5t-59.5 -143t-27 -138q0 -38 16.5 -53.5t50.5 -15.5q43 0 89 52.5t73 119.5zM525 235q106 -17 242 36q19 56 56 133.5t59.5 132
t22.5 85.5q0 47 -52 47q-54 0 -94.5 -35.5t-77.5 -95.5q-30 -48 -82 -155t-74 -148z" />
    <glyph glyph-name="B" unicode="B" horiz-adv-x="786" 
d="M215 51q62 96 114.5 271t58.5 321q-119 -43 -180 -123q-16 5 -16 30q0 61 115 121.5t268 60.5q104 0 162.5 -44t58.5 -117q0 -72 -45 -124t-134 -78q74 -14 109.5 -51.5t35.5 -91.5q0 -114 -106.5 -185.5t-270.5 -71.5q-178 0 -266.5 62t-88.5 164q0 30 13 46.5t35 16.5
l17 -5q-5 -11 -5 -26q0 -130 125 -176zM398 326q-54 -188 -115 -292q51 -8 110 -8q126 0 211.5 54t85.5 139q0 45 -31 72t-80.5 34.5t-93.5 7t-87 -6.5zM415 389q135 -5 223 42t88 133q0 110 -160 110q-72 0 -139 -19q24 -12 24 -52q0 -72 -36 -214z" />
    <glyph glyph-name="C" unicode="C" horiz-adv-x="625" 
d="M683 218q18 -3 18 -24q0 -27 -25.5 -64t-68 -72t-107.5 -59.5t-134 -24.5q-119 0 -182 71.5t-63 187.5q0 76 22 148q-113 58 -113 172q0 31 15 51t38 20l17 -5q-10 -18 -10 -41q0 -96 73 -141q52 126 152.5 207.5t227.5 81.5q77 0 122 -36.5t45 -104.5q0 -108 -99 -180
t-248 -72q-82 0 -157 22q-15 -59 -15 -118q0 -97 49 -148.5t137 -51.5q72 0 139 33.5t104.5 71t62.5 76.5zM223 410q62 -19 152 -19q115 0 192.5 56t77.5 130q0 89 -102 89q-108 0 -192.5 -72t-127.5 -184z" />
    <glyph glyph-name="D" unicode="D" horiz-adv-x="783" 
d="M208 42q62 94 118 277.5t63 332.5q-130 -42 -204 -142q-16 5 -16 30q0 63 109.5 127.5t260.5 64.5q131 0 200 -66.5t69 -180.5q0 -128 -64 -246t-181.5 -194t-257.5 -76q-75 0 -130.5 19t-86 52t-44.5 69.5t-14 78.5q0 51 17 80.5t45 29.5q5 0 10.5 -1.5t7.5 -2.5l3 -2
q-22 -34 -22 -87q0 -124 117 -163zM278 28q87 -9 172 25t147.5 96.5t101 149t38.5 178.5q0 197 -206 197q-52 0 -99 -11q20 -13 20 -50q0 -94 -55 -285t-119 -300z" />
    <glyph glyph-name="E" unicode="E" horiz-adv-x="573" 
d="M640 218q18 -3 18 -24q0 -28 -28 -66t-74 -75t-117 -62.5t-147 -25.5q-118 0 -185 54t-67 141q0 75 51.5 128.5t136.5 64.5q-39 25 -62 61.5t-23 77.5q0 103 78.5 169t221.5 66q101 0 153 -38t52 -96q0 -38 -20 -55t-52 -12q8 15 8 37q0 52 -40 80.5t-113 28.5
q-98 0 -158 -48.5t-60 -126.5q0 -137 207 -137q23 0 41 2.5t25 5.5l7 2q4 -5 4 -16q0 -22 -18.5 -35.5t-51.5 -13.5q-18 0 -58.5 4.5t-63.5 4.5q-92 0 -143.5 -41t-51.5 -110q0 -60 50 -97.5t143 -37.5q62 0 120 20t100 51.5t70.5 61t46.5 57.5z" />
    <glyph glyph-name="F" unicode="F" horiz-adv-x="796" 
d="M480 179q-113 -214 -278 -214q-80 0 -126 45t-46 129q0 99 67.5 178t173.5 79q74 0 74 -50l-3 -16q-19 12 -59 12q-77 0 -129 -59t-52 -139q0 -114 112 -114q67 0 126 60.5t96.5 150t59.5 182.5t25 169q-114 -41 -195 -41q-80 0 -119 32t-39 86q0 38 22.5 56.5t53.5 15.5
q-9 -18 -9 -41q0 -47 27 -67.5t83 -20.5q72 0 211 50t219 50q68 0 104.5 -29t36.5 -78q0 -35 -21.5 -56t-51.5 -17q10 16 10 43q0 77 -96 77q-74 0 -189 -42q19 -13 19 -46q0 -51 -20.5 -144.5t-58.5 -181.5q110 0 174 24t113 64q7 -7 7 -20q0 -54 -82 -91t-205 -37
q-23 0 -35 1z" />
    <glyph glyph-name="G" unicode="G" horiz-adv-x="689" 
d="M530 -42q-26 -93 -96.5 -147.5t-168.5 -54.5q-60 0 -96 27.5t-36 68.5q0 53 43 86.5t115.5 48.5t184.5 19q3 12 14 76t15 88q-3 -5 -9 -13.5t-27 -29.5t-45 -37t-63 -29.5t-81 -13.5q-88 0 -146.5 57.5t-58.5 159.5q0 88 35 173q-80 42 -80 94q0 16 8 27t16 14l8 2
q18 -48 74 -81q57 103 151.5 168t207.5 65q75 0 118 -34.5t43 -96.5q0 -96 -93 -149.5t-246 -53.5q-80 0 -145 20q-27 -69 -27 -144q0 -82 41.5 -120.5t111.5 -38.5q82 0 143.5 59.5t85.5 140.5q16 55 65 55l19 -3q-41 -128 -71 -347q138 39 216 204q18 -3 18 -24
q0 -66 -69 -140t-175 -96zM196 468q58 -18 133 -18q121 0 191 37t70 102q0 77 -95 77q-94 0 -172.5 -55t-126.5 -143zM463 -49q-261 -10 -261 -90q0 -51 75 -51q63 0 114.5 38.5t71.5 102.5z" />
    <glyph glyph-name="H" unicode="H" horiz-adv-x="860" 
d="M923 218q10 -1 16 -9t6 -16q0 -59 -66 -136t-144 -77q-55 0 -87.5 34.5t-32.5 90.5q0 85 53 247q-51 -19 -133 -25q-51 -155 -138.5 -250.5t-202.5 -95.5q-74 0 -119 42.5t-45 109.5q0 120 106.5 181t345.5 65q41 148 41 272q-67 33 -175 33q-60 0 -93 -29t-33 -79
q0 -14 3.5 -26.5t6.5 -17.5l4 -5q-35 -4 -54.5 18t-19.5 58q0 61 51.5 101.5t146.5 40.5q66 0 124.5 -14t83.5 -28l25 -14q0 -157 -42 -307q78 6 138 33q103 306 209 306q21 0 34 -17t13 -45q0 -67 -61 -148.5t-142 -127.5q-60 -169 -60 -268q0 -69 69 -69q50 0 97.5 51.5
t74.5 120.5zM465 324q-107 -3 -182 -18.5t-114.5 -42t-56 -57t-16.5 -68.5q0 -45 27.5 -71t73.5 -26q91 0 158 79t110 204zM767 462q31 20 72 74.5t41 87.5q0 13 -9 13q-20 0 -51 -55t-53 -120z" />
    <glyph glyph-name="I" unicode="I" horiz-adv-x="569" 
d="M539 639q-67 34 -175 34q-60 0 -93 -29t-33 -79q0 -14 3.5 -26.5t6.5 -17.5l4 -5q-35 -4 -54.5 18t-19.5 58q0 61 51.5 101.5t146.5 40.5q66 0 124.5 -14t83.5 -28l25 -14q0 -125 -26 -248.5t-74.5 -227.5t-128 -168.5t-176.5 -64.5q-80 0 -126 45t-46 129q0 98 66 174.5
t168 76.5q39 0 59 -15t20 -41l-3 -16q-24 15 -68 15q-75 0 -122.5 -54.5t-47.5 -134.5q0 -114 112 -114q66 0 122 45t92 113.5t61.5 152t36.5 158.5t11 136z" />
    <glyph glyph-name="J" unicode="J" horiz-adv-x="717" 
d="M695 680v-10q0 -145 -28.5 -299.5t-82.5 -284.5q73 8 126 47t74 85q18 -3 18 -30q0 -58 -70 -110.5t-178 -56.5q-64 -127 -151.5 -200t-197.5 -73q-78 0 -126.5 43t-48.5 117q0 93 66.5 153t185.5 60q45 0 122.5 -16t106.5 -19q53 124 81.5 274.5t28.5 281.5
q-89 34 -201 34q-94 0 -153.5 -49t-59.5 -139q0 -62 35.5 -98.5t104.5 -36.5q28 0 52 6.5t35 12.5l10 7q6 -7 6 -19q0 -25 -34.5 -45.5t-83.5 -20.5q-93 0 -145 54.5t-52 132.5q0 121 83 188t214 67q162 0 263 -56zM482 26q-8 1 -87.5 16.5t-119.5 15.5q-80 0 -126 -43
t-46 -104q0 -46 29 -72.5t82 -26.5q155 0 268 214z" />
    <glyph glyph-name="K" unicode="K" horiz-adv-x="920" 
d="M548 303q-51 -149 -137.5 -239.5t-204.5 -90.5q-80 0 -128 47t-48 131q0 97 63.5 168.5t165.5 71.5q39 0 59 -15t20 -41l-3 -16q-24 15 -68 15q-76 0 -120.5 -49t-44.5 -129q0 -58 31 -88.5t84 -30.5q65 0 120.5 45t91.5 114t62 153t37 159.5t11 135.5q-67 34 -175 34
q-61 0 -92 -32.5t-31 -85.5q0 -14 3.5 -26.5t7.5 -17.5l3 -5q-35 -4 -54.5 18t-19.5 58q0 64 49.5 108t145.5 44q66 0 124.5 -14t83.5 -28l25 -14q0 -159 -39 -308q144 21 226 105.5t82 192.5q0 15 -3 29.5t-6 21.5l-3 7q14 4 24 4q27 0 41 -18.5t14 -51.5
q0 -125 -94.5 -218t-229.5 -116q-5 -78 6.5 -136t35 -89.5t52 -46t60.5 -14.5q73 0 124.5 51t81.5 122q11 -1 17.5 -8.5t6.5 -15.5q0 -65 -70.5 -138t-169.5 -73q-108 0 -165 83.5t-52 236.5z" />
    <glyph glyph-name="L" unicode="L" horiz-adv-x="770" 
d="M445 104q-100 -131 -224 -131q-83 0 -137 46.5t-54 128.5q0 86 56.5 144t147.5 58q67 0 115 -35t96 -99q18 33 36 74.5t28.5 70t25.5 71t19 54.5q-40 -7 -79 -7q-103 0 -161.5 40.5t-58.5 108.5q0 42 21.5 62t48.5 14q-14 -20 -14 -50q0 -56 43.5 -86t126.5 -30
q24 0 46.5 2t33.5 4l11 3q32 96 68.5 142.5t85.5 46.5q24 0 39 -15t15 -40q0 -55 -39 -101.5t-111 -75.5q-3 -7 -15.5 -44.5t-23 -66.5t-27 -71t-37 -83t-42.5 -77q44 -60 80 -91t80 -31q58 0 107 54t79 124q11 -1 17.5 -8.5t6.5 -15.5q0 -28 -18.5 -65.5t-47.5 -71
t-70.5 -56.5t-83.5 -23q-63 0 -105 32.5t-85 93.5zM410 157q-29 43 -49.5 67t-56 45t-75.5 21q-61 0 -96 -40.5t-35 -98.5q0 -56 36.5 -86t91.5 -30q102 0 184 122zM648 568q24 12 49 41t25 52q0 14 -11 14q-31 0 -63 -107z" />
    <glyph glyph-name="M" unicode="M" horiz-adv-x="1197" 
d="M1260 218q10 -1 16 -9t6 -16q0 -60 -64 -136.5t-140 -76.5q-56 0 -88 33t-32 88q0 65 27 148.5t59 147.5t59 128.5t27 96.5q0 47 -52 47q-68 0 -135.5 -87.5t-111.5 -235.5q-56 -189 -93.5 -267t-79.5 -78q-27 0 -27 25q0 29 18.5 83.5t36 94t51.5 110.5q96 203 96 296
q0 44 -44 44q-48 0 -82.5 -34t-69.5 -94q-23 -41 -54 -108.5t-55 -122t-59.5 -116t-71 -102.5t-86.5 -68.5t-109 -27.5q-80 0 -126 45t-46 129q0 98 72.5 180.5t179.5 82.5q74 0 74 -50l-3 -16q-19 12 -59 12q-85 0 -136 -62t-51 -141q0 -55 28 -85t78 -30q51 0 97.5 36
t83.5 98t66.5 123.5t62.5 135t55 110.5q98 166 229 166q54 0 76 -36.5t11 -92.5q3 6 9 15.5t26 34t42 43.5t57.5 34.5t72.5 15.5q57 0 80 -26t23 -65q0 -41 -27 -109.5t-59.5 -132.5t-59.5 -143t-27 -138q0 -38 16.5 -53.5t50.5 -15.5q43 0 89.5 52t72.5 120z" />
    <glyph glyph-name="N" unicode="N" horiz-adv-x="914" 
d="M883 3q-10 -12 -30 -12q-65 0 -98 174q-25 136 -89 255t-150 182q0 -44 -2.5 -90.5t-10.5 -111t-21.5 -121.5t-37.5 -115.5t-56 -100t-79.5 -68t-105.5 -26.5q-79 0 -126 47.5t-47 128.5q0 92 58.5 159.5t153.5 67.5q37 0 58 -15.5t21 -39.5l-4 -19q-22 18 -64 18
q-69 0 -111 -46.5t-42 -119.5q0 -54 31.5 -85t83.5 -31q56 0 99 40.5t68 102.5t41 147t22 161t6 157q-48 20 -97 20q-20 0 -36.5 -5t-25.5 -12t-15 -14t-8 -12l-2 -5q-22 5 -22 35q0 40 34.5 61.5t82.5 21.5q134 0 236.5 -102.5t162.5 -267.5q20 161 82.5 263.5t160.5 102.5
q29 0 44.5 -14t15.5 -37q0 -16 -7 -28.5t-14 -16.5l-7 -4q0 3 -1 8t-12 13t-31 8q-71 0 -121.5 -120t-50.5 -289q0 -159 63 -245z" />
    <glyph glyph-name="O" unicode="O" horiz-adv-x="671" 
d="M531 548q1 4 4.5 10t17.5 16.5t34 10.5q42 0 70.5 -42.5t28.5 -107.5q0 -112 -50.5 -215.5t-143 -170.5t-203.5 -67q-117 0 -178 69t-61 185q0 86 32 173.5t87.5 158t137 114.5t172.5 44q69 0 105.5 -26.5t36.5 -61.5q0 -8 -2.5 -15.5t-5.5 -10.5l-3 -3q-1 2 -4 6
t-13.5 14t-24 17.5t-37.5 13.5t-52 6q-101 0 -185 -65t-128.5 -162t-44.5 -200q0 -96 47.5 -145t131.5 -49q130 0 225 117.5t95 267.5q0 56 -25.5 87t-63.5 31z" />
    <glyph glyph-name="P" unicode="P" horiz-adv-x="852" 
d="M474 206q-98 -233 -274 -233q-77 0 -123.5 43t-46.5 114q0 56 30.5 92.5t73.5 36.5q14 0 23.5 -6t11.5 -12l2 -6q-33 -5 -52.5 -32t-19.5 -64q0 -47 31 -74t82 -27q56 0 103.5 41t78.5 106.5t53 149t32 165t11 158.5q-99 -29 -157 -95t-58 -143q-10 -5 -20 -5
q-32 0 -32 46q0 109 117.5 190.5t298.5 81.5q129 0 196 -55.5t67 -157.5q0 -152 -121.5 -234t-306.5 -80zM497 268q147 0 241.5 62.5t94.5 185.5q0 78 -54 119.5t-153 41.5q-53 0 -103 -11q32 -8 32 -52q0 -173 -58 -346z" />
    <glyph glyph-name="Q" unicode="Q" horiz-adv-x="671" 
d="M441 54q104 -6 152.5 -45.5t48.5 -91.5q0 -48 -22 -71.5t-51 -23.5q-5 0 -10 2.5t-8 5.5l-3 2q25 22 25 63q0 50 -44.5 80t-136.5 30q-20 0 -68 -2.5t-67 -2.5q-69 0 -105.5 25.5t-36.5 59.5q0 8 2.5 15t5.5 10l3 3q1 -2 4 -6t13.5 -13.5t24 -16.5t37.5 -13t52 -6
q101 0 185 63.5t128.5 158.5t44.5 195q0 94 -47.5 141.5t-131.5 47.5q-130 0 -225 -114.5t-95 -261.5q0 -55 25.5 -85t63.5 -30q-1 -4 -4.5 -10t-17.5 -16t-34 -10q-42 0 -70.5 41t-28.5 105q0 109 50.5 210.5t143 167t203.5 65.5q117 0 178 -67.5t61 -180.5
q0 -118 -64 -237t-181 -187z" />
    <glyph glyph-name="R" unicode="R" horiz-adv-x="919" 
d="M980 218q11 -1 17.5 -8.5t6.5 -15.5q0 -29 -18 -66t-48.5 -71.5t-78.5 -58t-102 -23.5q-99 0 -155 65t-56 166q0 36 6 72t12 54l6 19q26 -5 49 -5q105 0 165.5 46.5t60.5 126.5q0 78 -57.5 118t-167.5 40q-65 0 -127 -16q26 -11 26 -50q0 -67 -10 -144t-36 -165
t-63.5 -158t-100 -116.5t-139.5 -46.5q-64 0 -102 30.5t-38 80.5q0 34 22 55.5t59 15.5q-14 -17 -14 -43q0 -74 85 -74q69 0 123 59t84.5 152.5t46.5 193.5t17 198q-92 -33 -146.5 -96t-54.5 -136q-10 -5 -20 -5q-32 0 -32 46q0 109 123 192t305 83q135 0 210.5 -54.5
t75.5 -154.5t-77 -167.5t-215 -67.5q-8 -33 -8 -68q0 -86 38.5 -135t114.5 -49q75 0 128.5 54t84.5 127z" />
    <glyph glyph-name="S" unicode="S" horiz-adv-x="623" 
d="M590 522q9 23 9 52q0 51 -37 79.5t-100 28.5q-68 0 -109 -33t-41 -85q0 -36 21 -63.5t52 -43t68 -35.5t68 -40.5t52 -59t21 -90.5q0 -113 -94.5 -189t-229.5 -76q-113 0 -176.5 52t-63.5 141q0 88 60.5 146t151.5 58q37 0 58 -15.5t21 -39.5l-4 -19q-22 18 -64 18
q-70 0 -111.5 -38.5t-41.5 -105.5q0 -63 46.5 -99.5t130.5 -36.5q104 0 174.5 57t70.5 140q0 53 -29.5 88.5t-71 56l-83 41t-71 57.5t-29.5 91q0 79 65 130t165 51q87 0 141 -40t54 -102q0 -40 -21 -60.5t-52 -15.5z" />
    <glyph glyph-name="T" unicode="T" horiz-adv-x="703" 
d="M564 218q10 -1 16 -9t6 -16q0 -60 -64 -136.5t-140 -76.5q-57 0 -89.5 40.5t-32.5 110.5q0 105 48.5 230t107.5 228q-41 -20 -68 -31t-66 -21t-76 -10q-65 0 -101.5 31t-36.5 79q0 43 23 68t53 25q9 0 16 -2.5t10 -5.5l2 -2q-4 -2 -10.5 -6t-17.5 -20.5t-11 -37.5
q0 -69 83 -69q42 0 98 20t103 44.5t110 44.5t117 20q71 0 115 -38t44 -102q0 -67 -45.5 -117t-108.5 -50q-27 0 -42.5 15t-15.5 37q16 -4 39 -4q45 0 76.5 31.5t31.5 80.5q0 86 -104 86q-57 0 -122 -24q-68 -112 -124 -248.5t-56 -239.5q0 -97 70 -97q43 0 89.5 52t72.5 120
z" />
    <glyph glyph-name="U" unicode="U" horiz-adv-x="807" 
d="M579 133q-4 -6 -11.5 -16t-32.5 -35.5t-51.5 -45t-68 -35.5t-82.5 -16q-59 0 -98.5 34t-39.5 95q0 41 20 84t48.5 81.5t56.5 77.5t48 85t20 91q0 64 -35.5 103t-104.5 39q-63 0 -107.5 -41.5t-44.5 -117.5q0 -49 27.5 -77.5t70.5 -28.5q15 0 27.5 3t17.5 7l5 3
q5 -5 5 -15q0 -19 -20.5 -33.5t-51.5 -14.5q-70 0 -108.5 43t-38.5 107q0 98 63 160.5t160 62.5q100 0 149.5 -55.5t49.5 -138.5q0 -57 -29 -119.5t-63 -107.5t-63 -97.5t-29 -90.5q0 -36 21.5 -56t62.5 -20q61 0 118 45t92.5 103t53.5 118q8 27 23 77q28 94 42.5 138
t36.5 99t43.5 76t47.5 21q27 0 27 -24q0 -36 -30.5 -111t-67 -149.5t-67 -167t-30.5 -158.5q0 -37 15.5 -53t47.5 -16q46 0 92.5 51.5t73.5 120.5q10 -1 16 -9t6 -16q0 -59 -64 -136t-140 -77q-57 0 -86.5 41t-22.5 112z" />
    <glyph glyph-name="V" unicode="V" horiz-adv-x="788" 
d="M334 -16q-59 0 -99 34.5t-40 95.5q0 41 20 84t48.5 81.5t56.5 77.5t48 85t20 91q0 64 -35.5 103t-104.5 39q-63 0 -107.5 -41.5t-44.5 -117.5q0 -49 27.5 -77.5t70.5 -28.5q15 0 27.5 3t17.5 7l5 3q5 -5 5 -15q0 -19 -20.5 -33.5t-51.5 -14.5q-70 0 -108.5 43t-38.5 107
q0 98 63 160.5t160 62.5q100 0 149.5 -55.5t49.5 -138.5q0 -57 -29 -119.5t-63 -107.5t-63 -97.5t-29 -90.5q0 -36 21.5 -56t62.5 -20q77 0 151.5 50.5t127 127t84.5 168t32 171.5q0 117 -87 117q-10 0 -19 -3t-13 -5l-5 -3q-3 30 16.5 49t57.5 19q52 0 86.5 -42t34.5 -118
q0 -74 -24 -157t-69 -160t-103 -140t-134 -100.5t-154 -37.5z" />
    <glyph glyph-name="W" unicode="W" horiz-adv-x="1092" 
d="M552 105q-4 -5 -10.5 -13t-29 -28.5t-46 -36.5t-60 -29t-72.5 -13q-59 0 -99 34t-40 95q0 41 20 84t48.5 81.5t56.5 77.5t48 85t20 91q0 64 -35.5 103t-104.5 39q-63 0 -107.5 -41.5t-44.5 -117.5q0 -49 27.5 -77.5t70.5 -28.5q15 0 27.5 3t17.5 7l5 3q5 -5 5 -15
q0 -19 -20.5 -33.5t-51.5 -14.5q-70 0 -108.5 43t-38.5 107q0 98 63 160.5t160 62.5q100 0 149.5 -55.5t49.5 -138.5q0 -57 -29 -119.5t-63 -107.5t-63 -97.5t-29 -90.5q0 -36 21.5 -56t62.5 -20q60 0 122.5 56t109 138t78.5 174t38 166q8 2 13 2q52 0 52 -61
q0 -43 -23.5 -100.5t-51 -105t-51 -105.5t-23.5 -101q0 -66 64 -66q81 0 169.5 86.5t145 208.5t56.5 225q0 117 -87 117q-10 0 -19 -3t-13 -5l-5 -3q-3 30 16.5 49t57.5 19q52 0 86.5 -40.5t34.5 -117.5q0 -92 -40.5 -199t-104 -195.5t-148.5 -148t-167 -59.5
q-59 0 -85.5 35.5t-24.5 90.5z" />
    <glyph glyph-name="X" unicode="X" horiz-adv-x="860" 
d="M482 325q-90 -2 -159 -13t-111.5 -27.5t-69 -40.5t-36.5 -49.5t-10 -56.5q0 -45 27.5 -71t73.5 -26q94 0 171 81t114 203zM551 328q-42 -148 -141 -247.5t-216 -99.5q-74 0 -119 42.5t-45 109.5q0 122 110 182.5t356 64.5q11 57 11 111q0 193 -154 193q-54 0 -87 -30.5
t-33 -79.5q0 -17 4 -32t8 -22l4 -6q-29 -4 -51.5 15t-22.5 56q0 63 48.5 111t138.5 48q98 0 155.5 -62t57.5 -185q0 -56 -11 -114q66 6 124 32q103 306 209 306q21 0 34 -17t13 -45q0 -67 -61 -148.5t-142 -127.5q-60 -169 -60 -268q0 -69 69 -69q50 0 97.5 51.5t74.5 120.5
q10 -1 16 -9t6 -16q0 -59 -66 -136t-144 -77q-55 0 -87.5 34.5t-32.5 90.5q0 85 53 247q-49 -18 -116 -24zM766 462q31 20 72 74.5t41 87.5q0 13 -9 13q-20 0 -51 -55t-53 -120z" />
    <glyph glyph-name="Y" unicode="Y" horiz-adv-x="767" 
d="M541 -49q-261 -10 -261 -90q0 -51 75 -51q63 0 114.5 38.5t71.5 102.5zM608 -42q-26 -93 -96.5 -147.5t-168.5 -54.5q-60 0 -96 27.5t-36 68.5q0 40 23.5 68.5t69.5 46.5t107 27t144 12q19 120 33 175q-4 -6 -11.5 -16t-32.5 -35t-52.5 -44t-69 -35t-84.5 -16
q-59 0 -98.5 34t-39.5 95q0 41 19.5 79t47 69t55 63t47 72.5t19.5 85.5q0 64 -35.5 103t-104.5 39q-63 0 -107.5 -41.5t-44.5 -117.5q0 -49 27.5 -77.5t70.5 -28.5q15 0 27.5 3t17.5 7l5 3q5 -5 5 -15q0 -19 -20.5 -33.5t-51.5 -14.5q-70 0 -108.5 43t-38.5 107
q0 98 63 160.5t160 62.5q100 0 149.5 -55.5t49.5 -138.5q0 -46 -18.5 -90.5t-45 -78t-52.5 -65.5t-44.5 -65.5t-18.5 -65.5q0 -36 21.5 -56t62.5 -20q61 0 120.5 44t97.5 103.5t54 118.5q62 223 86 279q36 82 83 82q27 0 27 -24q0 -33 -26 -98t-59.5 -137t-69.5 -195.5
t-52 -256.5q138 39 216 204q18 -3 18 -24q0 -66 -69 -140t-175 -96z" />
    <glyph glyph-name="Z" unicode="Z" horiz-adv-x="655" 
d="M263 80q-84 -60 -160 -60q-34 0 -52 17t-18 43q0 85 130 85q37 0 90 -16q124 91 238 219t151 228q-73 6 -167.5 42.5t-163.5 36.5q-68 0 -111.5 -45t-43.5 -114q0 -49 27.5 -77.5t70.5 -28.5q15 0 27.5 3t17.5 7l5 3q5 -5 5 -15q0 -19 -20.5 -33.5t-51.5 -14.5
q-70 0 -108.5 43t-38.5 107q0 97 64.5 160t162.5 63q77 0 178.5 -39t152.5 -39q19 0 34 9t20 18l5 9q16 -10 16 -37q0 -54 -39.5 -127.5t-103 -147.5t-130.5 -139t-134 -119q21 -11 59.5 -37.5t69.5 -40.5t66 -14q125 0 205 189q11 -1 17.5 -8.5t6.5 -15.5q0 -29 -17 -67.5
t-46.5 -74.5t-77.5 -61t-101 -25q-43 0 -84 21t-82.5 51.5t-68.5 41.5zM209 107q-38 10 -71 10q-45 0 -45 -27q0 -19 26 -19q23 0 45.5 9t33.5 18z" />
    <glyph glyph-name="bracketleft" unicode="[" horiz-adv-x="400" 
d="M376 668q-63 -147 -115.5 -337.5t-82.5 -368.5q40 0 80 2.5t60 5.5l20 2q4 -9 4 -18q0 -25 -32 -41t-82 -16q-41 0 -73.5 18t-32.5 56q0 104 72 375t121 353q22 37 55 37q17 0 53 -4t63 -4l65 6q5 -9 5 -19q0 -25 -27.5 -40t-70.5 -15q-17 0 -37.5 2t-32.5 4z" />
    <glyph glyph-name="backslash" unicode="\" horiz-adv-x="342" 
d="M179 728q4 -156 47 -377t95 -404q-11 -7 -23 -7q-24 0 -43 37q-39 81 -93.5 308t-54.5 338q0 44 18 72.5t54 32.5z" />
    <glyph glyph-name="bracketright" unicode="]" horiz-adv-x="400" 
d="M123 -35q63 147 115.5 337.5t82.5 368.5q-40 0 -80 -2.5t-60 -4.5l-20 -3q-4 9 -4 18q0 25 32 41t82 16q41 0 73.5 -18t32.5 -56q0 -104 -72 -375t-121 -353q-22 -37 -55 -37q-17 0 -53 4t-63 4l-65 -6q-5 9 -5 19q0 25 27.5 40t70.5 15q17 0 37.5 -2t32.5 -4z" />
    <glyph glyph-name="asciicircum" unicode="^" 
d="M336 308q-47 -86 -115.5 -157t-113.5 -71q-11 0 -19.5 4t-11 8t-2.5 5q189 181 261 391q37 -7 44 -54q27 -175 115 -362q-6 -7 -22 -7q-38 0 -79 74t-57 169z" />
    <glyph glyph-name="underscore" unicode="_" horiz-adv-x="500" 
d="M502 -131h-504v49h504v-49z" />
    <glyph glyph-name="grave" unicode="`" horiz-adv-x="500" 
d="M199 747q61 -103 214 -144q-5 -14 -23 -24t-40 -10q-58 0 -119 37t-61 90q0 16 9 31t20 20z" />
    <glyph glyph-name="a" unicode="a" 
d="M348 103q-2 -5 -7 -13t-22.5 -28.5t-37 -36.5t-52 -29t-67.5 -13q-64 0 -100.5 42.5t-36.5 109.5q0 150 107 256t260 106q64 0 102.5 -27.5t38.5 -61.5q0 -7 -1.5 -12.5t-3.5 -7.5l-2 -2q-4 6 -13.5 14t-45 22t-79.5 14q-119 0 -203.5 -85.5t-84.5 -213.5q0 -91 77 -91
q129 0 197 258q17 63 67 63q5 0 9.5 -1.5t7.5 -3.5l2 -1q-54 -175 -54 -236q0 -47 9.5 -64t34.5 -17q42 0 89 53.5t74 120.5q10 -1 16 -9t6 -16q0 -59 -61.5 -136t-136.5 -77q-52 0 -70.5 33.5t-18.5 89.5z" />
    <glyph glyph-name="b" unicode="b" horiz-adv-x="534" 
d="M479 250q-32 -109 -109.5 -186t-174.5 -77q-150 0 -150 181q0 73 22.5 165t62.5 181.5t107 150t145 60.5q43 0 69 -27t26 -68q0 -92 -65 -169q36 2 58.5 -29.5t22.5 -79.5l-1 -44q93 -6 157 47q5 -7 5 -21q0 -34 -52 -60.5t-123 -23.5zM422 271q-55 41 -55 109
q0 12 1.5 22.5t3.5 15.5l1 4q-29 -24 -73 -55.5t-72.5 -53t-57 -48.5t-43 -56.5t-14.5 -62.5q0 -47 23.5 -74t71.5 -27q62 0 127 66t87 160zM121 281q20 27 72.5 68.5t98.5 76.5t83.5 88.5t37.5 109.5q0 41 -44 41q-72 0 -144 -113t-104 -271z" />
    <glyph glyph-name="c" unicode="c" horiz-adv-x="407" 
d="M474 218q18 -3 18 -24q0 -60 -92 -135.5t-199 -75.5q-84 0 -129 49t-45 128q0 78 32.5 153.5t94.5 126t137 50.5q116 0 116 -96q0 -46 -23 -71.5t-55 -25.5q-7 0 -12.5 2t-6.5 4l-2 2q27 26 27 75q0 54 -54 54q-64 0 -122 -82t-58 -187q0 -59 29.5 -89.5t81.5 -30.5
q79 0 150.5 55t111.5 118z" />
    <glyph glyph-name="d" unicode="d" horiz-adv-x="545" 
d="M378 297l38 146q-23 4 -57 4q-113 0 -186 -91.5t-73 -219.5q0 -93 73 -93q70 0 125 77.5t80 176.5zM345 95q-3 -5 -8 -12.5t-22.5 -26.5t-38 -34t-54 -27t-69.5 -12q-63 0 -95.5 41t-32.5 109q0 148 97 257.5t241 109.5q31 0 65 -10q34 118 70 175.5t81 57.5q28 0 28 -26
q0 -14 -3.5 -29.5t-12.5 -38t-16 -36.5t-24 -49t-25 -52q-37 -80 -58 -128.5t-41.5 -118.5t-20.5 -120q0 -47 9.5 -64t34.5 -17q42 0 89 53.5t74 120.5q10 -1 16 -9t6 -16q0 -59 -61.5 -136t-136.5 -77q-92 0 -92 115z" />
    <glyph glyph-name="e" unicode="e" horiz-adv-x="393" 
d="M96 183q101 29 166 79.5t65 109.5t-58 59q-62 0 -116.5 -76t-56.5 -172zM460 218q18 -3 18 -24q0 -60 -92 -135.5t-199 -75.5q-83 0 -122.5 49t-39.5 130q0 122 75.5 224.5t185.5 102.5q52 0 82.5 -28t30.5 -75q0 -50 -26.5 -93t-72.5 -73t-95.5 -50.5t-106.5 -34.5
q7 -93 101 -93q79 0 150 56t111 120z" />
    <glyph glyph-name="f" unicode="f" horiz-adv-x="333" 
d="M133 219q-2 -112 -13 -193t-33.5 -146t-62 -98t-96.5 -33q-50 0 -79 25.5t-29 65.5q0 36 21 59.5t52 23.5q7 0 13 -2.5t9 -4.5l3 -2q-27 -18 -27 -53q0 -51 49 -51q40 -1 67 40.5t44.5 154t17.5 298.5t54.5 300t165.5 114q47 0 77 -36.5t30 -90.5q0 -37 -13.5 -74
t-31.5 -64.5t-54 -64t-61.5 -58.5t-74.5 -62q170 -28 290 83q5 -7 5 -21q0 -38 -69.5 -80t-169.5 -42q-40 0 -84 12zM133 309q7 6 36 32t45 41t42 43.5t40 51.5t25.5 53t11.5 58q0 69 -54 69q-60 0 -103 -87.5t-43 -260.5z" />
    <glyph glyph-name="g" unicode="g" horiz-adv-x="536" 
d="M311 -49q-262 -10 -262 -90q0 -51 75 -51q63 0 115 38.5t72 102.5zM377 -42q-26 -93 -96.5 -147.5t-168.5 -54.5q-60 0 -96 27.5t-36 68.5q0 40 23.5 68.5t69.5 46.5t107 27t144 12q3 12 11.5 64.5t13.5 76.5q-2 -5 -7 -12.5t-22 -27.5t-36.5 -35.5t-51 -28t-65.5 -12.5
q-64 0 -102.5 41.5t-38.5 105.5q0 137 107.5 229t261.5 92q64 0 100 -28t36 -63q0 -7 -1.5 -12.5t-3.5 -7.5l-2 -2q-4 6 -13.5 14t-45 22t-79.5 14q-122 0 -204.5 -68t-82.5 -186q0 -87 92 -87q43 0 81 34t62 80t40 100q16 55 65 55l18 -3q-39 -123 -70 -347q138 39 216 204
q18 -3 18 -24q0 -66 -69 -140t-175 -96z" />
    <glyph glyph-name="h" unicode="h" horiz-adv-x="502" 
d="M110 261q34 50 78 95t78.5 73t65.5 57.5t48 63t17 74.5t-44 41q-66 0 -132.5 -119.5t-110.5 -284.5zM565 218q10 -1 16 -9t6 -16q0 -59 -61.5 -136t-136.5 -77q-49 0 -73.5 26t-24.5 71q0 38 18.5 81.5t40.5 75t40.5 68t18.5 62.5q0 39 -36 39q-54 0 -123.5 -61
t-120.5 -158t-52 -187q-8 -3 -14 -3q-46 0 -46 61q0 47 13.5 125t43 173t68.5 177.5t98.5 138.5t125.5 56q43 0 69 -27t26 -68q0 -82 -68 -159q44 -1 68.5 -25.5t24.5 -64.5q0 -44 -31.5 -97.5t-63 -105t-31.5 -89.5q0 -47 44 -47q42 0 88 54t73 122z" />
    <glyph glyph-name="i" unicode="i" horiz-adv-x="264" 
d="M208 627q-20 0 -32.5 12.5t-12.5 31.5q0 30 17.5 47t42.5 17q20 0 32.5 -12.5t12.5 -33.5q0 -25 -16.5 -43.5t-43.5 -18.5zM327 218q10 -1 16 -9t6 -16q0 -59 -65 -136t-143 -77q-53 0 -82.5 28.5t-29.5 82.5q0 44 25 106.5t50.5 136.5t27.5 145q15 3 25 3q47 0 47 -57
q0 -56 -50 -172t-50 -158q0 -26 11.5 -38t36.5 -12q46 0 97.5 53.5t77.5 119.5z" />
    <glyph glyph-name="j" unicode="j" horiz-adv-x="249" 
d="M-37 -181q17 0 29 23.5t16 52.5q-56 -38 -56 -65q0 -11 11 -11zM85 -69q-41 -174 -139 -174q-25 0 -41.5 16.5t-16.5 42.5q0 45 35.5 84t96.5 67q42 280 95 455q17 56 75 56l18 -2q-37 -98 -60.5 -201t-50.5 -274q146 71 215 217q22 -3 22 -26q0 -60 -69 -133t-180 -128z
M211 627q-20 0 -32.5 12.5t-12.5 31.5q0 30 17.5 47t42.5 17q20 0 32.5 -12.5t12.5 -33.5q0 -25 -16.5 -43.5t-43.5 -18.5z" />
    <glyph glyph-name="k" unicode="k" horiz-adv-x="515" 
d="M122 172q-43 -88 -45 -175q-7 -3 -14 -3q-46 0 -46 61q0 47 13.5 125t43 173t68.5 177.5t98.5 138.5t125.5 56q43 0 69 -27t26 -68q0 -86 -69 -164q56 -4 82.5 -31t26.5 -70q0 -80 -74 -134.5t-232 -65.5q8 -56 42 -88t88 -32q79 0 150.5 55t111.5 118q18 -3 18 -24
q0 -60 -92 -135.5t-199 -75.5q-79 0 -129.5 52.5t-62.5 136.5zM110 261q31 51 74 95t78 72.5t67 57.5t50 63t18 75t-44 41q-66 0 -132.5 -119.5t-110.5 -284.5zM142 214q131 2 211.5 41t80.5 97q0 55 -64 55q-55 0 -116 -53t-112 -140z" />
    <glyph glyph-name="l" unicode="l" horiz-adv-x="406" 
d="M106 217q126 69 208 168t82 198q0 54 -50 54t-103 -62.5t-90.5 -160t-46.5 -197.5zM475 218q16 -2 16 -26q0 -28 -24.5 -64t-63 -68.5t-93.5 -54.5t-110 -22q-78 0 -120 50.5t-42 138.5q0 107 41 228t117 209.5t162 88.5q50 0 76 -28t26 -79q0 -62 -25.5 -123
t-63.5 -107.5t-88 -88.5t-93.5 -69t-84.5 -46q4 -112 106 -112q79 0 152 55.5t112 117.5z" />
    <glyph glyph-name="m" unicode="m" horiz-adv-x="788" 
d="M851 218q10 -1 16 -9t6 -16q0 -59 -61.5 -136t-136.5 -77q-49 0 -74.5 26.5t-25.5 70.5q0 48 30.5 108.5t60.5 113.5t30 85q0 39 -36 39q-54 0 -122 -67t-118.5 -168.5t-53.5 -191.5q-6 -2 -12 -2q-23 0 -37.5 17t-14.5 49q0 46 56 164t56 158q0 23 -8.5 32.5t-27.5 9.5
q-54 0 -122.5 -66.5t-119 -168.5t-51.5 -192q-8 -3 -14 -3q-46 0 -46 61q0 56 46 194.5t46 223.5q13 4 23 4q42 0 42 -60q0 -18 -6 -45t-12 -44l-7 -18q4 7 12 19.5t34.5 44t53.5 55.5t68 44t80 20q43 0 65.5 -36.5t4.5 -101.5q4 6 12 15t32 33t48 42.5t57.5 33.5t64.5 15
q41 0 62.5 -25.5t21.5 -67.5q0 -35 -20 -80t-44.5 -81t-44.5 -78t-20 -73q0 -47 44 -47q42 0 89 54t74 122z" />
    <glyph glyph-name="n" unicode="n" horiz-adv-x="502" 
d="M565 218q10 -1 16 -9t6 -16q0 -59 -61.5 -136t-136.5 -77q-49 0 -73.5 26t-24.5 71q0 48 30.5 108.5t60.5 113.5t30 85q0 39 -36 39q-54 0 -124 -66t-122 -168t-53 -192q-8 -3 -14 -3q-46 0 -46 61q0 56 46 194.5t46 223.5q13 4 23 4q42 0 42 -57q0 -18 -6 -45.5
t-12 -46.5l-7 -18q5 7 13.5 19.5t35.5 44.5t55.5 56t70 44t81.5 20q41 0 62.5 -25.5t21.5 -67.5q0 -35 -20 -80t-44.5 -81t-44.5 -78t-20 -73q0 -47 44 -47q42 0 88 54t73 122z" />
    <glyph glyph-name="o" unicode="o" horiz-adv-x="505" 
d="M449 248q-25 -110 -98 -189t-168 -79q-74 0 -116 46.5t-42 134.5q0 137 85.5 237.5t189.5 100.5q29 0 47.5 -13t22.5 -32q38 5 64 -26t26 -91l-2 -31q97 -8 162 45q5 -7 5 -21q0 -34 -51 -60.5t-125 -21.5zM392 266q-26 16 -43 46.5t-17 68.5q0 20 4.5 34.5t9.5 19.5l4 5
q-20 4 -38 4q-84 0 -151 -83t-67 -195q0 -126 99 -126q65 0 123 65.5t76 160.5z" />
    <glyph glyph-name="p" unicode="p" horiz-adv-x="542" 
d="M379 59q83 23 143.5 66.5t86.5 92.5q18 -3 18 -26q0 -78 -117 -140.5t-282 -62.5q-52 0 -77 24.5t-25 54.5q0 9 4 15.5t8 8.5l4 2q2 -5 6.5 -13.5t26.5 -22t54 -13.5q69 0 135 82.5t66 205.5q0 47 -21 74t-62 27q-74 0 -141 -89t-92 -186q-12 -47 -26 -105.5t-22.5 -93
t-19 -74t-19 -61t-20 -41.5t-25 -28t-30.5 -8q-28 0 -28 25q0 39 26.5 115.5t59 156t60.5 198t30 230.5q13 4 23 4q42 0 42 -53q0 -40 -12 -72q5 10 12 21t27 34.5t42 41t56 31t71 13.5q63 0 100 -41.5t37 -108.5q0 -88 -33 -161.5t-86 -122.5z" />
    <glyph glyph-name="q" unicode="q" horiz-adv-x="536" 
d="M348 103q-2 -5 -7 -13t-22.5 -28.5t-37 -36.5t-52 -29t-67.5 -13q-64 0 -100.5 42.5t-36.5 109.5q0 150 107 256t260 106q64 0 102.5 -27.5t38.5 -61.5q0 -7 -1.5 -12.5t-3.5 -7.5l-2 -2q-4 6 -13.5 14t-45 22t-79.5 14q-119 0 -203.5 -85.5t-84.5 -213.5q0 -91 77 -91
q129 0 197 258q17 63 67 63q5 0 9.5 -1.5t7.5 -3.5l2 -1q-33 -100 -73 -347q138 39 216 204q18 -3 18 -24q0 -66 -69 -140t-175 -96q-18 -96 -49 -153t-69 -57q-13 0 -21 8.5t-8 22.5q0 45 22.5 94.5t52.5 110.5t43 119z" />
    <glyph glyph-name="r" unicode="r" horiz-adv-x="452" 
d="M291 361q-14 21 -14 58q0 53 30 81t72 28q29 0 47.5 -18t18.5 -47q0 -70 -70 -111q20 -11 53 -11q92 0 154 51q5 -7 5 -21q0 -34 -45.5 -60.5t-114.5 -27.5q-30 0 -59.5 10.5t-44.5 27.5q-51 -30 -78 -48.5t-58.5 -47t-48 -57.5t-30.5 -72t-21 -100q-10 -2 -16 -2
q-46 0 -46 61q0 56 46 194.5t46 223.5q14 4 24 4q43 0 43 -58q0 -27 -9 -67t-19 -66l-9 -26q54 52 144 101zM369 470q-15 0 -25 -13.5t-10 -30.5q0 -11 2 -20.5t4 -13.5l2 -3q42 30 42 66q0 15 -15 15z" />
    <glyph glyph-name="s" unicode="s" horiz-adv-x="436" 
d="M375 327q4 19 4 31q0 41 -26 64t-74 23t-76 -24.5t-28 -61.5q0 -30 22.5 -49t54.5 -31t64 -25t54.5 -39.5t22.5 -66.5q0 -77 -60 -124.5t-152 -47.5q-76 0 -116 35t-40 89q0 27 11.5 43.5t29.5 16.5l13 -3q-9 -57 22.5 -90t92.5 -33q56 0 91 27t35 70q0 34 -22 54.5
t-53.5 31t-63.5 23t-54 40.5t-22 73q0 64 51.5 105.5t130.5 41.5q71 0 112.5 -31t41.5 -79q0 -34 -19.5 -50.5t-46.5 -12.5z" />
    <glyph glyph-name="t" unicode="t" horiz-adv-x="390" 
d="M457 218q18 -3 18 -27q0 -38 -39.5 -86t-109.5 -85t-142 -37q-67 0 -103 38.5t-36 105.5q0 85 70 264q-29 4 -46 17t-17 29l3 15q42 -12 79 -13q87 213 167 213q28 0 28 -25q0 -14 -4.5 -29.5t-15 -35t-20 -35t-26.5 -43t-27 -43.5q58 6 103.5 22t62.5 29l16 12
q8 -5 8 -18q0 -46 -58.5 -73.5t-166.5 -28.5q-46 -76 -69.5 -133.5t-23.5 -117.5q0 -88 87 -88q79 0 150.5 55t111.5 118z" />
    <glyph glyph-name="u" unicode="u" 
d="M348 133q-4 -6 -11 -16t-29 -36t-45 -45.5t-56.5 -35.5t-65.5 -16q-53 0 -82.5 28.5t-29.5 82.5q0 44 25 105.5t50.5 134.5t27.5 144q15 3 25 3q47 0 47 -57q0 -56 -51 -170t-51 -156q0 -26 11.5 -38t36.5 -12q55 0 119 68.5t109.5 169.5t52.5 191q9 1 14 1q52 0 52 -59
q0 -54 -44 -160t-44 -162q0 -29 9 -41.5t32 -12.5q42 0 88 53t73 121q11 -1 17.5 -9.5t6.5 -17.5q0 -59 -61.5 -135t-136.5 -76q-56 0 -77.5 43t-11.5 110z" />
    <glyph glyph-name="v" unicode="v" horiz-adv-x="498" 
d="M379 408q0 -20 9.5 -34.5t18.5 -19.5l9 -4q5 21 5 50q0 36 -23 36q-19 0 -19 -28zM464 279q-39 -118 -131 -206.5t-192 -88.5q-53 0 -82.5 28.5t-29.5 82.5q0 44 23 105.5t46.5 134.5t25.5 144q15 3 25 3q47 0 47 -57q0 -56 -47 -170t-47 -156q0 -52 52 -52
q76 0 147.5 73t100.5 173q-37 12 -61 41.5t-24 68.5q0 44 23.5 71t58.5 27q41 0 63 -28t22 -80q0 -7 -6 -55q89 0 145 46q5 -7 5 -21q0 -25 -16 -42.5t-43 -26t-52.5 -12t-52.5 -3.5z" />
    <glyph glyph-name="w" unicode="w" horiz-adv-x="766" 
d="M671 293q-37 12 -61.5 41.5t-24.5 68.5q0 44 23.5 71t58.5 27q41 0 63 -28t22 -80q0 -7 -6 -55q89 0 145 46q5 -7 5 -21q0 -25 -16 -42.5t-43 -26t-52.5 -12t-52.5 -3.5q-39 -119 -126 -207t-186 -88q-98 0 -109 89q-77 -89 -170 -89q-53 0 -82.5 28.5t-29.5 82.5
q0 44 23 105.5t46.5 134.5t25.5 144q14 3 24 3q47 0 47 -57q0 -56 -47 -170t-47 -156q0 -53 52 -53q53 0 102 47.5t80.5 116.5t50 141.5t18.5 127.5q13 3 23 3q47 0 47 -57q0 -56 -47 -170t-47 -156q0 -53 52 -53q74 0 141.5 73t97.5 174zM647 408q0 -20 9.5 -34.5
t19.5 -19.5l9 -4q4 21 4 50q0 36 -23 36q-19 0 -19 -28z" />
    <glyph glyph-name="x" unicode="x" horiz-adv-x="629" 
d="M306 99q-73 -113 -178 -113q-48 0 -78 27.5t-30 73.5q0 28 11.5 47t29.5 19l13 -3q-8 -46 10.5 -75t55.5 -29q64 0 115 74t51 158q0 136 -102 136q-15 0 -28 -4.5t-20.5 -11t-13 -13.5t-8.5 -11l-2 -5q-10 9 -10 26q0 37 30 61t72 24q55 0 91 -36.5t46 -97.5
q38 61 90 98.5t106 37.5q33 0 51 -16.5t18 -42.5q0 -15 -5 -27.5t-9 -17.5l-5 -5q0 2 -0.5 4.5t-4.5 9.5t-9 12.5t-16 10t-25 4.5q-69 0 -126.5 -76.5t-57.5 -176.5q0 -119 87 -119q130 0 241 176q18 -3 18 -24q0 -62 -82.5 -136.5t-188.5 -74.5q-115 0 -137 116z" />
    <glyph glyph-name="y" unicode="y" horiz-adv-x="536" 
d="M311 -49q-262 -10 -262 -90q0 -51 75 -51q63 0 115 38.5t72 102.5zM377 -42q-26 -93 -96.5 -147.5t-168.5 -54.5q-60 0 -96 27.5t-36 68.5q0 40 23.5 68.5t69.5 46.5t107 27t144 12q21 121 43 186q-4 -7 -11.5 -17.5t-31 -38t-47.5 -48.5t-60 -38.5t-70 -17.5
q-52 0 -81 25.5t-29 74.5q0 40 23 95.5t47 121.5t26 130q15 3 25 3q46 0 46 -52q0 -51 -47.5 -153.5t-47.5 -140.5q0 -24 11 -34.5t36 -10.5q53 0 114 62t104.5 153t49.5 172q9 1 14 1q51 0 51 -53q0 -40 -19 -96.5t-45 -140t-38 -175.5q138 39 216 204q18 -3 18 -24
q0 -66 -69 -140t-175 -96z" />
    <glyph glyph-name="z" unicode="z" horiz-adv-x="506" 
d="M573 218q18 -3 18 -27q0 -29 -20 -66.5t-53 -73.5t-83.5 -60.5t-105.5 -24.5q-39 0 -79.5 19t-68.5 41t-65.5 41t-71.5 19q-8 0 -16 -2t-12 -4l-4 -3q-6 7 -6 18q0 35 49 52q103 34 200.5 98t149.5 133q-54 4 -111 22t-99 18q-29 0 -48.5 -15t-24.5 -31l-5 -15
q-13 12 -13 32q0 38 30.5 66.5t73.5 28.5q37 0 104.5 -22.5t105.5 -22.5q20 0 34 11.5t18 22.5l4 11q21 -8 21 -34q0 -47 -34.5 -97t-92 -94t-111 -77t-110.5 -62q19 -10 60.5 -37t73.5 -40.5t66 -13.5q39 0 74 17t61 45.5t45.5 56t37.5 56.5q5 10 8 14z" />
    <glyph glyph-name="braceleft" unicode="{" horiz-adv-x="400" 
d="M395 735q42 0 66.5 -15.5t24.5 -40.5q0 -7 -2 -13t-4 -8l-2 -3q-20 26 -80 26q-49 0 -81 -27t-32 -72q0 -40 25 -90t25 -79q0 -38 -18.5 -63.5t-36.5 -32.5l-18 -7q4 -2 10 -5.5t16 -20t10 -38.5q0 -33 -16 -61t-39 -47.5t-46 -38t-39 -41t-16 -48.5q0 -56 72 -56
q25 0 48.5 7t33.5 13l11 7q5 -6 5 -16q0 -28 -30 -48.5t-80 -20.5q-62 0 -97.5 29.5t-35.5 74.5q0 35 17.5 63.5t42.5 47.5t50.5 37t43 41.5t17.5 51.5q0 46 -57 46q-9 0 -17.5 -1.5t-13.5 -3.5l-4 -1q-7 6 -7 18q0 16 13 28t38 12q79 0 79 66q0 31 -26.5 82t-26.5 90
q0 71 52.5 114.5t124.5 43.5z" />
    <glyph glyph-name="bar" unicode="|" horiz-adv-x="397" 
d="M332 799q-4 -28 -10.5 -83t-17 -242.5t-10.5 -395.5q0 -52 2 -119t4 -108l3 -41q-6 -5 -12 -5q-40 0 -54.5 136t-14.5 387q0 292 23 395q17 79 72 79z" />
    <glyph glyph-name="braceright" unicode="}" horiz-adv-x="400" 
d="M257 54q0 -71 -52.5 -114.5t-124.5 -43.5q-42 0 -66.5 15.5t-24.5 40.5q0 7 2 13t4 9l2 2q20 -26 80 -26q49 0 81 27t32 72q0 40 -25 90.5t-25 79.5q0 38 18 63.5t36 32.5l19 7q-4 2 -10 5.5t-16 20t-10 38.5q0 41 24.5 74.5t53.5 53t53.5 48t24.5 59.5q0 56 -72 56
q-25 0 -48.5 -6.5t-34.5 -13.5l-10 -7q-5 6 -5 16q0 28 30 48.5t80 20.5q62 0 97.5 -29.5t35.5 -74.5q0 -35 -17.5 -63.5t-43 -47.5t-50.5 -36.5t-42.5 -41t-17.5 -51.5q0 -46 57 -46q9 0 17.5 1.5t12.5 3.5l5 1q7 -6 7 -18q0 -16 -13 -28t-38 -12q-79 0 -79 -66
q0 -31 26.5 -82.5t26.5 -90.5z" />
    <glyph glyph-name="asciitilde" unicode="~" 
d="M463 379q27 4 45 -13t18 -47q0 -55 -37.5 -91t-101.5 -36q-35 0 -68.5 17.5t-55 39t-49.5 39t-53 17.5q-31 0 -49.5 -18t-18.5 -48q0 -9 1.5 -18t3.5 -13l2 -4q-23 -1 -38 16t-15 46q0 45 30.5 74t85.5 29q39 0 72 -15t52.5 -33.5t46.5 -33.5t55 -15q38 0 60 19.5
t22 53.5q0 9 -2 17.5t-4 12.5z" />
    <glyph glyph-name="nbspace" unicode="&#xa0;" horiz-adv-x="254" 
 />
    <glyph glyph-name="exclamdown" unicode="&#xa1;" horiz-adv-x="370" 
d="M124 1q47 89 92 223.5t65 246.5q17 0 28 -14t11 -40q0 -70 -35.5 -196.5t-65.5 -187.5q-22 -42 -58 -42q-22 0 -37 10zM323 613q-20 0 -32.5 12.5t-12.5 33.5q0 25 16.5 43.5t43.5 18.5q20 0 32.5 -12.5t12.5 -31.5q0 -30 -17.5 -47t-42.5 -17z" />
    <glyph glyph-name="cent" unicode="&#xa2;" 
d="M185 -178q32 91 46 163q-90 6 -135.5 62.5t-45.5 146.5q0 87 33 169t98 140t146 69q0 59 24 111.5t64 52.5l20 -4q-31 -88 -46 -160q96 -16 96 -118q0 -50 -27 -84.5t-65 -34.5q-9 0 -16 2t-9 4l-2 2q5 4 13 12t21 34.5t13 56.5q0 72 -63 72t-115.5 -48.5t-80 -121.5
t-27.5 -150q0 -71 35.5 -108.5t99.5 -37.5q76 0 134.5 48t88.5 112q11 0 17 -11t6 -22q0 -56 -64 -116.5t-151 -74.5q0 -60 -24.5 -115t-63.5 -55z" />
    <glyph glyph-name="sterling" unicode="&#xa3;" 
d="M205 27q-58 -39 -125 -39q-31 0 -48.5 16t-17.5 38q0 32 26 51t69 19q45 0 83 -16q25 29 25 65q0 43 -24 77q-35 -2 -67.5 -6.5t-47.5 -7.5l-14 -4q-4 4 -4 13q0 39 98 56q-25 41 -25 95q0 83 60.5 137.5t160.5 54.5q76 0 124 -33.5t48 -85.5q0 -33 -21.5 -50.5
t-52.5 -15.5q7 17 7 37q0 41 -30 64t-82 23q-68 0 -105 -34t-37 -90q0 -49 25 -94q32 2 49 2q74 0 113.5 -17t39.5 -45l-4 -21q-68 21 -163 24q18 -38 18 -74q0 -46 -38 -94q9 -5 26 -14.5t24.5 -13.5t21 -11t21 -10t17.5 -6.5t18.5 -5t16.5 -1.5q38 0 60 21.5t22 61.5
q0 13 -3.5 24t-6.5 15l-4 5q31 4 52 -14t21 -48q0 -60 -39.5 -95.5t-104.5 -35.5q-12 0 -24 2t-21.5 4t-22.5 8t-20.5 9.5t-22.5 13t-21.5 13.5t-24.5 16t-25 17zM154 57q-26 12 -50 12q-30 0 -30 -19q0 -15 18 -15q16 0 31.5 5.5t22.5 11.5z" />
    <glyph glyph-name="yen" unicode="&#xa5;" 
d="M244 256v14q-151 15 -152 63l5 11q52 -13 142 -19q-11 78 -47 114.5t-85 36.5q-15 0 -27.5 -4.5t-17.5 -9.5l-4 -4q-20 12 -20 41q0 30 25.5 51t64.5 21q70 0 117 -58t63 -156q40 99 94.5 157.5t119.5 58.5q26 0 42.5 -16t16.5 -47q0 -10 -2.5 -20t-5.5 -14l-3 -5
q-17 7 -33 7q-127 0 -187 -156q88 0 149 19q6 -7 6 -19q0 -61 -174 -57q-9 -32 -15 -68q82 -6 154 11q5 -7 5 -19q0 -30 -48.5 -42t-119.5 -8q-12 -69 -36.5 -108.5t-56.5 -39.5q-14 0 -24.5 4t-13.5 8l-4 4q38 54 59 140q-71 11 -117 30t-46 44l5 12q59 -21 168 -31
q3 25 3 54z" />
    <glyph glyph-name="brokenbar" unicode="&#xa6;" horiz-adv-x="397" 
d="M299 -188q-6 -3 -19 -3q-34 0 -51.5 83t-17.5 201q0 162 58 162l23 -4q-7 -43 -7 -137q0 -89 3.5 -164.5t7.5 -106.5zM279 800l23 -4q-25 -131 -12 -439q-6 -3 -19 -3q-58 0 -58 235q0 211 66 211z" />
    <glyph glyph-name="section" unicode="&#xa7;" 
d="M397 43q39 -32 39 -87q0 -81 -66 -129.5t-173 -48.5q-92 0 -147 41t-55 100q0 27 13.5 47t37.5 20l19 -4q-12 -65 29 -105.5t115 -40.5q70 0 108.5 29t38.5 79q0 32 -23 52t-57 27t-74 17t-74 22t-57 42.5t-23 76.5q0 87 89 134q-28 31 -28 83q0 77 65.5 127t165.5 50
q77 0 129 -34t52 -85q0 -38 -22 -54t-53 -11q7 15 7 38q0 42 -33.5 64t-87.5 22q-67 0 -106.5 -30t-39.5 -80q0 -37 31.5 -57t77 -28.5t90.5 -19t76.5 -40t31.5 -80.5q0 -91 -96 -137zM338 73q75 27 75 96q0 33 -24 52.5t-53.5 25.5t-75.5 15.5t-72 19.5q-63 -30 -63 -93
q0 -25 12.5 -42.5t37 -28t48.5 -16.5t59 -14t56 -15z" />
    <glyph glyph-name="dieresis" unicode="&#xa8;" horiz-adv-x="500" 
d="M208 612q-20 0 -32.5 12.5t-12.5 31.5q0 30 17.5 47t42.5 17q20 0 32.5 -12.5t12.5 -33.5q0 -25 -16.5 -43.5t-43.5 -18.5zM406 612q-20 0 -32.5 12.5t-12.5 31.5q0 30 17.5 47t42.5 17q20 0 32.5 -12.5t12.5 -33.5q0 -25 -16.5 -43.5t-43.5 -18.5z" />
    <glyph glyph-name="copyright" unicode="&#xa9;" horiz-adv-x="934" 
d="M443 -104q-125 0 -210 80.5t-85 222.5q0 121 53.5 224.5t155 167.5t229.5 64q126 0 210 -79.5t84 -222.5q0 -122 -52.5 -225.5t-154 -167.5t-230.5 -64zM451 -49q105 0 190 55.5t131.5 147.5t46.5 199q0 119 -61 183.5t-177 64.5q-160 0 -266 -118t-106 -285
q0 -116 64.5 -181.5t177.5 -65.5zM612 158q0 -36 -40.5 -59.5t-87.5 -23.5q-59 0 -92.5 39t-33.5 106q0 104 68 180t161 76q34 0 55 -16t21 -39q0 -10 -3.5 -18t-7.5 -11l-3 -3q-2 4 -5.5 9t-22 14t-44.5 9q-57 0 -103.5 -56.5t-46.5 -135.5q0 -98 72 -98q28 0 54 13.5
t37 26.5l12 13q10 -9 10 -26z" />
    <glyph glyph-name="ordfeminine" unicode="&#xaa;" 
d="M562 485q20 -3 20 -24q0 -39 -30.5 -74.5t-66.5 -35.5q-32 0 -51 19.5t-22 39.5l-4 20q-2 -3 -5.5 -8.5t-16 -19t-27 -24t-39.5 -19t-52 -8.5q-49 0 -78.5 35t-29.5 84q0 108 81.5 185.5t196.5 77.5q51 0 80 -17.5t29 -43.5q0 -6 -2 -12t-4 -8l-2 -3q-40 30 -104 30
q-88 0 -149 -59t-61 -150q0 -31 17 -48.5t44 -17.5q86 0 135 171q6 23 22 36t33 13l16 -5q-37 -86 -37 -152q0 -64 39 -64q20 0 39.5 24t28.5 58z" />
    <glyph glyph-name="guillemotleft" unicode="&#xab;" horiz-adv-x="718" 
d="M568 25q-63 104 -177 198q-14 10 -14 30q70 26 145.5 81.5t133.5 122.5q12 -11 12 -30q0 -47 -57 -102t-134 -95q111 -96 111 -166q0 -27 -20 -39zM338 42q-65 107 -181 203q-14 10 -14 30q71 26 146.5 80.5t132.5 120.5q12 -11 12 -30q0 -47 -57 -100.5t-134 -93.5
q49 -42 82 -88.5t33 -82.5q0 -27 -20 -39z" />
    <glyph glyph-name="logicalnot" unicode="&#xac;" 
d="M421 278q-89 -31 -220 -31q-62 0 -96 20t-34 51q0 8 1.5 14.5t3.5 9.5l1 3q42 -19 106 -19q92 0 172 11.5t114 22.5l34 12q7 -7 7 -16q0 -8 -25.5 -106.5t-25.5 -177.5q-8 -4 -16 -4q-46 0 -46 74q0 55 24 136z" />
    <glyph glyph-name="registered" unicode="&#xae;" horiz-adv-x="934" 
d="M443 261q-28 -80 -28 -132q0 -8 1.5 -16.5t3.5 -12.5l2 -5q-10 -9 -31 -9q-39 0 -39 46q0 50 40.5 152t40.5 147l-4 21q43 22 122 22q62 0 92.5 -27.5t30.5 -69.5q0 -57 -46 -91.5t-121 -34.5q23 -55 53.5 -86.5t71.5 -55.5q-1 -10 -13 -17t-26 -7q-38 0 -79.5 45.5
t-70.5 130.5zM454 297q71 -6 116.5 12t45.5 61q0 56 -72 56q-11 0 -24 -2t-21 -4l-8 -2q-6 -47 -37 -121zM443 -104q-125 0 -210 80.5t-85 222.5q0 121 53.5 224.5t155 167.5t229.5 64q126 0 210 -79.5t84 -222.5q0 -122 -52.5 -225.5t-154 -167.5t-230.5 -64zM451 -49
q105 0 190 55.5t131.5 147.5t46.5 199q0 119 -61 183.5t-177 64.5q-160 0 -266 -118t-106 -285q0 -116 64.5 -181.5t177.5 -65.5z" />
    <glyph glyph-name="macron" unicode="&#xaf;" horiz-adv-x="500" 
d="M126 620q0 32 33.5 51t91.5 19q99 0 162.5 -24t63.5 -60q0 -7 -1.5 -13t-3.5 -9l-2 -2q-76 35 -232 35q-28 0 -55 -3.5t-41 -6.5l-13 -3q-3 7 -3 16z" />
    <glyph glyph-name="degree" unicode="&#xb0;" horiz-adv-x="418" 
d="M378 668q28 0 50 -24.5t22 -69.5q0 -89 -60 -147.5t-142 -58.5q-64 0 -102.5 39t-38.5 105q0 80 56 137.5t142 57.5q56 0 73 -39zM256 420q59 0 97 41t38 107q0 89 -91 89q-57 0 -94.5 -40.5t-37.5 -102.5q0 -44 23 -69t65 -25z" />
    <glyph glyph-name="plusminus" unicode="&#xb1;" 
d="M314 277q-14 -80 -19 -141q-7 -6 -20 -6q-39 0 -39 77q0 32 3 65q-154 0 -154 69q0 8 1.5 14.5t3.5 9.5l1 3q43 -19 114 -19q30 0 45 1q16 80 45.5 131.5t70.5 51.5q5 0 9.5 -1.5t6.5 -3.5l2 -2q-33 -74 -55 -171q56 6 104 16.5t68 18.5l20 7q7 -7 7 -16
q0 -41 -61.5 -67.5t-152.5 -36.5zM482 116q7 -7 7 -16q0 -36 -52.5 -62t-121 -36.5t-139.5 -10.5q-62 0 -96 20t-34 51q0 8 1.5 14.5t2.5 9.5l2 3q42 -19 106 -19q92 0 173 11.5t116 22.5z" />
    <glyph glyph-name="acute" unicode="&#xb4;" horiz-adv-x="500" 
d="M171 608q68 7 133.5 44.5t105.5 90.5q20 -11 20 -35q0 -51 -66 -95.5t-125 -44.5q-29 0 -47.5 11.5t-20.5 28.5z" />
    <glyph glyph-name="mu" unicode="&#xb5;" horiz-adv-x="520" 
d="M348 133q-4 -6 -11 -15.5t-29 -34t-45 -43t-56.5 -34t-65.5 -15.5q-21 0 -37.5 4.5t-22.5 8.5l-6 5q-40 -169 -62 -212q-24 -49 -61 -49q-28 0 -28 25q0 39 27.5 122.5t60.5 168.5t60.5 201.5t27.5 213.5q15 3 25 3q47 0 47 -57q0 -56 -32.5 -166.5t-32.5 -152.5
q0 -26 11.5 -38t36.5 -12q55 0 116 67t104 166t50 189q9 1 14 1q52 0 52 -59q0 -54 -41 -160t-41 -162q0 -54 41 -54q31 0 56 23.5t34 46.5l10 24q11 -1 17.5 -9.5t6.5 -17.5q0 -46 -42 -88.5t-95 -42.5q-56 0 -77.5 43t-11.5 110z" />
    <glyph glyph-name="mu" unicode="&#x3bc;" horiz-adv-x="520" 
d="M348 133q-4 -6 -11 -15.5t-29 -34t-45 -43t-56.5 -34t-65.5 -15.5q-21 0 -37.5 4.5t-22.5 8.5l-6 5q-40 -169 -62 -212q-24 -49 -61 -49q-28 0 -28 25q0 39 27.5 122.5t60.5 168.5t60.5 201.5t27.5 213.5q15 3 25 3q47 0 47 -57q0 -56 -32.5 -166.5t-32.5 -152.5
q0 -26 11.5 -38t36.5 -12q55 0 116 67t104 166t50 189q9 1 14 1q52 0 52 -59q0 -54 -41 -160t-41 -162q0 -54 41 -54q31 0 56 23.5t34 46.5l10 24q11 -1 17.5 -9.5t6.5 -17.5q0 -46 -42 -88.5t-95 -42.5q-56 0 -77.5 43t-11.5 110z" />
    <glyph glyph-name="paragraph" unicode="&#xb6;" horiz-adv-x="786" 
d="M327 -203q-18 0 -30.5 18.5t-12.5 48.5q0 91 41 275q-55 -65 -136 -65q-61 0 -96 42t-35 108q0 72 36 139.5t102 120t168.5 84.5t225.5 32q105 0 166.5 -32.5t61.5 -72.5q0 -8 -3 -15.5t-5 -10.5l-3 -3q-2 3 -7.5 7.5t-24.5 15.5t-42.5 20t-63.5 16t-85 7
q-207 0 -330 -91t-123 -217q0 -88 74 -88q52 0 96 45.5t64 109.5q28 94 45 123q18 34 55 34q19 0 33 -8q-54 -119 -102.5 -308t-68.5 -335zM702 457q-65 -119 -131 -319.5t-96 -347.5q-15 0 -27.5 16t-12.5 37q0 90 67.5 309.5t109.5 284.5q18 29 49 29q25 0 41 -9z" />
    <glyph glyph-name="periodcentered" unicode="&#xb7;" horiz-adv-x="494" 
d="M277 214q-20 0 -32.5 12.5t-12.5 31.5q0 30 17.5 47t42.5 17q20 0 32.5 -12.5t12.5 -33.5q0 -25 -16.5 -43.5t-43.5 -18.5z" />
    <glyph glyph-name="cedilla" unicode="&#xb8;" horiz-adv-x="500" 
d="M93 -109q0 27 35.5 70.5t43.5 65.5q32 -7 32 -30q0 -11 -42 -58q46 2 74.5 -14t28.5 -49q0 -43 -43 -72.5t-99 -29.5q-36 0 -52 13.5t-16 31.5q0 8 2.5 14.5t4.5 8.5l3 3q20 -21 65 -21q31 0 49.5 12.5t18.5 33.5q0 29 -57 29q-12 0 -24 -2t-18 -4z" />
    <glyph glyph-name="ordmasculine" unicode="&#xba;" 
d="M500 536q-25 -81 -80 -135t-125 -54q-58 0 -91.5 35t-33.5 100q0 91 65 170t152 79q42 0 57 -40q36 0 54 -29.5t11 -82.5q24 1 48 9.5t36 16.5l12 8q5 -6 5 -15q0 -25 -32.5 -42.5t-77.5 -19.5zM448 544q-47 22 -47 83q0 19 5.5 33.5t10.5 19.5l5 5q-83 0 -136.5 -61
t-53.5 -139q0 -88 73 -88q45 0 86 40t57 107z" />
    <glyph glyph-name="guillemotright" unicode="&#xbb;" horiz-adv-x="718" 
d="M432 249q-71 -28 -146.5 -83t-132.5 -121q-12 11 -12 30q0 47 57 102t134 95q-111 96 -111 166q0 27 20 39q63 -104 177 -198q14 -11 14 -30zM666 228q-72 -28 -147 -82t-132 -119q-12 11 -12 30q0 47 57 100.5t134 93.5q-49 42 -82 88.5t-33 82.5q0 27 20 39
q65 -107 181 -203q14 -10 14 -30z" />
    <glyph glyph-name="questiondown" unicode="&#xbf;" horiz-adv-x="590" 
d="M508 203q8 5 18 5q15 0 24 -12.5t9 -34.5q0 -70 -63.5 -120t-157.5 -50q-89 0 -142.5 42t-53.5 112q0 52 21.5 90t53.5 57.5t69 38.5t69 34t53.5 43.5t21.5 67.5q17 0 30 -14t13 -37q0 -40 -27.5 -67t-66.5 -43.5t-77.5 -34.5t-66 -50t-27.5 -79t36 -72t97 -25
q74 0 120.5 41.5t46.5 107.5zM477 614q-20 0 -32.5 12.5t-12.5 33.5q0 25 16.5 43.5t43.5 18.5q20 0 32.5 -12.5t12.5 -31.5q0 -30 -17.5 -47t-42.5 -17z" />
    <glyph glyph-name="Agrave" unicode="&#xc0;" horiz-adv-x="972" 
d="M1035 218q10 -1 16 -9t6 -16q0 -58 -64 -135.5t-140 -77.5q-56 0 -88 33t-32 88q0 51 16 112q-45 -24 -121 -34.5t-137 -1.5q-122 -196 -289 -196q-80 0 -126 45t-46 129q0 98 72.5 180.5t179.5 82.5q74 0 74 -50l-3 -16q-19 12 -59 12q-85 0 -136 -62t-51 -141
q0 -55 28.5 -85t78.5 -30q57 0 109 37t93.5 100t74 126t69 138t61.5 113q110 169 255 169q57 0 80 -26t23 -65q0 -41 -27 -109.5t-59.5 -132.5t-59.5 -143t-27 -138q0 -38 16.5 -53.5t50.5 -15.5q43 0 89 52.5t73 119.5zM525 235q106 -17 242 36q19 56 56 133.5t59.5 132
t22.5 85.5q0 47 -52 47q-54 0 -94.5 -35.5t-77.5 -95.5q-30 -48 -82 -155t-74 -148zM741 963q61 -103 214 -144q-5 -14 -23 -24t-40 -10q-58 0 -119 37t-61 90q0 16 9 31t20 20z" />
    <glyph glyph-name="Aacute" unicode="&#xc1;" horiz-adv-x="972" 
d="M1035 218q10 -1 16 -9t6 -16q0 -58 -64 -135.5t-140 -77.5q-56 0 -88 33t-32 88q0 51 16 112q-45 -24 -121 -34.5t-137 -1.5q-122 -196 -289 -196q-80 0 -126 45t-46 129q0 98 72.5 180.5t179.5 82.5q74 0 74 -50l-3 -16q-19 12 -59 12q-85 0 -136 -62t-51 -141
q0 -55 28.5 -85t78.5 -30q57 0 109 37t93.5 100t74 126t69 138t61.5 113q110 169 255 169q57 0 80 -26t23 -65q0 -41 -27 -109.5t-59.5 -132.5t-59.5 -143t-27 -138q0 -38 16.5 -53.5t50.5 -15.5q43 0 89 52.5t73 119.5zM525 235q106 -17 242 36q19 56 56 133.5t59.5 132
t22.5 85.5q0 47 -52 47q-54 0 -94.5 -35.5t-77.5 -95.5q-30 -48 -82 -155t-74 -148zM726 822q68 7 133.5 44.5t105.5 90.5q20 -11 20 -35q0 -51 -66 -95.5t-125 -44.5q-29 0 -47.5 11.5t-20.5 28.5z" />
    <glyph glyph-name="Acircumflex" unicode="&#xc2;" horiz-adv-x="972" 
d="M1035 218q10 -1 16 -9t6 -16q0 -58 -64 -135.5t-140 -77.5q-56 0 -88 33t-32 88q0 51 16 112q-45 -24 -121 -34.5t-137 -1.5q-122 -196 -289 -196q-80 0 -126 45t-46 129q0 98 72.5 180.5t179.5 82.5q74 0 74 -50l-3 -16q-19 12 -59 12q-85 0 -136 -62t-51 -141
q0 -55 28.5 -85t78.5 -30q57 0 109 37t93.5 100t74 126t69 138t61.5 113q110 169 255 169q57 0 80 -26t23 -65q0 -41 -27 -109.5t-59.5 -132.5t-59.5 -143t-27 -138q0 -38 16.5 -53.5t50.5 -15.5q43 0 89 52.5t73 119.5zM525 235q106 -17 242 36q19 56 56 133.5t59.5 132
t22.5 85.5q0 47 -52 47q-54 0 -94.5 -35.5t-77.5 -95.5q-30 -48 -82 -155t-74 -148zM1064 822q-5 -14 -20.5 -26t-31.5 -12q-29 0 -65 27.5t-63 77.5q-37 -44 -79 -70.5t-71 -26.5q-43 0 -56 49q59 14 119 54.5t102 84.5q26 -52 72 -97.5t93 -60.5z" />
    <glyph glyph-name="Atilde" unicode="&#xc3;" horiz-adv-x="972" 
d="M1035 218q10 -1 16 -9t6 -16q0 -58 -64 -135.5t-140 -77.5q-56 0 -88 33t-32 88q0 51 16 112q-45 -24 -121 -34.5t-137 -1.5q-122 -196 -289 -196q-80 0 -126 45t-46 129q0 98 72.5 180.5t179.5 82.5q74 0 74 -50l-3 -16q-19 12 -59 12q-85 0 -136 -62t-51 -141
q0 -55 28.5 -85t78.5 -30q57 0 109 37t93.5 100t74 126t69 138t61.5 113q110 169 255 169q57 0 80 -26t23 -65q0 -41 -27 -109.5t-59.5 -132.5t-59.5 -143t-27 -138q0 -38 16.5 -53.5t50.5 -15.5q43 0 89 52.5t73 119.5zM525 235q106 -17 242 36q19 56 56 133.5t59.5 132
t22.5 85.5q0 47 -52 47q-54 0 -94.5 -35.5t-77.5 -95.5q-30 -48 -82 -155t-74 -148zM1005 933q21 2 35 -10.5t14 -32.5q0 -46 -33 -78t-86 -32q-30 0 -57 14t-44.5 30t-42 30t-49.5 14q-24 0 -38 -15t-14 -39q0 -6 1.5 -11.5t2.5 -8.5l2 -2q-17 -3 -33.5 9t-16.5 37
q0 39 28 67.5t75 28.5q31 0 59 -13.5t45 -30t40.5 -30t46.5 -13.5q33 0 51 19.5t18 45.5z" />
    <glyph glyph-name="Adieresis" unicode="&#xc4;" horiz-adv-x="972" 
d="M1035 218q10 -1 16 -9t6 -16q0 -58 -64 -135.5t-140 -77.5q-56 0 -88 33t-32 88q0 51 16 112q-45 -24 -121 -34.5t-137 -1.5q-122 -196 -289 -196q-80 0 -126 45t-46 129q0 98 72.5 180.5t179.5 82.5q74 0 74 -50l-3 -16q-19 12 -59 12q-85 0 -136 -62t-51 -141
q0 -55 28.5 -85t78.5 -30q57 0 109 37t93.5 100t74 126t69 138t61.5 113q110 169 255 169q57 0 80 -26t23 -65q0 -41 -27 -109.5t-59.5 -132.5t-59.5 -143t-27 -138q0 -38 16.5 -53.5t50.5 -15.5q43 0 89 52.5t73 119.5zM525 235q106 -17 242 36q19 56 56 133.5t59.5 132
t22.5 85.5q0 47 -52 47q-54 0 -94.5 -35.5t-77.5 -95.5q-30 -48 -82 -155t-74 -148zM750 815q-20 0 -32.5 12.5t-12.5 31.5q0 30 17.5 47t42.5 17q20 0 32.5 -12.5t12.5 -33.5q0 -25 -16.5 -43.5t-43.5 -18.5zM948 815q-20 0 -32.5 12.5t-12.5 31.5q0 30 17.5 47t42.5 17
q20 0 32.5 -12.5t12.5 -33.5q0 -25 -16.5 -43.5t-43.5 -18.5z" />
    <glyph glyph-name="Aring" unicode="&#xc5;" horiz-adv-x="972" 
d="M1035 218q10 -1 16 -9t6 -16q0 -58 -64 -135.5t-140 -77.5q-56 0 -88 33t-32 88q0 51 16 112q-45 -24 -121 -34.5t-137 -1.5q-122 -196 -289 -196q-80 0 -126 45t-46 129q0 98 72.5 180.5t179.5 82.5q74 0 74 -50l-3 -16q-19 12 -59 12q-85 0 -136 -62t-51 -141
q0 -55 28.5 -85t78.5 -30q57 0 109 37t93.5 100t74 126t69 138t61.5 113q110 169 255 169q57 0 80 -26t23 -65q0 -41 -27 -109.5t-59.5 -132.5t-59.5 -143t-27 -138q0 -38 16.5 -53.5t50.5 -15.5q43 0 89 52.5t73 119.5zM525 235q106 -17 242 36q19 56 56 133.5t59.5 132
t22.5 85.5q0 47 -52 47q-54 0 -94.5 -35.5t-77.5 -95.5q-30 -48 -82 -155t-74 -148zM935 883q0 51 -54 51q-28 0 -48.5 -18t-20.5 -46q0 -23 14.5 -36t40.5 -13q30 0 49 17.5t19 44.5zM988 889q0 -47 -34.5 -80t-92.5 -33q-45 0 -74 24t-29 63q0 55 38.5 86t91.5 31
q46 0 73 -25t27 -66z" />
    <glyph glyph-name="AE" unicode="&#xc6;" horiz-adv-x="1243" 
d="M1310 218q18 -3 18 -24q0 -28 -28 -66t-74 -75t-117 -62.5t-147 -25.5q-118 0 -185 54t-67 141q0 27 8 56q-41 -25 -113.5 -36t-134.5 -3q-52 -93 -115.5 -144.5t-152.5 -51.5q-80 0 -126 45t-46 129q0 98 72.5 180.5t179.5 82.5q74 0 74 -50l-3 -16q-19 12 -59 12
q-85 0 -136 -62t-51 -141q0 -55 28.5 -85t78.5 -30q53 0 99.5 37t83 99.5t66 127t63 138t59.5 112.5q110 169 255 169q68 0 91 -42q75 40 182 40q101 0 153 -38t52 -96q0 -38 -20 -55t-52 -12q8 15 8 37q0 52 -40 80.5t-113 28.5q-98 0 -158 -48.5t-60 -126.5
q0 -137 207 -137q23 0 41 2.5t25 5.5l7 2q4 -5 4 -16q0 -22 -18.5 -35.5t-51.5 -13.5q-18 0 -58.5 4.5t-63.5 4.5q-92 0 -143.5 -41t-51.5 -110q0 -60 50 -97.5t143 -37.5q62 0 120 20t100 51.5t70.5 61t46.5 57.5zM898 353q-39 25 -62 61.5t-23 77.5q0 86 54 146
q-9 31 -50 31q-54 0 -94.5 -35.5t-77.5 -95.5q-32 -51 -84 -167t-61 -135q152 -21 254 50q32 22 44.5 30t41.5 20.5t58 16.5z" />
    <glyph glyph-name="Ccedilla" unicode="&#xc7;" horiz-adv-x="610" 
d="M281 -120q0 13 6 27t11.5 21.5t20 25t18.5 22.5q-106 9 -161 78.5t-55 178.5q0 76 22 148q-113 58 -113 172q0 31 15 51t38 20l17 -5q-10 -18 -10 -41q0 -96 73 -141q52 126 152.5 207.5t227.5 81.5q77 0 122 -36.5t45 -104.5q0 -108 -99 -180t-248 -72q-82 0 -157 22
q-15 -59 -15 -118q0 -97 49 -148.5t137 -51.5q72 0 139 33.5t104.5 71t62.5 76.5q18 -3 18 -24q0 -60 -93.5 -135.5t-219.5 -83.5q-6 -9 -38 -47q46 2 74.5 -14t28.5 -49q0 -43 -43 -72.5t-99 -29.5q-36 0 -52 13.5t-16 31.5q0 8 2.5 14.5t4.5 9.5l3 2q20 -21 65 -21
q31 0 49.5 12.5t18.5 33.5q0 29 -57 29q-12 0 -24 -2t-18 -4zM223 410q62 -19 152 -19q115 0 192.5 56t77.5 130q0 89 -102 89q-108 0 -192.5 -72t-127.5 -184z" />
    <glyph glyph-name="Egrave" unicode="&#xc8;" horiz-adv-x="573" 
d="M640 218q18 -3 18 -24q0 -28 -28 -66t-74 -75t-117 -62.5t-147 -25.5q-118 0 -185 54t-67 141q0 75 51.5 128.5t136.5 64.5q-39 25 -62 61.5t-23 77.5q0 103 78.5 169t221.5 66q101 0 153 -38t52 -96q0 -38 -20 -55t-52 -12q8 15 8 37q0 52 -40 80.5t-113 28.5
q-98 0 -158 -48.5t-60 -126.5q0 -137 207 -137q23 0 41 2.5t25 5.5l7 2q4 -5 4 -16q0 -22 -18.5 -35.5t-51.5 -13.5q-18 0 -58.5 4.5t-63.5 4.5q-92 0 -143.5 -41t-51.5 -110q0 -60 50 -97.5t143 -37.5q62 0 120 20t100 51.5t70.5 61t46.5 57.5zM360 963q61 -103 214 -144
q-5 -14 -23 -24t-40 -10q-58 0 -119 37t-61 90q0 16 9 31t20 20z" />
    <glyph glyph-name="Eacute" unicode="&#xc9;" horiz-adv-x="573" 
d="M640 218q18 -3 18 -24q0 -28 -28 -66t-74 -75t-117 -62.5t-147 -25.5q-118 0 -185 54t-67 141q0 75 51.5 128.5t136.5 64.5q-39 25 -62 61.5t-23 77.5q0 103 78.5 169t221.5 66q101 0 153 -38t52 -96q0 -38 -20 -55t-52 -12q8 15 8 37q0 52 -40 80.5t-113 28.5
q-98 0 -158 -48.5t-60 -126.5q0 -137 207 -137q23 0 41 2.5t25 5.5l7 2q4 -5 4 -16q0 -22 -18.5 -35.5t-51.5 -13.5q-18 0 -58.5 4.5t-63.5 4.5q-92 0 -143.5 -41t-51.5 -110q0 -60 50 -97.5t143 -37.5q62 0 120 20t100 51.5t70.5 61t46.5 57.5zM326 822q68 7 133.5 44.5
t105.5 90.5q20 -11 20 -35q0 -51 -66 -95.5t-125 -44.5q-29 0 -47.5 11.5t-20.5 28.5z" />
    <glyph glyph-name="Ecircumflex" unicode="&#xca;" horiz-adv-x="573" 
d="M640 218q18 -3 18 -24q0 -28 -28 -66t-74 -75t-117 -62.5t-147 -25.5q-118 0 -185 54t-67 141q0 75 51.5 128.5t136.5 64.5q-39 25 -62 61.5t-23 77.5q0 103 78.5 169t221.5 66q101 0 153 -38t52 -96q0 -38 -20 -55t-52 -12q8 15 8 37q0 52 -40 80.5t-113 28.5
q-98 0 -158 -48.5t-60 -126.5q0 -137 207 -137q23 0 41 2.5t25 5.5l7 2q4 -5 4 -16q0 -22 -18.5 -35.5t-51.5 -13.5q-18 0 -58.5 4.5t-63.5 4.5q-92 0 -143.5 -41t-51.5 -110q0 -60 50 -97.5t143 -37.5q62 0 120 20t100 51.5t70.5 61t46.5 57.5zM655 821q-5 -14 -20.5 -26
t-31.5 -12q-29 0 -65 27.5t-63 77.5q-37 -44 -79 -70.5t-71 -26.5q-43 0 -56 49q59 14 119 54.5t102 84.5q26 -52 72 -97.5t93 -60.5z" />
    <glyph glyph-name="Edieresis" unicode="&#xcb;" horiz-adv-x="573" 
d="M640 218q18 -3 18 -24q0 -28 -28 -66t-74 -75t-117 -62.5t-147 -25.5q-118 0 -185 54t-67 141q0 75 51.5 128.5t136.5 64.5q-39 25 -62 61.5t-23 77.5q0 103 78.5 169t221.5 66q101 0 153 -38t52 -96q0 -38 -20 -55t-52 -12q8 15 8 37q0 52 -40 80.5t-113 28.5
q-98 0 -158 -48.5t-60 -126.5q0 -137 207 -137q23 0 41 2.5t25 5.5l7 2q4 -5 4 -16q0 -22 -18.5 -35.5t-51.5 -13.5q-18 0 -58.5 4.5t-63.5 4.5q-92 0 -143.5 -41t-51.5 -110q0 -60 50 -97.5t143 -37.5q62 0 120 20t100 51.5t70.5 61t46.5 57.5zM339 814q-20 0 -32.5 12.5
t-12.5 31.5q0 30 17.5 47t42.5 17q20 0 32.5 -12.5t12.5 -33.5q0 -25 -16.5 -43.5t-43.5 -18.5zM537 814q-20 0 -32.5 12.5t-12.5 31.5q0 30 17.5 47t42.5 17q20 0 32.5 -12.5t12.5 -33.5q0 -25 -16.5 -43.5t-43.5 -18.5z" />
    <glyph glyph-name="Igrave" unicode="&#xcc;" horiz-adv-x="569" 
d="M539 639q-67 34 -175 34q-60 0 -93 -29t-33 -79q0 -14 3.5 -26.5t6.5 -17.5l4 -5q-35 -4 -54.5 18t-19.5 58q0 61 51.5 101.5t146.5 40.5q66 0 124.5 -14t83.5 -28l25 -14q0 -125 -26 -248.5t-74.5 -227.5t-128 -168.5t-176.5 -64.5q-80 0 -126 45t-46 129q0 98 66 174.5
t168 76.5q39 0 59 -15t20 -41l-3 -16q-24 15 -68 15q-75 0 -122.5 -54.5t-47.5 -134.5q0 -114 112 -114q66 0 122 45t92 113.5t61.5 152t36.5 158.5t11 136zM348 964q61 -103 214 -144q-5 -14 -23 -24t-40 -10q-58 0 -119 37t-61 90q0 16 9 31t20 20z" />
    <glyph glyph-name="Iacute" unicode="&#xcd;" horiz-adv-x="569" 
d="M539 639q-67 34 -175 34q-60 0 -93 -29t-33 -79q0 -14 3.5 -26.5t6.5 -17.5l4 -5q-35 -4 -54.5 18t-19.5 58q0 61 51.5 101.5t146.5 40.5q66 0 124.5 -14t83.5 -28l25 -14q0 -125 -26 -248.5t-74.5 -227.5t-128 -168.5t-176.5 -64.5q-80 0 -126 45t-46 129q0 98 66 174.5
t168 76.5q39 0 59 -15t20 -41l-3 -16q-24 15 -68 15q-75 0 -122.5 -54.5t-47.5 -134.5q0 -114 112 -114q66 0 122 45t92 113.5t61.5 152t36.5 158.5t11 136zM347 823q68 7 133.5 44.5t105.5 90.5q20 -11 20 -35q0 -51 -66 -95.5t-125 -44.5q-29 0 -47.5 11.5t-20.5 28.5z
" />
    <glyph glyph-name="Icircumflex" unicode="&#xce;" horiz-adv-x="569" 
d="M539 639q-67 34 -175 34q-60 0 -93 -29t-33 -79q0 -14 3.5 -26.5t6.5 -17.5l4 -5q-35 -4 -54.5 18t-19.5 58q0 61 51.5 101.5t146.5 40.5q66 0 124.5 -14t83.5 -28l25 -14q0 -125 -26 -248.5t-74.5 -227.5t-128 -168.5t-176.5 -64.5q-80 0 -126 45t-46 129q0 98 66 174.5
t168 76.5q39 0 59 -15t20 -41l-3 -16q-24 15 -68 15q-75 0 -122.5 -54.5t-47.5 -134.5q0 -114 112 -114q66 0 122 45t92 113.5t61.5 152t36.5 158.5t11 136zM670 821q-5 -14 -20.5 -26t-31.5 -12q-29 0 -65 27.5t-63 77.5q-37 -44 -79 -70.5t-71 -26.5q-43 0 -56 49
q59 14 119 54.5t102 84.5q26 -52 72 -97.5t93 -60.5z" />
    <glyph glyph-name="Idieresis" unicode="&#xcf;" horiz-adv-x="569" 
d="M539 639q-67 34 -175 34q-60 0 -93 -29t-33 -79q0 -14 3.5 -26.5t6.5 -17.5l4 -5q-35 -4 -54.5 18t-19.5 58q0 61 51.5 101.5t146.5 40.5q66 0 124.5 -14t83.5 -28l25 -14q0 -125 -26 -248.5t-74.5 -227.5t-128 -168.5t-176.5 -64.5q-80 0 -126 45t-46 129q0 98 66 174.5
t168 76.5q39 0 59 -15t20 -41l-3 -16q-24 15 -68 15q-75 0 -122.5 -54.5t-47.5 -134.5q0 -114 112 -114q66 0 122 45t92 113.5t61.5 152t36.5 158.5t11 136zM337 815q-20 0 -32.5 12.5t-12.5 31.5q0 30 17.5 47t42.5 17q20 0 32.5 -12.5t12.5 -33.5q0 -25 -16.5 -43.5
t-43.5 -18.5zM535 815q-20 0 -32.5 12.5t-12.5 31.5q0 30 17.5 47t42.5 17q20 0 32.5 -12.5t12.5 -33.5q0 -25 -16.5 -43.5t-43.5 -18.5z" />
    <glyph glyph-name="Eth" unicode="&#xd0;" horiz-adv-x="783" 
d="M301 243q-42 3 -65.5 19t-23.5 41l3 12q50 -7 108 -7q60 196 66 344q-130 -42 -204 -142q-16 5 -16 30q0 63 109.5 127.5t260.5 64.5q131 0 200 -66.5t69 -180.5q0 -128 -64 -246t-181.5 -194t-257.5 -76q-75 0 -130.5 19t-86 52t-44.5 69.5t-14 78.5q0 51 17 80.5
t45 29.5q5 0 10.5 -1.5t7.5 -2.5l3 -2q-22 -34 -22 -87q0 -124 117 -163q48 73 93 201zM370 244q-43 -134 -92 -216q117 -13 224 47.5t171 169.5t64 232q0 197 -206 197q-52 0 -99 -11q19 -13 19 -50q0 -108 -58 -298q76 14 135 50q6 -5 6 -15q0 -40 -43 -69.5t-121 -36.5z
" />
    <glyph glyph-name="Ntilde" unicode="&#xd1;" horiz-adv-x="914" 
d="M883 3q-10 -12 -30 -12q-65 0 -98 174q-25 136 -89 255t-150 182q0 -44 -2.5 -90.5t-10.5 -111t-21.5 -121.5t-37.5 -115.5t-56 -100t-79.5 -68t-105.5 -26.5q-79 0 -126 47.5t-47 128.5q0 92 58.5 159.5t153.5 67.5q37 0 58 -15.5t21 -39.5l-4 -19q-22 18 -64 18
q-69 0 -111 -46.5t-42 -119.5q0 -54 31.5 -85t83.5 -31q56 0 99 40.5t68 102.5t41 147t22 161t6 157q-48 20 -97 20q-20 0 -36.5 -5t-25.5 -12t-15 -14t-8 -12l-2 -5q-22 5 -22 35q0 40 34.5 61.5t82.5 21.5q134 0 236.5 -102.5t162.5 -267.5q20 161 82.5 263.5t160.5 102.5
q29 0 44.5 -14t15.5 -37q0 -16 -7 -28.5t-14 -16.5l-7 -4q0 3 -1 8t-12 13t-31 8q-71 0 -121.5 -120t-50.5 -289q0 -159 63 -245zM823 934q21 2 35 -10.5t14 -32.5q0 -46 -33 -78t-86 -32q-30 0 -57 13.5t-44.5 30.5t-42 30.5t-49.5 13.5q-24 0 -38 -15t-14 -39
q0 -6 1.5 -11.5t2.5 -7.5l2 -3q-17 -3 -33.5 9t-16.5 37q0 39 28 67.5t75 28.5q39 0 72 -21.5t61.5 -43.5t57.5 -22q33 0 51 19.5t18 45.5z" />
    <glyph glyph-name="Ograve" unicode="&#xd2;" horiz-adv-x="671" 
d="M531 548q1 4 4.5 10t17.5 16.5t34 10.5q42 0 70.5 -42.5t28.5 -107.5q0 -112 -50.5 -215.5t-143 -170.5t-203.5 -67q-117 0 -178 69t-61 185q0 86 32 173.5t87.5 158t137 114.5t172.5 44q69 0 105.5 -26.5t36.5 -61.5q0 -8 -2.5 -15.5t-5.5 -10.5l-3 -3q-1 2 -4 6
t-13.5 14t-24 17.5t-37.5 13.5t-52 6q-101 0 -185 -65t-128.5 -162t-44.5 -200q0 -96 47.5 -145t131.5 -49q130 0 225 117.5t95 267.5q0 56 -25.5 87t-63.5 31zM397 964q61 -103 214 -144q-5 -14 -23 -24t-40 -10q-58 0 -119 37t-61 90q0 16 9 31t20 20z" />
    <glyph glyph-name="Oacute" unicode="&#xd3;" horiz-adv-x="671" 
d="M531 548q1 4 4.5 10t17.5 16.5t34 10.5q42 0 70.5 -42.5t28.5 -107.5q0 -112 -50.5 -215.5t-143 -170.5t-203.5 -67q-117 0 -178 69t-61 185q0 86 32 173.5t87.5 158t137 114.5t172.5 44q69 0 105.5 -26.5t36.5 -61.5q0 -8 -2.5 -15.5t-5.5 -10.5l-3 -3q-1 2 -4 6
t-13.5 14t-24 17.5t-37.5 13.5t-52 6q-101 0 -185 -65t-128.5 -162t-44.5 -200q0 -96 47.5 -145t131.5 -49q130 0 225 117.5t95 267.5q0 56 -25.5 87t-63.5 31zM350 822q68 7 133.5 44.5t105.5 90.5q20 -11 20 -35q0 -51 -66 -95.5t-125 -44.5q-29 0 -47.5 11.5t-20.5 28.5z
" />
    <glyph glyph-name="Ocircumflex" unicode="&#xd4;" horiz-adv-x="671" 
d="M531 548q1 4 4.5 10t17.5 16.5t34 10.5q42 0 70.5 -42.5t28.5 -107.5q0 -112 -50.5 -215.5t-143 -170.5t-203.5 -67q-117 0 -178 69t-61 185q0 86 32 173.5t87.5 158t137 114.5t172.5 44q69 0 105.5 -26.5t36.5 -61.5q0 -8 -2.5 -15.5t-5.5 -10.5l-3 -3q-1 2 -4 6
t-13.5 14t-24 17.5t-37.5 13.5t-52 6q-101 0 -185 -65t-128.5 -162t-44.5 -200q0 -96 47.5 -145t131.5 -49q130 0 225 117.5t95 267.5q0 56 -25.5 87t-63.5 31zM706 822q-5 -14 -20.5 -26t-31.5 -12q-29 0 -65 27.5t-63 77.5q-37 -44 -79 -70.5t-71 -26.5q-43 0 -56 49
q59 14 119 54.5t102 84.5q26 -52 72 -97.5t93 -60.5z" />
    <glyph glyph-name="Otilde" unicode="&#xd5;" horiz-adv-x="671" 
d="M531 548q1 4 4.5 10t17.5 16.5t34 10.5q42 0 70.5 -42.5t28.5 -107.5q0 -112 -50.5 -215.5t-143 -170.5t-203.5 -67q-117 0 -178 69t-61 185q0 86 32 173.5t87.5 158t137 114.5t172.5 44q69 0 105.5 -26.5t36.5 -61.5q0 -8 -2.5 -15.5t-5.5 -10.5l-3 -3q-1 2 -4 6
t-13.5 14t-24 17.5t-37.5 13.5t-52 6q-101 0 -185 -65t-128.5 -162t-44.5 -200q0 -96 47.5 -145t131.5 -49q130 0 225 117.5t95 267.5q0 56 -25.5 87t-63.5 31zM654 930q21 2 35 -10.5t14 -32.5q0 -46 -33 -78t-86 -32q-30 0 -57 13.5t-44.5 30.5t-42 30.5t-49.5 13.5
q-24 0 -38 -15t-14 -39q0 -6 1.5 -11.5t3.5 -7.5l1 -3q-17 -3 -33.5 9t-16.5 37q0 39 28 67.5t75 28.5q39 0 72 -21.5t61.5 -43.5t57.5 -22q33 0 51 19.5t18 45.5z" />
    <glyph glyph-name="Odieresis" unicode="&#xd6;" horiz-adv-x="671" 
d="M531 548q1 4 4.5 10t17.5 16.5t34 10.5q42 0 70.5 -42.5t28.5 -107.5q0 -112 -50.5 -215.5t-143 -170.5t-203.5 -67q-117 0 -178 69t-61 185q0 86 32 173.5t87.5 158t137 114.5t172.5 44q69 0 105.5 -26.5t36.5 -61.5q0 -8 -2.5 -15.5t-5.5 -10.5l-3 -3q-1 2 -4 6
t-13.5 14t-24 17.5t-37.5 13.5t-52 6q-101 0 -185 -65t-128.5 -162t-44.5 -200q0 -96 47.5 -145t131.5 -49q130 0 225 117.5t95 267.5q0 56 -25.5 87t-63.5 31zM384 815q-20 0 -32.5 12.5t-12.5 31.5q0 30 17.5 47t42.5 17q20 0 32.5 -12.5t12.5 -33.5q0 -25 -16.5 -43.5
t-43.5 -18.5zM582 815q-20 0 -32.5 12.5t-12.5 31.5q0 30 17.5 47t42.5 17q20 0 32.5 -12.5t12.5 -33.5q0 -25 -16.5 -43.5t-43.5 -18.5z" />
    <glyph glyph-name="multiply" unicode="&#xd7;" 
d="M271 210q-78 -32 -130 -32q-28 0 -46 15.5t-18 38.5q82 11 164 43q-47 109 -47 163q0 26 12 46t30 20q25 -84 75 -198q88 43 172 109q10 -10 10 -22q0 -34 -43 -74t-110 -76q33 -73 74 -152q-10 -18 -29 -18q-22 0 -53 38.5t-61 98.5z" />
    <glyph glyph-name="Oslash" unicode="&#xd8;" horiz-adv-x="671" 
d="M198 -4q-42 -67 -76 -125q-10 2 -16.5 13t-6.5 25q0 23 49 110q-98 65 -98 217q0 86 32 173.5t87.5 158t137 114.5t172.5 44q73 0 110 -32q46 57 60 70q38 37 74 37q30 0 39 -11q-71 -76 -167 -206q39 -5 65 -46t26 -103q0 -112 -50.5 -215.5t-143 -170.5t-203.5 -67
q-51 0 -91 14zM182 81q178 303 375 570q-32 15 -78 15q-101 0 -185 -65t-128.5 -162t-44.5 -200q0 -110 61 -158zM564 541q-150 -206 -329 -487q29 -9 65 -9q130 0 225 117.5t95 267.5q0 85 -56 111z" />
    <glyph glyph-name="Ugrave" unicode="&#xd9;" horiz-adv-x="807" 
d="M579 133q-4 -6 -11.5 -16t-32.5 -35.5t-51.5 -45t-68 -35.5t-82.5 -16q-59 0 -98.5 34t-39.5 95q0 41 20 84t48.5 81.5t56.5 77.5t48 85t20 91q0 64 -35.5 103t-104.5 39q-63 0 -107.5 -41.5t-44.5 -117.5q0 -49 27.5 -77.5t70.5 -28.5q15 0 27.5 3t17.5 7l5 3
q5 -5 5 -15q0 -19 -20.5 -33.5t-51.5 -14.5q-70 0 -108.5 43t-38.5 107q0 98 63 160.5t160 62.5q100 0 149.5 -55.5t49.5 -138.5q0 -57 -29 -119.5t-63 -107.5t-63 -97.5t-29 -90.5q0 -36 21.5 -56t62.5 -20q61 0 118 45t92.5 103t53.5 118q8 27 23 77q28 94 42.5 138
t36.5 99t43.5 76t47.5 21q27 0 27 -24q0 -36 -30.5 -111t-67 -149.5t-67 -167t-30.5 -158.5q0 -37 15.5 -53t47.5 -16q46 0 92.5 51.5t73.5 120.5q10 -1 16 -9t6 -16q0 -59 -64 -136t-140 -77q-57 0 -86.5 41t-22.5 112zM425 964q61 -103 214 -144q-5 -14 -23 -24t-40 -10
q-58 0 -119 37t-61 90q0 16 9 31t20 20z" />
    <glyph glyph-name="Uacute" unicode="&#xda;" horiz-adv-x="807" 
d="M579 133q-4 -6 -11.5 -16t-32.5 -35.5t-51.5 -45t-68 -35.5t-82.5 -16q-59 0 -98.5 34t-39.5 95q0 41 20 84t48.5 81.5t56.5 77.5t48 85t20 91q0 64 -35.5 103t-104.5 39q-63 0 -107.5 -41.5t-44.5 -117.5q0 -49 27.5 -77.5t70.5 -28.5q15 0 27.5 3t17.5 7l5 3
q5 -5 5 -15q0 -19 -20.5 -33.5t-51.5 -14.5q-70 0 -108.5 43t-38.5 107q0 98 63 160.5t160 62.5q100 0 149.5 -55.5t49.5 -138.5q0 -57 -29 -119.5t-63 -107.5t-63 -97.5t-29 -90.5q0 -36 21.5 -56t62.5 -20q61 0 118 45t92.5 103t53.5 118q8 27 23 77q28 94 42.5 138
t36.5 99t43.5 76t47.5 21q27 0 27 -24q0 -36 -30.5 -111t-67 -149.5t-67 -167t-30.5 -158.5q0 -37 15.5 -53t47.5 -16q46 0 92.5 51.5t73.5 120.5q10 -1 16 -9t6 -16q0 -59 -64 -136t-140 -77q-57 0 -86.5 41t-22.5 112zM474 822q68 7 133.5 44.5t105.5 90.5q20 -11 20 -35
q0 -51 -66 -95.5t-125 -44.5q-29 0 -47.5 11.5t-20.5 28.5z" />
    <glyph glyph-name="Ucircumflex" unicode="&#xdb;" horiz-adv-x="807" 
d="M579 133q-4 -6 -11.5 -16t-32.5 -35.5t-51.5 -45t-68 -35.5t-82.5 -16q-59 0 -98.5 34t-39.5 95q0 41 20 84t48.5 81.5t56.5 77.5t48 85t20 91q0 64 -35.5 103t-104.5 39q-63 0 -107.5 -41.5t-44.5 -117.5q0 -49 27.5 -77.5t70.5 -28.5q15 0 27.5 3t17.5 7l5 3
q5 -5 5 -15q0 -19 -20.5 -33.5t-51.5 -14.5q-70 0 -108.5 43t-38.5 107q0 98 63 160.5t160 62.5q100 0 149.5 -55.5t49.5 -138.5q0 -57 -29 -119.5t-63 -107.5t-63 -97.5t-29 -90.5q0 -36 21.5 -56t62.5 -20q61 0 118 45t92.5 103t53.5 118q8 27 23 77q28 94 42.5 138
t36.5 99t43.5 76t47.5 21q27 0 27 -24q0 -36 -30.5 -111t-67 -149.5t-67 -167t-30.5 -158.5q0 -37 15.5 -53t47.5 -16q46 0 92.5 51.5t73.5 120.5q10 -1 16 -9t6 -16q0 -59 -64 -136t-140 -77q-57 0 -86.5 41t-22.5 112zM776 821q-5 -14 -20.5 -26t-31.5 -12q-29 0 -65 27.5
t-63 77.5q-37 -44 -79 -70.5t-71 -26.5q-43 0 -56 49q59 14 119 54.5t102 84.5q26 -52 72 -97.5t93 -60.5z" />
    <glyph glyph-name="Udieresis" unicode="&#xdc;" horiz-adv-x="807" 
d="M579 133q-4 -6 -11.5 -16t-32.5 -35.5t-51.5 -45t-68 -35.5t-82.5 -16q-59 0 -98.5 34t-39.5 95q0 41 20 84t48.5 81.5t56.5 77.5t48 85t20 91q0 64 -35.5 103t-104.5 39q-63 0 -107.5 -41.5t-44.5 -117.5q0 -49 27.5 -77.5t70.5 -28.5q15 0 27.5 3t17.5 7l5 3
q5 -5 5 -15q0 -19 -20.5 -33.5t-51.5 -14.5q-70 0 -108.5 43t-38.5 107q0 98 63 160.5t160 62.5q100 0 149.5 -55.5t49.5 -138.5q0 -57 -29 -119.5t-63 -107.5t-63 -97.5t-29 -90.5q0 -36 21.5 -56t62.5 -20q61 0 118 45t92.5 103t53.5 118q8 27 23 77q28 94 42.5 138
t36.5 99t43.5 76t47.5 21q27 0 27 -24q0 -36 -30.5 -111t-67 -149.5t-67 -167t-30.5 -158.5q0 -37 15.5 -53t47.5 -16q46 0 92.5 51.5t73.5 120.5q10 -1 16 -9t6 -16q0 -59 -64 -136t-140 -77q-57 0 -86.5 41t-22.5 112zM452 815q-20 0 -32.5 12.5t-12.5 31.5q0 30 17.5 47
t42.5 17q20 0 32.5 -12.5t12.5 -33.5q0 -25 -16.5 -43.5t-43.5 -18.5zM650 815q-20 0 -32.5 12.5t-12.5 31.5q0 30 17.5 47t42.5 17q20 0 32.5 -12.5t12.5 -33.5q0 -25 -16.5 -43.5t-43.5 -18.5z" />
    <glyph glyph-name="Yacute" unicode="&#xdd;" horiz-adv-x="767" 
d="M541 -49q-261 -10 -261 -90q0 -51 75 -51q63 0 114.5 38.5t71.5 102.5zM608 -42q-26 -93 -96.5 -147.5t-168.5 -54.5q-60 0 -96 27.5t-36 68.5q0 40 23.5 68.5t69.5 46.5t107 27t144 12q19 120 33 175q-4 -6 -11.5 -16t-32.5 -35t-52.5 -44t-69 -35t-84.5 -16
q-59 0 -98.5 34t-39.5 95q0 41 19.5 79t47 69t55 63t47 72.5t19.5 85.5q0 64 -35.5 103t-104.5 39q-63 0 -107.5 -41.5t-44.5 -117.5q0 -49 27.5 -77.5t70.5 -28.5q15 0 27.5 3t17.5 7l5 3q5 -5 5 -15q0 -19 -20.5 -33.5t-51.5 -14.5q-70 0 -108.5 43t-38.5 107
q0 98 63 160.5t160 62.5q100 0 149.5 -55.5t49.5 -138.5q0 -46 -18.5 -90.5t-45 -78t-52.5 -65.5t-44.5 -65.5t-18.5 -65.5q0 -36 21.5 -56t62.5 -20q61 0 120.5 44t97.5 103.5t54 118.5q62 223 86 279q36 82 83 82q27 0 27 -24q0 -33 -26 -98t-59.5 -137t-69.5 -195.5
t-52 -256.5q138 39 216 204q18 -3 18 -24q0 -66 -69 -140t-175 -96zM472 822q68 7 133.5 44.5t105.5 90.5q20 -11 20 -35q0 -51 -66 -95.5t-125 -44.5q-29 0 -47.5 11.5t-20.5 28.5z" />
    <glyph glyph-name="Thorn" unicode="&#xde;" horiz-adv-x="834" 
d="M433 136q-91 -162 -233 -162q-77 0 -123.5 43t-46.5 114q0 56 30.5 92.5t73.5 36.5q14 0 23.5 -6t11.5 -12l2 -6q-33 -5 -52.5 -32t-19.5 -64q0 -47 31 -74t82 -27q58 0 106 45.5t80 123t52.5 167t30.5 190.5q-87 -23 -140.5 -75.5t-53.5 -116.5q-10 -5 -20 -5
q-32 0 -32 43q0 70 70 130t181 83q4 76 4 111q12 3 19 3q46 0 46 -54q0 -16 -2 -50q25 3 47 3q129 0 196.5 -56t67.5 -158q0 -103 -59 -171.5t-154 -95.5t-218 -20zM463 198q150 -6 241 46.5t91 174.5q0 78 -52.5 119t-151.5 41l-41 -2q-19 -220 -87 -379z" />
    <glyph glyph-name="germandbls" unicode="&#xdf;" horiz-adv-x="513" 
d="M472 135q0 -64 -49.5 -109t-129.5 -45q-49 0 -76 21.5t-27 53.5q0 12 5 21t9 11l5 3q2 -6 6.5 -14.5t27 -23t55.5 -14.5q49 0 78 26t29 63q0 30 -15.5 51.5t-37.5 33t-44.5 22.5t-38 29t-15.5 43q0 32 22.5 57.5t54 44t63.5 38.5t54.5 51t22.5 72q0 39 -28 63t-76 24
q-227 0 -246 -532q-8 -198 -55 -287t-150 -89q-51 0 -80.5 26t-29.5 68q0 37 20 60.5t53 23.5q6 0 12.5 -2.5t9.5 -4.5l3 -2q-25 -19 -25 -54q0 -54 49 -54q39 0 64 24t42.5 95.5t21.5 196.5q9 291 84.5 443.5t242.5 152.5q74 0 117 -40t43 -104q0 -52 -22.5 -91.5t-55 -62
t-64.5 -39.5t-54.5 -34.5t-22.5 -37.5q0 -14 15 -26t37 -23t44 -25t37 -41t15 -63z" />
    <glyph glyph-name="agrave" unicode="&#xe0;" 
d="M348 103q-2 -5 -7 -13t-22.5 -28.5t-37 -36.5t-52 -29t-67.5 -13q-64 0 -100.5 42.5t-36.5 109.5q0 150 107 256t260 106q64 0 102.5 -27.5t38.5 -61.5q0 -7 -1.5 -12.5t-3.5 -7.5l-2 -2q-4 6 -13.5 14t-45 22t-79.5 14q-119 0 -203.5 -85.5t-84.5 -213.5q0 -91 77 -91
q129 0 197 258q17 63 67 63q5 0 9.5 -1.5t7.5 -3.5l2 -1q-54 -175 -54 -236q0 -47 9.5 -64t34.5 -17q42 0 89 53.5t74 120.5q10 -1 16 -9t6 -16q0 -59 -61.5 -136t-136.5 -77q-52 0 -70.5 33.5t-18.5 89.5zM270 747q61 -103 214 -144q-5 -14 -23 -24t-40 -10q-58 0 -119 37
t-61 90q0 16 9 31t20 20z" />
    <glyph glyph-name="aacute" unicode="&#xe1;" 
d="M348 103q-2 -5 -7 -13t-22.5 -28.5t-37 -36.5t-52 -29t-67.5 -13q-64 0 -100.5 42.5t-36.5 109.5q0 150 107 256t260 106q64 0 102.5 -27.5t38.5 -61.5q0 -7 -1.5 -12.5t-3.5 -7.5l-2 -2q-4 6 -13.5 14t-45 22t-79.5 14q-119 0 -203.5 -85.5t-84.5 -213.5q0 -91 77 -91
q129 0 197 258q17 63 67 63q5 0 9.5 -1.5t7.5 -3.5l2 -1q-54 -175 -54 -236q0 -47 9.5 -64t34.5 -17q42 0 89 53.5t74 120.5q10 -1 16 -9t6 -16q0 -59 -61.5 -136t-136.5 -77q-52 0 -70.5 33.5t-18.5 89.5zM257 608q68 7 133.5 44.5t105.5 90.5q20 -11 20 -35
q0 -51 -66 -95.5t-125 -44.5q-29 0 -47.5 11.5t-20.5 28.5z" />
    <glyph glyph-name="acircumflex" unicode="&#xe2;" 
d="M348 103q-2 -5 -7 -13t-22.5 -28.5t-37 -36.5t-52 -29t-67.5 -13q-64 0 -100.5 42.5t-36.5 109.5q0 150 107 256t260 106q64 0 102.5 -27.5t38.5 -61.5q0 -7 -1.5 -12.5t-3.5 -7.5l-2 -2q-4 6 -13.5 14t-45 22t-79.5 14q-119 0 -203.5 -85.5t-84.5 -213.5q0 -91 77 -91
q129 0 197 258q17 63 67 63q5 0 9.5 -1.5t7.5 -3.5l2 -1q-54 -175 -54 -236q0 -47 9.5 -64t34.5 -17q42 0 89 53.5t74 120.5q10 -1 16 -9t6 -16q0 -59 -61.5 -136t-136.5 -77q-52 0 -70.5 33.5t-18.5 89.5zM574 605q-5 -14 -20.5 -26t-31.5 -12q-29 0 -65 27.5t-63 77.5
q-37 -44 -79 -70.5t-71 -26.5q-43 0 -56 49q59 14 119 54.5t102 84.5q26 -52 72 -97.5t93 -60.5z" />
    <glyph glyph-name="atilde" unicode="&#xe3;" 
d="M348 103q-2 -5 -7 -13t-22.5 -28.5t-37 -36.5t-52 -29t-67.5 -13q-64 0 -100.5 42.5t-36.5 109.5q0 150 107 256t260 106q64 0 102.5 -27.5t38.5 -61.5q0 -7 -1.5 -12.5t-3.5 -7.5l-2 -2q-4 6 -13.5 14t-45 22t-79.5 14q-119 0 -203.5 -85.5t-84.5 -213.5q0 -91 77 -91
q129 0 197 258q17 63 67 63q5 0 9.5 -1.5t7.5 -3.5l2 -1q-54 -175 -54 -236q0 -47 9.5 -64t34.5 -17q42 0 89 53.5t74 120.5q10 -1 16 -9t6 -16q0 -59 -61.5 -136t-136.5 -77q-52 0 -70.5 33.5t-18.5 89.5zM543 716q21 2 35 -10.5t14 -32.5q0 -46 -33 -78t-86 -32
q-30 0 -57 13.5t-44.5 30.5t-42 30.5t-49.5 13.5q-24 0 -38 -15t-14 -39q0 -6 1.5 -11.5t2.5 -7.5l2 -3q-17 -3 -33.5 9t-16.5 37q0 39 28 67.5t75 28.5q39 0 72 -21.5t61.5 -43.5t57.5 -22q33 0 51 19.5t18 45.5z" />
    <glyph glyph-name="adieresis" unicode="&#xe4;" 
d="M348 103q-2 -5 -7 -13t-22.5 -28.5t-37 -36.5t-52 -29t-67.5 -13q-64 0 -100.5 42.5t-36.5 109.5q0 150 107 256t260 106q64 0 102.5 -27.5t38.5 -61.5q0 -7 -1.5 -12.5t-3.5 -7.5l-2 -2q-4 6 -13.5 14t-45 22t-79.5 14q-119 0 -203.5 -85.5t-84.5 -213.5q0 -91 77 -91
q129 0 197 258q17 63 67 63q5 0 9.5 -1.5t7.5 -3.5l2 -1q-54 -175 -54 -236q0 -47 9.5 -64t34.5 -17q42 0 89 53.5t74 120.5q10 -1 16 -9t6 -16q0 -59 -61.5 -136t-136.5 -77q-52 0 -70.5 33.5t-18.5 89.5zM282 612q-20 0 -32.5 12.5t-12.5 31.5q0 30 17.5 47t42.5 17
q20 0 32.5 -12.5t12.5 -33.5q0 -25 -16.5 -43.5t-43.5 -18.5zM480 612q-20 0 -32.5 12.5t-12.5 31.5q0 30 17.5 47t42.5 17q20 0 32.5 -12.5t12.5 -33.5q0 -25 -16.5 -43.5t-43.5 -18.5z" />
    <glyph glyph-name="aring" unicode="&#xe5;" 
d="M348 103q-2 -5 -7 -13t-22.5 -28.5t-37 -36.5t-52 -29t-67.5 -13q-64 0 -100.5 42.5t-36.5 109.5q0 150 107 256t260 106q64 0 102.5 -27.5t38.5 -61.5q0 -7 -1.5 -12.5t-3.5 -7.5l-2 -2q-4 6 -13.5 14t-45 22t-79.5 14q-119 0 -203.5 -85.5t-84.5 -213.5q0 -91 77 -91
q129 0 197 258q17 63 67 63q5 0 9.5 -1.5t7.5 -3.5l2 -1q-54 -175 -54 -236q0 -47 9.5 -64t34.5 -17q42 0 89 53.5t74 120.5q10 -1 16 -9t6 -16q0 -59 -61.5 -136t-136.5 -77q-52 0 -70.5 33.5t-18.5 89.5zM447 655q0 51 -54 51q-28 0 -48.5 -18t-20.5 -46q0 -23 14.5 -36
t40.5 -13q30 0 49 17.5t19 44.5zM500 661q0 -47 -34.5 -80t-92.5 -33q-45 0 -74 24t-29 63q0 55 38.5 86t91.5 31q46 0 73 -25t27 -66z" />
    <glyph glyph-name="ae" unicode="&#xe6;" horiz-adv-x="715" 
d="M354 99q-7 -12 -19 -27t-35.5 -37.5t-59.5 -37t-76 -14.5q-65 0 -102 42.5t-37 109.5q0 150 107 256t260 106q72 0 113 -36q48 28 103 28q52 0 82.5 -28t30.5 -75q0 -50 -26.5 -93t-72.5 -73t-95.5 -50.5t-106.5 -34.5q7 -93 101 -93q79 0 150 56t111 120q18 -3 18 -24
q0 -60 -92 -135.5t-199 -75.5q-128 0 -155 116zM458 426q-32 10 -70 10q-119 0 -203.5 -85.5t-84.5 -213.5q0 -91 77 -91q122 0 182 209q32 110 99 171zM418 183q101 29 166 79.5t65 109.5t-58 59q-62 0 -116.5 -76t-56.5 -172z" />
    <glyph glyph-name="ccedilla" unicode="&#xe7;" horiz-adv-x="407" 
d="M90 -109q0 13 6 27t13 23t20 24.5t19 23.5q-59 15 -90 60.5t-31 110.5q0 78 32.5 153.5t94.5 126t137 50.5q116 0 116 -96q0 -46 -23 -71.5t-55 -25.5q-7 0 -12.5 2t-6.5 4l-2 2q27 26 27 75q0 54 -54 54q-64 0 -122 -82t-58 -187q0 -59 29.5 -89.5t81.5 -30.5
q79 0 150.5 55t111.5 118q18 -3 18 -24q0 -60 -92 -135.5t-199 -75.5h-6q-8 -12 -36 -44q46 2 74.5 -14t28.5 -49q0 -43 -43 -72.5t-99 -29.5q-36 0 -52 13.5t-16 31.5q0 8 2.5 14.5t5.5 8.5l2 3q20 -21 65 -21q31 0 49.5 12.5t18.5 33.5q0 29 -57 29q-12 0 -24 -2t-18 -4z
" />
    <glyph glyph-name="egrave" unicode="&#xe8;" horiz-adv-x="393" 
d="M96 183q101 29 166 79.5t65 109.5t-58 59q-62 0 -116.5 -76t-56.5 -172zM460 218q18 -3 18 -24q0 -60 -92 -135.5t-199 -75.5q-83 0 -122.5 49t-39.5 130q0 122 75.5 224.5t185.5 102.5q52 0 82.5 -28t30.5 -75q0 -50 -26.5 -93t-72.5 -73t-95.5 -50.5t-106.5 -34.5
q7 -93 101 -93q79 0 150 56t111 120zM187 747q61 -103 214 -144q-5 -14 -23 -24t-40 -10q-58 0 -119 37t-61 90q0 16 9 31t20 20z" />
    <glyph glyph-name="eacute" unicode="&#xe9;" horiz-adv-x="393" 
d="M96 183q101 29 166 79.5t65 109.5t-58 59q-62 0 -116.5 -76t-56.5 -172zM460 218q18 -3 18 -24q0 -60 -92 -135.5t-199 -75.5q-83 0 -122.5 49t-39.5 130q0 122 75.5 224.5t185.5 102.5q52 0 82.5 -28t30.5 -75q0 -50 -26.5 -93t-72.5 -73t-95.5 -50.5t-106.5 -34.5
q7 -93 101 -93q79 0 150 56t111 120zM176 608q68 7 133.5 44.5t105.5 90.5q20 -11 20 -35q0 -51 -66 -95.5t-125 -44.5q-29 0 -47.5 11.5t-20.5 28.5z" />
    <glyph glyph-name="ecircumflex" unicode="&#xea;" horiz-adv-x="393" 
d="M96 183q101 29 166 79.5t65 109.5t-58 59q-62 0 -116.5 -76t-56.5 -172zM460 218q18 -3 18 -24q0 -60 -92 -135.5t-199 -75.5q-83 0 -122.5 49t-39.5 130q0 122 75.5 224.5t185.5 102.5q52 0 82.5 -28t30.5 -75q0 -50 -26.5 -93t-72.5 -73t-95.5 -50.5t-106.5 -34.5
q7 -93 101 -93q79 0 150 56t111 120zM483 605q-5 -14 -20.5 -26t-31.5 -12q-29 0 -65 27.5t-63 77.5q-37 -44 -79 -70.5t-71 -26.5q-43 0 -56 49q59 14 119 54.5t102 84.5q26 -52 72 -97.5t93 -60.5z" />
    <glyph glyph-name="edieresis" unicode="&#xeb;" horiz-adv-x="393" 
d="M96 183q101 29 166 79.5t65 109.5t-58 59q-62 0 -116.5 -76t-56.5 -172zM460 218q18 -3 18 -24q0 -60 -92 -135.5t-199 -75.5q-83 0 -122.5 49t-39.5 130q0 122 75.5 224.5t185.5 102.5q52 0 82.5 -28t30.5 -75q0 -50 -26.5 -93t-72.5 -73t-95.5 -50.5t-106.5 -34.5
q7 -93 101 -93q79 0 150 56t111 120zM192 612q-20 0 -32.5 12.5t-12.5 31.5q0 30 17.5 47t42.5 17q20 0 32.5 -12.5t12.5 -33.5q0 -25 -16.5 -43.5t-43.5 -18.5zM390 612q-20 0 -32.5 12.5t-12.5 31.5q0 30 17.5 47t42.5 17q20 0 32.5 -12.5t12.5 -33.5q0 -25 -16.5 -43.5
t-43.5 -18.5z" />
    <glyph glyph-name="igrave" unicode="&#xec;" horiz-adv-x="264" 
d="M327 218q10 -1 16 -9t6 -16q0 -59 -65 -136t-143 -77q-53 0 -82.5 28.5t-29.5 82.5q0 44 25 106.5t50.5 136.5t27.5 145q15 3 25 3q47 0 47 -57q0 -56 -50 -172t-50 -158q0 -26 11.5 -38t36.5 -12q46 0 97.5 53.5t77.5 119.5zM75 747q61 -103 214 -144q-5 -14 -23 -24
t-40 -10q-58 0 -119 37t-61 90q0 16 9 31t20 20z" />
    <glyph glyph-name="iacute" unicode="&#xed;" horiz-adv-x="264" 
d="M327 218q10 -1 16 -9t6 -16q0 -59 -65 -136t-143 -77q-53 0 -82.5 28.5t-29.5 82.5q0 44 25 106.5t50.5 136.5t27.5 145q15 3 25 3q47 0 47 -57q0 -56 -50 -172t-50 -158q0 -26 11.5 -38t36.5 -12q46 0 97.5 53.5t77.5 119.5zM66 608q68 7 133.5 44.5t105.5 90.5
q20 -11 20 -35q0 -51 -66 -95.5t-125 -44.5q-29 0 -47.5 11.5t-20.5 28.5z" />
    <glyph glyph-name="icircumflex" unicode="&#xee;" horiz-adv-x="264" 
d="M327 218q10 -1 16 -9t6 -16q0 -59 -65 -136t-143 -77q-53 0 -82.5 28.5t-29.5 82.5q0 44 25 106.5t50.5 136.5t27.5 145q15 3 25 3q47 0 47 -57q0 -56 -50 -172t-50 -158q0 -26 11.5 -38t36.5 -12q46 0 97.5 53.5t77.5 119.5zM385 605q-5 -14 -20.5 -26t-31.5 -12
q-29 0 -65 27.5t-63 77.5q-37 -44 -79 -70.5t-71 -26.5q-43 0 -56 49q59 14 119 54.5t102 84.5q26 -52 72 -97.5t93 -60.5z" />
    <glyph glyph-name="idieresis" unicode="&#xef;" horiz-adv-x="264" 
d="M327 218q10 -1 16 -9t6 -16q0 -59 -65 -136t-143 -77q-53 0 -82.5 28.5t-29.5 82.5q0 44 25 106.5t50.5 136.5t27.5 145q15 3 25 3q47 0 47 -57q0 -56 -50 -172t-50 -158q0 -26 11.5 -38t36.5 -12q46 0 97.5 53.5t77.5 119.5zM72 612q-20 0 -32.5 12.5t-12.5 31.5
q0 30 17.5 47t42.5 17q20 0 32.5 -12.5t12.5 -33.5q0 -25 -16.5 -43.5t-43.5 -18.5zM270 612q-20 0 -32.5 12.5t-12.5 31.5q0 30 17.5 47t42.5 17q20 0 32.5 -12.5t12.5 -33.5q0 -25 -16.5 -43.5t-43.5 -18.5z" />
    <glyph glyph-name="eth" unicode="&#xf0;" horiz-adv-x="485" 
d="M367 571q-83 -38 -140 -38q-26 0 -40.5 14t-14.5 30q82 8 167 42q-50 66 -132 75q14 34 65 34q76 0 130 -78q54 29 99 65q9 -7 9 -18q0 -42 -82 -93q40 -86 40 -197q0 -192 -88.5 -309.5t-209.5 -117.5q-68 0 -106.5 39t-38.5 114q0 150 108 256.5t261 93.5q-9 50 -27 88
zM400 431q-25 1 -39 1q-114 0 -189.5 -86.5t-75.5 -213.5q0 -45 21.5 -69.5t60.5 -24.5q90 0 156.5 105.5t66.5 256.5z" />
    <glyph glyph-name="ntilde" unicode="&#xf1;" horiz-adv-x="502" 
d="M565 218q10 -1 16 -9t6 -16q0 -59 -61.5 -136t-136.5 -77q-49 0 -73.5 26t-24.5 71q0 48 30.5 108.5t60.5 113.5t30 85q0 39 -36 39q-54 0 -124 -66t-122 -168t-53 -192q-8 -3 -14 -3q-46 0 -46 61q0 56 46 194.5t46 223.5q13 4 23 4q42 0 42 -57q0 -18 -6 -45.5
t-12 -46.5l-7 -18q5 7 13.5 19.5t35.5 44.5t55.5 56t70 44t81.5 20q41 0 62.5 -25.5t21.5 -67.5q0 -35 -20 -80t-44.5 -81t-44.5 -78t-20 -73q0 -47 44 -47q42 0 88 54t73 122zM473 716q21 2 35 -10.5t14 -32.5q0 -46 -33 -78t-86 -32q-30 0 -57 13.5t-44.5 30.5t-42 30.5
t-49.5 13.5q-24 0 -38 -15t-14 -39q0 -6 1.5 -11.5t2.5 -7.5l2 -3q-17 -3 -33.5 9t-16.5 37q0 39 28 67.5t75 28.5q39 0 72 -21.5t61.5 -43.5t57.5 -22q33 0 51 19.5t18 45.5z" />
    <glyph glyph-name="ograve" unicode="&#xf2;" horiz-adv-x="505" 
d="M449 248q-25 -110 -98 -189t-168 -79q-74 0 -116 46.5t-42 134.5q0 137 85.5 237.5t189.5 100.5q29 0 47.5 -13t22.5 -32q38 5 64 -26t26 -91l-2 -31q97 -8 162 45q5 -7 5 -21q0 -34 -51 -60.5t-125 -21.5zM392 266q-26 16 -43 46.5t-17 68.5q0 20 4.5 34.5t9.5 19.5l4 5
q-20 4 -38 4q-84 0 -151 -83t-67 -195q0 -126 99 -126q65 0 123 65.5t76 160.5zM207 747q61 -103 214 -144q-5 -14 -23 -24t-40 -10q-58 0 -119 37t-61 90q0 16 9 31t20 20z" />
    <glyph glyph-name="oacute" unicode="&#xf3;" horiz-adv-x="505" 
d="M449 248q-25 -110 -98 -189t-168 -79q-74 0 -116 46.5t-42 134.5q0 137 85.5 237.5t189.5 100.5q29 0 47.5 -13t22.5 -32q38 5 64 -26t26 -91l-2 -31q97 -8 162 45q5 -7 5 -21q0 -34 -51 -60.5t-125 -21.5zM392 266q-26 16 -43 46.5t-17 68.5q0 20 4.5 34.5t9.5 19.5l4 5
q-20 4 -38 4q-84 0 -151 -83t-67 -195q0 -126 99 -126q65 0 123 65.5t76 160.5zM185 608q68 7 133.5 44.5t105.5 90.5q20 -11 20 -35q0 -51 -66 -95.5t-125 -44.5q-29 0 -47.5 11.5t-20.5 28.5z" />
    <glyph glyph-name="ocircumflex" unicode="&#xf4;" horiz-adv-x="505" 
d="M449 248q-25 -110 -98 -189t-168 -79q-74 0 -116 46.5t-42 134.5q0 137 85.5 237.5t189.5 100.5q29 0 47.5 -13t22.5 -32q38 5 64 -26t26 -91l-2 -31q97 -8 162 45q5 -7 5 -21q0 -34 -51 -60.5t-125 -21.5zM392 266q-26 16 -43 46.5t-17 68.5q0 20 4.5 34.5t9.5 19.5l4 5
q-20 4 -38 4q-84 0 -151 -83t-67 -195q0 -126 99 -126q65 0 123 65.5t76 160.5zM513 605q-5 -14 -20.5 -26t-31.5 -12q-29 0 -65 27.5t-63 77.5q-37 -44 -79 -70.5t-71 -26.5q-43 0 -56 49q59 14 119 54.5t102 84.5q26 -52 72 -97.5t93 -60.5z" />
    <glyph glyph-name="otilde" unicode="&#xf5;" horiz-adv-x="505" 
d="M449 248q-25 -110 -98 -189t-168 -79q-74 0 -116 46.5t-42 134.5q0 137 85.5 237.5t189.5 100.5q29 0 47.5 -13t22.5 -32q38 5 64 -26t26 -91l-2 -31q97 -8 162 45q5 -7 5 -21q0 -34 -51 -60.5t-125 -21.5zM392 266q-26 16 -43 46.5t-17 68.5q0 20 4.5 34.5t9.5 19.5l4 5
q-20 4 -38 4q-84 0 -151 -83t-67 -195q0 -126 99 -126q65 0 123 65.5t76 160.5zM464 716q21 2 35 -10.5t14 -32.5q0 -46 -33 -78t-86 -32q-30 0 -57 13.5t-44.5 30.5t-42 30.5t-49.5 13.5q-24 0 -38 -15t-14 -39q0 -6 1.5 -11.5t3.5 -7.5l1 -3q-17 -3 -33.5 9t-16.5 37
q0 39 28 67.5t75 28.5q39 0 72 -21.5t61.5 -43.5t57.5 -22q33 0 51 19.5t18 45.5z" />
    <glyph glyph-name="odieresis" unicode="&#xf6;" horiz-adv-x="505" 
d="M449 248q-25 -110 -98 -189t-168 -79q-74 0 -116 46.5t-42 134.5q0 137 85.5 237.5t189.5 100.5q29 0 47.5 -13t22.5 -32q38 5 64 -26t26 -91l-2 -31q97 -8 162 45q5 -7 5 -21q0 -34 -51 -60.5t-125 -21.5zM392 266q-26 16 -43 46.5t-17 68.5q0 20 4.5 34.5t9.5 19.5l4 5
q-20 4 -38 4q-84 0 -151 -83t-67 -195q0 -126 99 -126q65 0 123 65.5t76 160.5zM208 612q-20 0 -32.5 12.5t-12.5 31.5q0 30 17.5 47t42.5 17q20 0 32.5 -12.5t12.5 -33.5q0 -25 -16.5 -43.5t-43.5 -18.5zM406 612q-20 0 -32.5 12.5t-12.5 31.5q0 30 17.5 47t42.5 17
q20 0 32.5 -12.5t12.5 -33.5q0 -25 -16.5 -43.5t-43.5 -18.5z" />
    <glyph glyph-name="divide" unicode="&#xf7;" 
d="M256 24q-20 0 -32.5 12.5t-12.5 31.5q0 30 17.5 47t42.5 17q20 0 32.5 -12.5t12.5 -33.5q0 -25 -16.5 -43.5t-43.5 -18.5zM310 406q-20 0 -32.5 12.5t-12.5 31.5q0 30 17.5 47t42.5 17q20 0 32.5 -12.5t12.5 -33.5q0 -25 -16.5 -43.5t-43.5 -18.5zM507 347q7 -7 7 -16
q0 -36 -52.5 -62t-121 -36.5t-139.5 -10.5q-62 0 -96 20t-34 51q0 8 1.5 14.5t3.5 9.5l1 3q42 -19 106 -19q92 0 173 11.5t116 23.5z" />
    <glyph glyph-name="oslash" unicode="&#xf8;" horiz-adv-x="487" 
d="M126 -11l-63 -112q-8 1 -14 11t-6 24q0 25 36 102q-54 46 -54 147q0 137 85.5 237.5t189.5 100.5q42 0 62 -27q28 40 53.5 63.5t52.5 23.5q8 0 14 -2.5t8 -4.5l2 -3q-40 -44 -94 -118q28 -6 44 -34t16 -72q0 -82 -32.5 -160t-97 -131.5t-145.5 -53.5q-31 0 -57 9z
M366 385q-88 -128 -208 -340q12 -5 35 -5q77 0 139 86.5t62 188.5q0 50 -28 70zM113 80q104 196 226 362q-71 9 -129 -34t-87 -109t-29 -134q0 -54 19 -85z" />
    <glyph glyph-name="ugrave" unicode="&#xf9;" 
d="M348 133q-4 -6 -11 -16t-29 -36t-45 -45.5t-56.5 -35.5t-65.5 -16q-53 0 -82.5 28.5t-29.5 82.5q0 44 25 105.5t50.5 134.5t27.5 144q15 3 25 3q47 0 47 -57q0 -56 -51 -170t-51 -156q0 -26 11.5 -38t36.5 -12q55 0 119 68.5t109.5 169.5t52.5 191q9 1 14 1q52 0 52 -59
q0 -54 -44 -160t-44 -162q0 -29 9 -41.5t32 -12.5q42 0 88 53t73 121q11 -1 17.5 -9.5t6.5 -17.5q0 -59 -61.5 -135t-136.5 -76q-56 0 -77.5 43t-11.5 110zM216 747q61 -103 214 -144q-5 -14 -23 -24t-40 -10q-58 0 -119 37t-61 90q0 16 9 31t20 20z" />
    <glyph glyph-name="uacute" unicode="&#xfa;" 
d="M348 133q-4 -6 -11 -16t-29 -36t-45 -45.5t-56.5 -35.5t-65.5 -16q-53 0 -82.5 28.5t-29.5 82.5q0 44 25 105.5t50.5 134.5t27.5 144q15 3 25 3q47 0 47 -57q0 -56 -51 -170t-51 -156q0 -26 11.5 -38t36.5 -12q55 0 119 68.5t109.5 169.5t52.5 191q9 1 14 1q52 0 52 -59
q0 -54 -44 -160t-44 -162q0 -29 9 -41.5t32 -12.5q42 0 88 53t73 121q11 -1 17.5 -9.5t6.5 -17.5q0 -59 -61.5 -135t-136.5 -76q-56 0 -77.5 43t-11.5 110zM230 608q68 7 133.5 44.5t105.5 90.5q20 -11 20 -35q0 -51 -66 -95.5t-125 -44.5q-29 0 -47.5 11.5t-20.5 28.5z" />
    <glyph glyph-name="ucircumflex" unicode="&#xfb;" 
d="M348 133q-4 -6 -11 -16t-29 -36t-45 -45.5t-56.5 -35.5t-65.5 -16q-53 0 -82.5 28.5t-29.5 82.5q0 44 25 105.5t50.5 134.5t27.5 144q15 3 25 3q47 0 47 -57q0 -56 -51 -170t-51 -156q0 -26 11.5 -38t36.5 -12q55 0 119 68.5t109.5 169.5t52.5 191q9 1 14 1q52 0 52 -59
q0 -54 -44 -160t-44 -162q0 -29 9 -41.5t32 -12.5q42 0 88 53t73 121q11 -1 17.5 -9.5t6.5 -17.5q0 -59 -61.5 -135t-136.5 -76q-56 0 -77.5 43t-11.5 110zM540 605q-5 -14 -20.5 -26t-31.5 -12q-29 0 -65 27.5t-63 77.5q-37 -44 -79 -70.5t-71 -26.5q-43 0 -56 49
q59 14 119 54.5t102 84.5q26 -52 72 -97.5t93 -60.5z" />
    <glyph glyph-name="udieresis" unicode="&#xfc;" 
d="M348 133q-4 -6 -11 -16t-29 -36t-45 -45.5t-56.5 -35.5t-65.5 -16q-53 0 -82.5 28.5t-29.5 82.5q0 44 25 105.5t50.5 134.5t27.5 144q15 3 25 3q47 0 47 -57q0 -56 -51 -170t-51 -156q0 -26 11.5 -38t36.5 -12q55 0 119 68.5t109.5 169.5t52.5 191q9 1 14 1q52 0 52 -59
q0 -54 -44 -160t-44 -162q0 -29 9 -41.5t32 -12.5q42 0 88 53t73 121q11 -1 17.5 -9.5t6.5 -17.5q0 -59 -61.5 -135t-136.5 -76q-56 0 -77.5 43t-11.5 110zM240 612q-20 0 -32.5 12.5t-12.5 31.5q0 30 17.5 47t42.5 17q20 0 32.5 -12.5t12.5 -33.5q0 -25 -16.5 -43.5
t-43.5 -18.5zM438 612q-20 0 -32.5 12.5t-12.5 31.5q0 30 17.5 47t42.5 17q20 0 32.5 -12.5t12.5 -33.5q0 -25 -16.5 -43.5t-43.5 -18.5z" />
    <glyph glyph-name="yacute" unicode="&#xfd;" horiz-adv-x="536" 
d="M311 -49q-262 -10 -262 -90q0 -51 75 -51q63 0 115 38.5t72 102.5zM377 -42q-26 -93 -96.5 -147.5t-168.5 -54.5q-60 0 -96 27.5t-36 68.5q0 40 23.5 68.5t69.5 46.5t107 27t144 12q21 121 43 186q-4 -7 -11.5 -17.5t-31 -38t-47.5 -48.5t-60 -38.5t-70 -17.5
q-52 0 -81 25.5t-29 74.5q0 40 23 95.5t47 121.5t26 130q15 3 25 3q46 0 46 -52q0 -51 -47.5 -153.5t-47.5 -140.5q0 -24 11 -34.5t36 -10.5q53 0 114 62t104.5 153t49.5 172q9 1 14 1q51 0 51 -53q0 -40 -19 -96.5t-45 -140t-38 -175.5q138 39 216 204q18 -3 18 -24
q0 -66 -69 -140t-175 -96zM224 608q68 7 133.5 44.5t105.5 90.5q20 -11 20 -35q0 -51 -66 -95.5t-125 -44.5q-29 0 -47.5 11.5t-20.5 28.5z" />
    <glyph glyph-name="thorn" unicode="&#xfe;" horiz-adv-x="542" 
d="M609 218q18 -3 18 -26q0 -78 -117 -140.5t-282 -62.5q-52 0 -77 24.5t-25 54.5q0 9 4 15.5t8 8.5l4 2q2 -5 6.5 -13.5t26.5 -22t54 -13.5q69 0 135 74t66 184q0 43 -20.5 62t-62.5 19q-74 0 -143 -74.5t-92 -164.5q-12 -47 -26 -105t-22 -91t-18.5 -71.5t-19 -58
t-20 -38.5t-24.5 -26t-30 -7q-28 0 -28 25q0 42 28 119t68.5 189t60.5 213q17 81 41 152.5t58 137t82.5 103.5t103.5 38q43 0 69 -27t26 -68q0 -89 -100 -185q62 0 99.5 -35t37.5 -97q0 -77 -30.5 -142t-80.5 -110q80 24 138 66t84 91zM140 308q42 54 94.5 103t84.5 75
t55 61.5t23 76.5t-44 41q-63 0 -118 -99.5t-95 -257.5z" />
    <glyph glyph-name="ydieresis" unicode="&#xff;" horiz-adv-x="536" 
d="M311 -49q-262 -10 -262 -90q0 -51 75 -51q63 0 115 38.5t72 102.5zM377 -42q-26 -93 -96.5 -147.5t-168.5 -54.5q-60 0 -96 27.5t-36 68.5q0 40 23.5 68.5t69.5 46.5t107 27t144 12q21 121 43 186q-4 -7 -11.5 -17.5t-31 -38t-47.5 -48.5t-60 -38.5t-70 -17.5
q-52 0 -81 25.5t-29 74.5q0 40 23 95.5t47 121.5t26 130q15 3 25 3q46 0 46 -52q0 -51 -47.5 -153.5t-47.5 -140.5q0 -24 11 -34.5t36 -10.5q53 0 114 62t104.5 153t49.5 172q9 1 14 1q51 0 51 -53q0 -40 -19 -96.5t-45 -140t-38 -175.5q138 39 216 204q18 -3 18 -24
q0 -66 -69 -140t-175 -96zM232 612q-20 0 -32.5 12.5t-12.5 31.5q0 30 17.5 47t42.5 17q20 0 32.5 -12.5t12.5 -33.5q0 -25 -16.5 -43.5t-43.5 -18.5zM430 612q-20 0 -32.5 12.5t-12.5 31.5q0 30 17.5 47t42.5 17q20 0 32.5 -12.5t12.5 -33.5q0 -25 -16.5 -43.5t-43.5 -18.5
z" />
    <glyph glyph-name="dotlessi" unicode="&#x131;" horiz-adv-x="264" 
d="M327 218q10 -1 16 -9t6 -16q0 -59 -65 -136t-143 -77q-53 0 -82.5 28.5t-29.5 82.5q0 44 25 106.5t50.5 136.5t27.5 145q15 3 25 3q47 0 47 -57q0 -56 -50 -172t-50 -158q0 -26 11.5 -38t36.5 -12q46 0 97.5 53.5t77.5 119.5z" />
    <glyph glyph-name="Lslash" unicode="&#x141;" horiz-adv-x="800" 
d="M300 83q-44 11 -83 11q-57 0 -57 -25q0 -20 33 -20q26 0 53 8.5t40 16.5zM621 504q-40 -107 -70 -173q78 31 139 78q9 -7 9 -18q0 -30 -54 -66t-127 -61q-49 -92 -103 -151q46 -15 98 -36t82 -30t60 -9q72 0 123.5 53.5t82.5 126.5q11 -1 17.5 -8.5t6.5 -15.5
q0 -40 -29 -89.5t-86.5 -89t-124.5 -39.5q-45 0 -91.5 13t-109.5 39.5t-83 33.5q-91 -62 -180 -62q-40 0 -63 17t-23 46q0 38 37 60.5t93 22.5q65 0 125 -15q45 43 85 111q-24 -9 -58 -0.5t-36 40.5q56 3 128 22q28 57 76 182q-40 -7 -79 -7q-103 0 -161.5 40.5t-58.5 108.5
q0 42 21.5 62t48.5 14q-14 -20 -14 -50q0 -56 43.5 -86t126.5 -30q24 0 47 2t34 4l11 3q32 96 68.5 142.5t85.5 46.5q24 0 39 -15t15 -40q0 -55 -39.5 -101.5t-111.5 -75.5zM640 568q24 12 49 41t25 52q0 14 -11 14q-31 0 -63 -107z" />
    <glyph glyph-name="lslash" unicode="&#x142;" horiz-adv-x="326" 
d="M393 218q18 -3 18 -27q0 -61 -81 -136t-184 -75q-52 0 -73.5 33t-21.5 81q0 81 36 220q-34 -20 -70 -48q-9 7 -9 18q0 46 97 102q44 168 88 253.5t99 85.5q28 0 28 -26q0 -15 -5 -34.5t-18 -50.5t-22.5 -51t-31 -65.5t-30.5 -64.5q48 15 78 15q26 0 40.5 -14t14.5 -30
q-80 -7 -166 -42q-68 -157 -68 -250q0 -69 48 -69q123 0 233 175z" />
    <glyph glyph-name="OE" unicode="&#x152;" horiz-adv-x="989" 
d="M492 50q-92 -68 -203 -68q-117 0 -178 69t-61 185q0 86 32 173.5t87.5 158t137 114.5t172.5 44q65 0 101 -24t40 -57q80 82 239 82q101 0 153 -38t52 -96q0 -38 -20 -55t-52 -12q8 15 8 37q0 52 -40 80.5t-113 28.5q-98 0 -158 -48.5t-60 -126.5q0 -137 207 -137
q23 0 41 2.5t25 5.5l7 2q4 -5 4 -16q0 -22 -18.5 -35.5t-51.5 -13.5q-18 0 -58.5 4.5t-63.5 4.5q-92 0 -143.5 -41t-51.5 -110q0 -60 50 -97.5t143 -37.5q62 0 120 20t100 51.5t70.5 61t46.5 57.5q18 -3 18 -24q0 -28 -28 -66t-74 -75t-117 -62.5t-147 -25.5q-151 0 -216 85
zM644 353q-39 25 -62 61.5t-23 77.5q0 74 41 130q-41 44 -121 44q-101 0 -185 -65t-128.5 -162t-44.5 -200q0 -96 47.5 -145t131.5 -49q89 0 164 58q-8 24 -8 57q0 75 51.5 128.5t136.5 64.5z" />
    <glyph glyph-name="oe" unicode="&#x153;" horiz-adv-x="747" 
d="M389 103q-80 -123 -206 -123q-74 0 -116 46.5t-42 134.5q0 137 85.5 237.5t189.5 100.5q129 0 151 -124q78 114 189 114q52 0 82.5 -28t30.5 -75q0 -50 -26.5 -93t-72.5 -73t-95.5 -50.5t-106.5 -34.5q7 -93 101 -93q79 0 150 56t111 120q18 -3 18 -24q0 -60 -92 -135.5
t-199 -75.5q-125 0 -152 120zM193 40q80 0 140.5 86t60.5 193q0 123 -98 123q-80 0 -141 -84.5t-61 -192.5q0 -125 99 -125zM450 183q101 29 166 79.5t65 109.5t-58 59q-62 0 -116.5 -76t-56.5 -172z" />
    <glyph glyph-name="Scaron" unicode="&#x160;" horiz-adv-x="623" 
d="M590 522q9 23 9 52q0 51 -37 79.5t-100 28.5q-68 0 -109 -33t-41 -85q0 -36 21 -63.5t52 -43t68 -35.5t68 -40.5t52 -59t21 -90.5q0 -113 -94.5 -189t-229.5 -76q-113 0 -176.5 52t-63.5 141q0 88 60.5 146t151.5 58q37 0 58 -15.5t21 -39.5l-4 -19q-22 18 -64 18
q-70 0 -111.5 -38.5t-41.5 -105.5q0 -63 46.5 -99.5t130.5 -36.5q104 0 174.5 57t70.5 140q0 53 -29.5 88.5t-71 56l-83 41t-71 57.5t-29.5 91q0 79 65 130t165 51q87 0 141 -40t54 -102q0 -40 -21 -60.5t-52 -15.5zM715 926q-59 -14 -119 -54.5t-102 -84.5q-26 52 -72 97.5
t-93 60.5q5 14 20.5 26t31.5 12q29 0 65 -27.5t63 -77.5q37 44 79 70.5t71 26.5q43 0 56 -49z" />
    <glyph glyph-name="scaron" unicode="&#x161;" horiz-adv-x="436" 
d="M375 327q4 19 4 31q0 41 -26 64t-74 23t-76 -24.5t-28 -61.5q0 -30 22.5 -49t54.5 -31t64 -25t54.5 -39.5t22.5 -66.5q0 -77 -60 -124.5t-152 -47.5q-76 0 -116 35t-40 89q0 27 11.5 43.5t29.5 16.5l13 -3q-9 -57 22.5 -90t92.5 -33q56 0 91 27t35 70q0 34 -22 54.5
t-53.5 31t-63.5 23t-54 40.5t-22 73q0 64 51.5 105.5t130.5 41.5q71 0 112.5 -31t41.5 -79q0 -34 -19.5 -50.5t-46.5 -12.5zM526 700q-59 -14 -119 -54.5t-102 -84.5q-26 52 -72 97.5t-93 60.5q5 14 20.5 26t31.5 12q29 0 65 -27.5t63 -77.5q37 44 79 70.5t71 26.5
q43 0 56 -49z" />
    <glyph glyph-name="Ydieresis" unicode="&#x178;" horiz-adv-x="767" 
d="M541 -49q-261 -10 -261 -90q0 -51 75 -51q63 0 114.5 38.5t71.5 102.5zM608 -42q-26 -93 -96.5 -147.5t-168.5 -54.5q-60 0 -96 27.5t-36 68.5q0 40 23.5 68.5t69.5 46.5t107 27t144 12q19 120 33 175q-4 -6 -11.5 -16t-32.5 -35t-52.5 -44t-69 -35t-84.5 -16
q-59 0 -98.5 34t-39.5 95q0 41 19.5 79t47 69t55 63t47 72.5t19.5 85.5q0 64 -35.5 103t-104.5 39q-63 0 -107.5 -41.5t-44.5 -117.5q0 -49 27.5 -77.5t70.5 -28.5q15 0 27.5 3t17.5 7l5 3q5 -5 5 -15q0 -19 -20.5 -33.5t-51.5 -14.5q-70 0 -108.5 43t-38.5 107
q0 98 63 160.5t160 62.5q100 0 149.5 -55.5t49.5 -138.5q0 -46 -18.5 -90.5t-45 -78t-52.5 -65.5t-44.5 -65.5t-18.5 -65.5q0 -36 21.5 -56t62.5 -20q61 0 120.5 44t97.5 103.5t54 118.5q62 223 86 279q36 82 83 82q27 0 27 -24q0 -33 -26 -98t-59.5 -137t-69.5 -195.5
t-52 -256.5q138 39 216 204q18 -3 18 -24q0 -66 -69 -140t-175 -96zM431 815q-20 0 -32.5 12.5t-12.5 31.5q0 30 17.5 47t42.5 17q20 0 32.5 -12.5t12.5 -33.5q0 -25 -16.5 -43.5t-43.5 -18.5zM629 815q-20 0 -32.5 12.5t-12.5 31.5q0 30 17.5 47t42.5 17q20 0 32.5 -12.5
t12.5 -33.5q0 -25 -16.5 -43.5t-43.5 -18.5z" />
    <glyph glyph-name="Zcaron" unicode="&#x17d;" horiz-adv-x="655" 
d="M263 80q-84 -60 -160 -60q-34 0 -52 17t-18 43q0 85 130 85q37 0 90 -16q124 91 238 219t151 228q-73 6 -167.5 42.5t-163.5 36.5q-68 0 -111.5 -45t-43.5 -114q0 -49 27.5 -77.5t70.5 -28.5q15 0 27.5 3t17.5 7l5 3q5 -5 5 -15q0 -19 -20.5 -33.5t-51.5 -14.5
q-70 0 -108.5 43t-38.5 107q0 97 64.5 160t162.5 63q77 0 178.5 -39t152.5 -39q19 0 34 9t20 18l5 9q16 -10 16 -37q0 -54 -39.5 -127.5t-103 -147.5t-130.5 -139t-134 -119q21 -11 59.5 -37.5t69.5 -40.5t66 -14q125 0 205 189q11 -1 17.5 -8.5t6.5 -15.5q0 -29 -17 -67.5
t-46.5 -74.5t-77.5 -61t-101 -25q-43 0 -84 21t-82.5 51.5t-68.5 41.5zM209 107q-38 10 -71 10q-45 0 -45 -27q0 -19 26 -19q23 0 45.5 9t33.5 18zM687 923q-59 -14 -119 -54.5t-102 -84.5q-26 52 -72 97.5t-93 60.5q5 14 20.5 26t31.5 12q29 0 65 -27.5t63 -77.5
q37 44 79 70.5t71 26.5q43 0 56 -49z" />
    <glyph glyph-name="zcaron" unicode="&#x17e;" horiz-adv-x="506" 
d="M573 218q18 -3 18 -27q0 -29 -20 -66.5t-53 -73.5t-83.5 -60.5t-105.5 -24.5q-39 0 -79.5 19t-68.5 41t-65.5 41t-71.5 19q-8 0 -16 -2t-12 -4l-4 -3q-6 7 -6 18q0 35 49 52q103 34 200.5 98t149.5 133q-54 4 -111 22t-99 18q-29 0 -48.5 -15t-24.5 -31l-5 -15
q-13 12 -13 32q0 38 30.5 66.5t73.5 28.5q37 0 104.5 -22.5t105.5 -22.5q20 0 34 11.5t18 22.5l4 11q21 -8 21 -34q0 -47 -34.5 -97t-92 -94t-111 -77t-110.5 -62q19 -10 60.5 -37t73.5 -40.5t66 -13.5q39 0 74 17t61 45.5t45.5 56t37.5 56.5q5 10 8 14zM528 700
q-59 -14 -119 -54.5t-102 -84.5q-26 52 -72 97.5t-93 60.5q5 14 20.5 26t31.5 12q29 0 65 -27.5t63 -77.5q37 44 79 70.5t71 26.5q43 0 56 -49z" />
    <glyph glyph-name="florin" unicode="&#x192;" horiz-adv-x="333" 
d="M133 219q-2 -112 -13 -193t-33.5 -146t-62 -98t-96.5 -33q-50 0 -79 25.5t-29 65.5q0 36 21 59.5t52 23.5q7 0 13 -2.5t9 -4.5l3 -2q-27 -18 -27 -53q0 -51 49 -51q40 -1 67 40.5t44.5 154t17.5 298.5t54.5 300t165.5 114q47 0 77 -36.5t30 -90.5q0 -37 -13.5 -74
t-31.5 -64.5t-54 -64t-61.5 -58.5t-74.5 -62q170 -28 290 83q5 -7 5 -21q0 -38 -69.5 -80t-169.5 -42q-40 0 -84 12zM133 309q7 6 36 32t45 41t42 43.5t40 51.5t25.5 53t11.5 58q0 69 -54 69q-60 0 -103 -87.5t-43 -260.5z" />
    <glyph glyph-name="circumflex" unicode="&#x2c6;" horiz-adv-x="500" 
d="M528 605q-5 -14 -20.5 -26t-31.5 -12q-29 0 -65 27.5t-63 77.5q-37 -44 -79 -70.5t-71 -26.5q-43 0 -56 49q59 14 119 54.5t102 84.5q26 -52 72 -97.5t93 -60.5z" />
    <glyph glyph-name="caron" unicode="&#x2c7;" horiz-adv-x="500" 
d="M509 700q-59 -14 -119 -54.5t-102 -84.5q-26 52 -72 97.5t-93 60.5q5 14 20.5 26t31.5 12q29 0 65 -27.5t63 -77.5q37 44 79 70.5t71 26.5q43 0 56 -49z" />
    <glyph glyph-name="breve" unicode="&#x2d8;" horiz-adv-x="500" 
d="M456 728q14 0 23.5 -10t9.5 -24q0 -52 -59 -94t-157 -42q-72 0 -109 29.5t-37 70.5q0 31 13.5 45.5t32.5 12.5q-3 -6 -3 -20q0 -70 118 -70q69 0 118.5 31.5t49.5 70.5z" />
    <glyph glyph-name="dotaccent" unicode="&#x2d9;" horiz-adv-x="500" 
d="M308 612q-20 0 -32.5 12.5t-12.5 31.5q0 30 17.5 47t42.5 17q20 0 32.5 -12.5t12.5 -33.5q0 -25 -16.5 -43.5t-43.5 -18.5z" />
    <glyph glyph-name="ring" unicode="&#x2da;" horiz-adv-x="500" 
d="M378 655q0 51 -54 51q-28 0 -48.5 -18t-20.5 -46q0 -23 14.5 -36t40.5 -13q30 0 49 17.5t19 44.5zM431 661q0 -47 -34.5 -80t-92.5 -33q-45 0 -74 24t-29 63q0 55 38.5 86t91.5 31q46 0 73 -25t27 -66z" />
    <glyph glyph-name="ogonek" unicode="&#x2db;" horiz-adv-x="500" 
d="M227 -32q-39 -8 -69 -31t-30 -59q0 -40 47 -40q24 0 45.5 8t31.5 16l9 8q7 -7 7 -19q0 -26 -33.5 -47t-79.5 -21q-43 0 -69 22.5t-26 60.5q0 47 44.5 85.5t99.5 38.5q9 0 16 -7t7 -15z" />
    <glyph glyph-name="tilde" unicode="&#x2dc;" horiz-adv-x="500" 
d="M466 716q21 2 35 -10.5t14 -32.5q0 -46 -33 -78t-86 -32q-30 0 -57 13.5t-44.5 30.5t-42 30.5t-49.5 13.5q-24 0 -38 -15t-14 -39q0 -6 1.5 -11.5t3.5 -7.5l1 -3q-17 -3 -33.5 9t-16.5 37q0 39 28 67.5t75 28.5q39 0 72 -21.5t61.5 -43.5t57.5 -22q33 0 51 19.5t18 45.5z
" />
    <glyph glyph-name="hungarumlaut" unicode="&#x2dd;" horiz-adv-x="500" 
d="M395 566q87 87 113 187q47 0 47 -49q0 -47 -44.5 -99.5t-91.5 -52.5q-7 0 -13 3.5t-8 6.5zM208 584q99 74 139 169q40 0 40 -43q0 -51 -50.5 -97t-104.5 -46q-8 0 -14 4.5t-8 8.5z" />
    <glyph glyph-name="Delta" unicode="&#x394;" 
d="M381 571l-13 43q6 5 14 5q36 0 53 -42q31 -76 58 -240t27 -271q0 -30 -5.5 -51t-10.5 -27l-6 -6q-126 37 -328 37q-28 0 -56 -3.5t-42 -6.5l-14 -3q-4 9 -4 23q0 15 19 36q70 81 162.5 234.5t145.5 271.5zM400 490q-38 -96 -99.5 -209.5t-115.5 -190.5q59 -1 141 -10.5
t125 -19.5q0 150 -51 430z" />
    <glyph glyph-name="Delta" unicode="&#x2206;" 
d="M381 571l-13 43q6 5 14 5q36 0 53 -42q31 -76 58 -240t27 -271q0 -30 -5.5 -51t-10.5 -27l-6 -6q-126 37 -328 37q-28 0 -56 -3.5t-42 -6.5l-14 -3q-4 9 -4 23q0 15 19 36q70 81 162.5 234.5t145.5 271.5zM400 490q-38 -96 -99.5 -209.5t-115.5 -190.5q59 -1 141 -10.5
t125 -19.5q0 150 -51 430z" />
    <glyph glyph-name="Omega" unicode="&#x3a9;" horiz-adv-x="671" 
d="M344 10q0 33 20.5 65.5t50.5 58.5t66 62t66 73t50.5 95t20.5 126q0 87 -49.5 130.5t-135.5 43.5q-131 0 -224.5 -106t-93.5 -244q0 -51 15.5 -92.5t38 -66.5t45 -45t38 -38t15.5 -35q0 -8 -2 -15t-4 -10l-2 -3q-74 0 -139 -8.5t-92 -17.5l-28 -9q-4 6 -4 16
q0 27 47.5 48.5t131.5 27.5q-55 41 -91.5 106.5t-36.5 137.5q0 104 49.5 199t141.5 156.5t203 61.5q119 0 182 -64t63 -170q0 -92 -31.5 -164.5t-69 -110t-88 -82.5t-70.5 -74q84 0 134.5 -13.5t50.5 -36.5q0 -6 -2 -11t-4 -7l-1 -2q-104 18 -261 18z" />
    <glyph glyph-name="Omega" unicode="&#x2126;" horiz-adv-x="671" 
d="M344 10q0 33 20.5 65.5t50.5 58.5t66 62t66 73t50.5 95t20.5 126q0 87 -49.5 130.5t-135.5 43.5q-131 0 -224.5 -106t-93.5 -244q0 -51 15.5 -92.5t38 -66.5t45 -45t38 -38t15.5 -35q0 -8 -2 -15t-4 -10l-2 -3q-74 0 -139 -8.5t-92 -17.5l-28 -9q-4 6 -4 16
q0 27 47.5 48.5t131.5 27.5q-55 41 -91.5 106.5t-36.5 137.5q0 104 49.5 199t141.5 156.5t203 61.5q119 0 182 -64t63 -170q0 -92 -31.5 -164.5t-69 -110t-88 -82.5t-70.5 -74q84 0 134.5 -13.5t50.5 -36.5q0 -6 -2 -11t-4 -7l-1 -2q-104 18 -261 18z" />
    <glyph glyph-name="pi" unicode="&#x3c0;" horiz-adv-x="751" 
d="M702 218q10 -1 16 -9t6 -16q0 -36 -25.5 -84.5t-75 -88.5t-104.5 -40q-56 0 -84.5 29.5t-28.5 81.5q0 110 77 314q-68 -8 -152 -10q-71 -222 -117 -446q-20 0 -31.5 19.5t-11.5 50.5q0 98 78 377q-140 9 -140 61q0 7 1.5 13.5t3.5 9.5l2 3q87 -16 161 -16
q123 0 243.5 12.5t179.5 25.5l58 13q7 -6 7 -16q0 -52 -196 -85q-82 -215 -82 -318q0 -52 48 -52q46 0 93 51.5t74 119.5z" />
    <glyph glyph-name="endash" unicode="&#x2013;" 
d="M507 347q7 -7 7 -16q0 -36 -52.5 -62t-121 -36.5t-139.5 -10.5q-62 0 -96 20t-34 51q0 8 1.5 14.5t3.5 9.5l1 3q42 -19 106 -19q92 0 173 11.5t116 23.5z" />
    <glyph glyph-name="emdash" unicode="&#x2014;" horiz-adv-x="845" 
d="M797 347q6 -7 6 -16q0 -36 -87 -61t-199.5 -35t-230.5 -10q-107 0 -161 19t-54 51q0 8 1.5 14t3.5 9l1 2q87 -19 194 -19q154 0 285.5 11.5t185.5 23.5z" />
    <glyph glyph-name="quoteleft" unicode="&#x2018;" horiz-adv-x="301" 
d="M280 504q-14 -32 -49 -32q-27 0 -43 18t-16 50q0 80 54.5 135.5t104.5 55.5q12 0 19.5 -6.5t9.5 -12.5l2 -6q-5 -2 -12.5 -6t-27.5 -18t-35 -30t-27.5 -43t-12.5 -56q0 -20 8.5 -32.5t16.5 -14.5z" />
    <glyph glyph-name="quoteright" unicode="&#x2019;" horiz-adv-x="302" 
d="M179 472q-12 0 -19.5 6t-9.5 12l-2 7q5 2 12.5 6t27.5 18t35 30t27.5 43t12.5 56q0 20 -8.5 32t-16.5 14l-8 3q14 32 49 32q27 0 43 -18t16 -50q0 -80 -54.5 -135.5t-104.5 -55.5z" />
    <glyph glyph-name="quotesinglbase" unicode="&#x201a;" horiz-adv-x="302" 
d="M89 -135q-12 0 -19.5 6t-9.5 13l-2 6q5 2 12.5 6t27.5 18t35 30t27.5 43t12.5 56q0 20 -8.5 32t-16.5 15l-8 2q14 32 49 32q27 0 43 -18t16 -50q0 -80 -54.5 -135.5t-104.5 -55.5z" />
    <glyph glyph-name="quotedblleft" unicode="&#x201c;" horiz-adv-x="488" 
d="M466 500q-14 -32 -49 -32q-27 0 -43 18t-16 50q0 80 54.5 135.5t104.5 55.5q12 0 19.5 -6.5t9.5 -12.5l2 -6q-5 -2 -12.5 -6t-27.5 -18t-35 -30t-27.5 -43t-12.5 -56q0 -20 8.5 -32.5t16.5 -14.5zM280 506q-14 -32 -49 -32q-27 0 -43 18t-16 50q0 80 54.5 135.5
t104.5 55.5q12 0 19.5 -6.5t9.5 -12.5l2 -6q-5 -2 -12.5 -6t-27.5 -18t-35 -30t-27.5 -43t-12.5 -56q0 -20 8.5 -32.5t16.5 -14.5z" />
    <glyph glyph-name="quotedblright" unicode="&#x201d;" horiz-adv-x="488" 
d="M180 474q-12 0 -19.5 6t-9.5 12l-2 7q5 2 12.5 6t27.5 18t35 30t27.5 43t12.5 56q0 20 -8 32t-16 14l-9 3q14 32 49 32q27 0 43 -18t16 -50q0 -80 -54.5 -135.5t-104.5 -55.5zM366 468q-12 0 -19.5 6t-9.5 12l-2 7q5 2 12.5 6t27.5 18t35 30t27.5 43t12.5 56q0 20 -8 32
t-16 14l-9 3q14 32 49 32q27 0 43 -18t16 -50q0 -80 -54.5 -135.5t-104.5 -55.5z" />
    <glyph glyph-name="quotedblbase" unicode="&#x201e;" horiz-adv-x="488" 
d="M89 -131q-12 0 -19.5 6.5t-9.5 12.5l-2 6q5 2 12.5 6t27.5 18t35 30t27.5 43t12.5 56q0 20 -8.5 32t-16.5 15l-8 2q14 32 49 32q27 0 43 -18t16 -50q0 -80 -54.5 -135.5t-104.5 -55.5zM275 -137q-12 0 -19.5 6t-9.5 13l-2 6q5 2 12.5 6t27.5 18t35 30t27.5 43t12.5 56
q0 20 -8.5 32t-16.5 15l-8 2q14 32 49 32q27 0 43 -18t16 -50q0 -80 -54.5 -135.5t-104.5 -55.5z" />
    <glyph glyph-name="dagger" unicode="&#x2020;" 
d="M243 287q-27 -3 -56 -1t-53.5 8t-40.5 22t-16 39q0 8 1.5 14.5t3.5 9.5l1 3q49 -18 115 -18q39 0 62 2q33 149 56 194q15 32 46 32q9 0 18.5 -3t14.5 -5l5 -3q-30 -72 -65 -209q51 6 95.5 15.5t63.5 16.5l19 7q7 -7 7 -16q0 -40 -58.5 -66t-146.5 -37q-66 -282 -90 -494
q-17 -1 -29 16t-12 46q0 143 59 427z" />
    <glyph glyph-name="daggerdbl" unicode="&#x2021;" 
d="M200 42q-155 0 -155 69q0 8 1.5 14t3.5 9l1 2q46 -18 110 -18q33 0 51 1q18 105 33 180q-161 0 -161 69q0 8 1.5 14t2.5 8l2 3q52 -18 116 -18q37 0 56 1q33 142 54 184q15 32 46 32q9 0 18.5 -3t14.5 -5l5 -3q-32 -78 -63 -200q53 5 98.5 13.5t64.5 14.5l20 6
q7 -7 7 -16q0 -75 -209 -95q-24 -102 -40 -181q58 5 109 14t73 15l21 7q7 -7 7 -16q0 -42 -64.5 -66t-159.5 -32q-29 -150 -39 -247q-17 -1 -29 16t-12 46q0 68 16 182z" />
    <glyph glyph-name="bullet" unicode="&#x2022;" horiz-adv-x="494" 
d="M405 279q0 -55 -36 -94t-97 -39q-49 0 -80.5 29.5t-31.5 76.5q0 64 39 101t94 37q50 0 81 -30.5t31 -80.5z" />
    <glyph glyph-name="ellipsis" unicode="&#x2026;" horiz-adv-x="909" 
d="M179 -9q-20 0 -32.5 12.5t-12.5 31.5q0 30 17.5 47t42.5 17q20 0 32.5 -12.5t12.5 -33.5q0 -25 -16.5 -43.5t-43.5 -18.5zM482 -9q-20 0 -32.5 12.5t-12.5 31.5q0 30 17.5 47t42.5 17q20 0 32.5 -12.5t12.5 -33.5q0 -25 -16.5 -43.5t-43.5 -18.5zM785 -9
q-20 0 -32.5 12.5t-12.5 31.5q0 30 17.5 47t42.5 17q20 0 32.5 -12.5t12.5 -33.5q0 -25 -16.5 -43.5t-43.5 -18.5z" />
    <glyph glyph-name="perthousand" unicode="&#x2030;" horiz-adv-x="1011" 
d="M215 319q43 0 69.5 31.5t26.5 82.5q0 86 -68 86q-38 0 -68.5 -32.5t-30.5 -87.5q0 -80 71 -80zM208 267q-52 0 -85.5 35t-33.5 87q0 87 48 135t113 48q51 0 83 -35.5t32 -92.5q0 -73 -43.5 -125t-113.5 -52zM36 2q144 85 309.5 247.5t270.5 314.5q10 0 17.5 -8t7.5 -16
q0 -68 -184.5 -269t-292.5 -271q-44 -28 -79 -28q-33 0 -49 30zM540 12q40 0 65 29.5t25 76.5q0 79 -63 79q-36 0 -64.5 -30t-28.5 -80q0 -75 66 -75zM534 -40q-50 0 -82 33.5t-32 82.5q0 83 45.5 128.5t108.5 45.5q49 0 79 -34t30 -87q0 -70 -41.5 -119.5t-107.5 -49.5z
M836 12q40 0 65 29.5t25 76.5q0 79 -63 79q-36 0 -64.5 -30t-28.5 -80q0 -75 66 -75zM830 -40q-50 0 -82 33.5t-32 82.5q0 83 45.5 128.5t108.5 45.5q49 0 79 -34t30 -87q0 -70 -41.5 -119.5t-107.5 -49.5z" />
    <glyph glyph-name="guilsinglleft" unicode="&#x2039;" horiz-adv-x="504" 
d="M328 34q-50 99 -163 215q-12 14 -12 31q74 23 153 70.5t140 108.5q12 -12 12 -28q0 -46 -62.5 -96t-144.5 -83q43 -42 71.5 -90t28.5 -85q0 -30 -23 -43z" />
    <glyph glyph-name="guilsinglright" unicode="&#x203a;" horiz-adv-x="504" 
d="M439 206q-74 -23 -153 -70.5t-140 -108.5q-12 12 -12 28q0 46 62.5 96t144.5 83q-43 42 -71.5 90t-28.5 85q0 30 23 43q50 -99 163 -215q12 -14 12 -31z" />
    <glyph glyph-name="fraction" unicode="&#x2044;" horiz-adv-x="721" 
d="M36 2q144 85 309.5 247.5t270.5 314.5q10 0 17.5 -8t7.5 -16q0 -68 -184.5 -269t-292.5 -271q-44 -28 -79 -28q-33 0 -49 30z" />
    <glyph glyph-name="Euro" unicode="&#x20ac;" 
d="M123 200q-28 -2 -53 -5t-36 -5l-11 -3q-4 6 -4 14q0 35 107 48q4 32 16 72q-28 -2 -52.5 -5t-35.5 -6l-10 -2q-4 6 -4 14q0 40 122 53q40 89 111 144t160 55q60 0 93 -29t33 -83q0 -41 -18 -64t-42 -23q-8 0 -14 1.5t-8 3.5l-2 2q12 33 12 68q0 68 -64 68q-57 0 -104 -38
t-78 -101q125 -1 125 -50l-4 -17q-47 11 -143 12q-11 -34 -15 -69q146 0 146 -47l-4 -17q-48 11 -146 12q0 -149 125 -149q67 0 123.5 45t83.5 108q10 0 16.5 -9.5t6.5 -23.5q0 -57 -75.5 -123.5t-166.5 -66.5q-96 0 -143 58.5t-47 157.5z" />
    <glyph glyph-name="trademark" unicode="&#x2122;" horiz-adv-x="1211" 
d="M933 641q2 3 6.5 8.5t19.5 20t31.5 25t41 19.5t49.5 9q35 0 52.5 -20t17.5 -46q0 -48 -29 -105t-58 -110t-29 -92q0 -19 11 -29.5t28 -10.5q24 0 45 19t30 37l9 19q21 -6 21 -30q0 -34 -39.5 -70.5t-91.5 -36.5q-36 0 -58 23t-22 61q0 46 28 101t56 108t28 94
q0 24 -28 24q-96 0 -148 -175q-34 -114 -61 -168t-61 -54q-9 0 -15.5 6t-6.5 14q0 35 58 158.5t58 174.5q0 21 -5.5 30.5t-22.5 9.5q-48 0 -93 -86q-33 -62 -57.5 -103.5t-59.5 -86t-69.5 -70.5t-80.5 -42.5t-99 -16.5q-70 0 -102.5 35.5t-32.5 91.5q0 43 23 100.5t46 94.5
l23 36q-45 -29 -116 -29q-43 0 -68 23t-25 58q0 29 18 48t44 19q8 0 14.5 -3t8.5 -6l2 -3q-27 -9 -27 -37q0 -43 46 -43q51 0 142.5 43t135.5 43q49 0 78.5 -26t29.5 -73q0 -50 -32 -81t-78 -31q-21 0 -35.5 13.5t-14.5 39.5q17 -7 37 -7q28 0 45 14t17 41q0 54 -59 54
q-16 0 -36 -7t-31 -14l-12 -7q-12 -16 -30 -43.5t-48 -95t-30 -114.5q0 -78 82 -78q85 0 154 71.5t141 209.5q65 127 162 127q36 0 54 -21t18 -52z" />
    <glyph glyph-name="partialdiff" unicode="&#x2202;" horiz-adv-x="485" 
d="M394 483q-16 92 -63.5 147.5t-123.5 63.5q14 34 65 34q83 0 139.5 -92.5t56.5 -228.5q0 -192 -88.5 -309.5t-209.5 -117.5q-68 0 -106.5 39t-38.5 114q0 150 108 256.5t261 93.5zM400 431q-25 1 -39 1q-114 0 -189.5 -86.5t-75.5 -213.5q0 -45 21.5 -69.5t60.5 -24.5
q90 0 156.5 105.5t66.5 256.5z" />
    <glyph glyph-name="product" unicode="&#x220f;" horiz-adv-x="729" 
d="M550 501q-79 -10 -179 -13q-117 -344 -158 -537q-18 0 -30 15.5t-12 44.5q0 103 121 477q-146 8 -146 62l5 26q87 -16 161 -16q123 0 245 13t182 25l60 13q7 -6 7 -16q0 -48 -173 -81q-49 -136 -95 -296t-69 -267q-18 0 -30 15.5t-12 44.5q0 108 123 490z" />
    <glyph glyph-name="summation" unicode="&#x2211;" 
d="M430 218l-276 -297q369 0 369 -72q0 -6 -2.5 -12.5t-4.5 -10.5l-3 -3q-119 34 -339 34q-27 0 -57 -2.5t-47 -5.5l-16 -3q-6 6 -6 21q0 34 44 83l253 274l-194 299q-17 28 -17 42q0 5 1 9t2 6.5t2 4.5t2 3l1 1q114 -17 228 -17q70 0 130 4t85 8l25 5q10 -7 10 -22
q0 -65 -221 -65q-34 0 -72.5 2t-59.5 4l-21 3z" />
    <glyph glyph-name="minus" unicode="&#x2212;" 
d="M507 347q7 -7 7 -16q0 -36 -52.5 -62t-121 -36.5t-139.5 -10.5q-62 0 -96 20t-34 51q0 8 1.5 14.5t3.5 9.5l1 3q42 -19 106 -19q92 0 173 11.5t116 23.5z" />
    <glyph glyph-name="radical" unicode="&#x221a;" horiz-adv-x="686" 
d="M208 433q-36 0 -75 -1.5t-59 -3.5l-21 -2q-4 13 -4 26q0 21 22 35.5t60 14.5q151 0 151 -55q0 -73 12 -184t30 -192q160 448 292 675q21 37 54 37q96 -12 168 -7q5 -10 5 -18q0 -49 -161 -46q-156 -274 -330 -754l11 -41q-7 -4 -15 -4q-16 0 -32.5 11.5t-25.5 30.5
q-31 73 -56.5 236.5t-25.5 241.5z" />
    <glyph glyph-name="infinity" unicode="&#x221e;" horiz-adv-x="743" 
d="M412 231q-69 -112 -177 -112q-75 0 -114 44.5t-39 114.5q0 89 57.5 151t136.5 62q112 0 156 -119q65 106 170 106q69 0 112.5 -42.5t43.5 -116.5q0 -86 -54.5 -144t-134.5 -58q-65 0 -100.5 30.5t-56.5 83.5zM390 296q-11 32 -19 49.5t-22 38t-35 30t-49 9.5
q-46 0 -83 -39t-37 -98q0 -49 26 -76t73 -27q86 0 146 113zM454 303q18 -60 43.5 -90.5t79.5 -30.5q49 0 82.5 36t33.5 94q0 47 -26.5 74.5t-74.5 27.5q-86 0 -138 -111z" />
    <glyph glyph-name="integral" unicode="&#x222b;" horiz-adv-x="333" 
d="M133 309q7 6 36 32t45 41t42 43.5t40 51.5t25.5 53t11.5 58q0 69 -54 69q-60 0 -103 -87.5t-43 -260.5zM134 245q-2 -118 -12 -203.5t-32.5 -154.5t-63 -103.5t-98.5 -34.5q-50 0 -79 25.5t-29 65.5q0 36 21 59.5t52 23.5q7 0 13 -2.5t9 -4.5l3 -2q-27 -18 -27 -53
q0 -51 49 -51q40 -1 67 40.5t44.5 154t17.5 298.5t54.5 300t165.5 114q47 0 77 -36.5t30 -90.5q0 -47 -15 -87.5t-61 -89.5t-67.5 -68.5t-97.5 -81.5z" />
    <glyph glyph-name="approxequal" unicode="&#x2248;" 
d="M442 249q26 3 42.5 -11.5t16.5 -41.5q0 -50 -35 -81.5t-94 -31.5q-33 0 -64 16.5t-51 36.5t-46 36.5t-49 16.5q-29 0 -46 -16t-17 -42q0 -8 1.5 -16t3.5 -12l1 -4q-21 -1 -35 14.5t-14 41.5q0 40 28.5 67t79.5 27q36 0 67 -14.5t49 -31.5t43 -31.5t51 -14.5q76 0 76 62
q0 8 -2 15.5t-4 11.5zM472 456q26 3 42.5 -11.5t16.5 -41.5q0 -50 -35 -81.5t-94 -31.5q-42 0 -79.5 21.5t-69.5 42.5t-61 21t-46 -16t-17 -42q0 -8 1.5 -16t3.5 -12l1 -4q-21 -1 -35 14.5t-14 41.5q0 40 28.5 67t79.5 27q46 0 81.5 -17.5t66 -35.5t62.5 -18q76 0 76 62
q0 8 -2 15.5t-4 10.5z" />
    <glyph glyph-name="notequal" unicode="&#x2260;" 
d="M168 204h31q21 48 45 96h-33q-62 0 -96 20t-34 51q0 8 1.5 14.5t3.5 9.5l1 3q45 -19 109 -19q48 0 93 3q41 71 74 110q29 34 60 34q8 0 15.5 -4t11.5 -8l3 -3q-42 -56 -82 -120q42 6 78.5 14.5t52.5 14.5l15 5q7 -7 7 -16q0 -40 -58 -65.5t-146 -36.5q-36 -66 -53 -100
q64 5 119.5 15.5t79.5 19.5l23 8q7 -7 7 -16q0 -33 -42.5 -57t-100.5 -36t-125 -15q-18 -38 -52 -116q-8 1 -15.5 12.5t-7.5 23.5q0 28 17 79q-57 2 -87 21.5t-30 49.5q0 8 1.5 14.5t3.5 9.5l1 3q45 -19 109 -19z" />
    <glyph glyph-name="lessequal" unicode="&#x2264;" 
d="M455 164q-171 100 -322 135q-62 14 -62 58q211 26 429 176q11 -9 11 -26q0 -46 -77.5 -99t-173.5 -84q124 -33 176 -78q27 -23 27 -58q0 -7 -2 -13t-4 -9zM482 116q7 -7 7 -16q0 -36 -52.5 -62t-121 -36.5t-139.5 -10.5q-62 0 -96 20t-34 51q0 8 1.5 14.5t2.5 9.5l2 3
q42 -19 106 -19q92 0 173 11.5t116 22.5z" />
    <glyph glyph-name="greaterequal" unicode="&#x2265;" 
d="M514 335q-211 -26 -429 -176q-11 9 -11 26q0 46 78 98.5t174 83.5q-128 34 -177 79q-27 23 -27 58q0 7 2 13t4 9l2 2q139 -85 322 -136q62 -18 62 -57zM479 116q7 -7 7 -16q0 -36 -52.5 -62t-121 -36.5t-139.5 -10.5q-62 0 -96 20t-34 51q0 8 1.5 14.5t3.5 9.5l1 3
q42 -19 106 -19q92 0 173 11.5t116 22.5z" />
    <glyph glyph-name="lozenge" unicode="&#x25ca;" 
d="M291 30l20 -33q-10 -6 -23 -6q-38 0 -60 26q-39 45 -91 145t-74 167q65 39 142.5 102.5t129.5 120.5l-20 33q10 6 23 6q38 0 60 -26q39 -45 91 -145t74 -167q-65 -38 -142 -102t-130 -121zM362 505q-32 -43 -100.5 -105.5t-114.5 -95.5q51 -121 116 -228
q33 43 101.5 106.5t114.5 95.5q-40 97 -117 227z" />
    <glyph glyph-name="fi" unicode="&#xfb01;" horiz-adv-x="597" 
d="M660 218q10 -1 16 -9t6 -16q0 -59 -65 -136t-143 -77q-53 0 -81.5 28.5t-28.5 82.5q0 12 1 23.5t5 25.5t6 23t8.5 26t9.5 24t11.5 27.5t10.5 26.5q-77 -60 -199 -60q-40 0 -84 12q-2 -112 -13 -193t-33.5 -146t-62 -98t-96.5 -33q-50 0 -79 25.5t-29 65.5q0 36 21 59.5
t52 23.5q7 0 13 -2.5t9 -4.5l3 -2q-27 -18 -27 -53q0 -51 49 -51q40 -1 67 40.5t44.5 154t17.5 298.5t54.5 300t165.5 114q47 0 77 -36.5t30 -90.5q0 -37 -13.5 -74t-31.5 -64.5t-54 -64t-61.5 -58.5t-74.5 -62q41 -6 83 -5.5t82 16t71 39.5t50 66.5t20 95.5q15 3 25 3
q45 0 45 -57q0 -56 -50 -172t-50 -158q0 -26 11.5 -38t36.5 -12q46 0 97.5 53.5t77.5 119.5zM133 309q7 6 36 32t45 41t42 43.5t40 51.5t25.5 53t11.5 58q0 69 -54 69q-60 0 -103 -87.5t-43 -260.5zM541 627q-20 0 -32.5 12.5t-12.5 31.5q0 30 17.5 47t42.5 17
q20 0 32.5 -12.5t12.5 -33.5q0 -25 -16.5 -43.5t-43.5 -18.5z" />
    <glyph glyph-name="fl" unicode="&#xfb02;" horiz-adv-x="741" 
d="M374 145q-17 -3 -34 -3q-121 0 -207 68q-3 -109 -14 -189.5t-33.5 -144t-62 -95.5t-95.5 -32q-50 0 -79 25.5t-29 65.5q0 36 21 59.5t52 23.5q7 0 13 -2.5t9 -4.5l3 -2q-27 -18 -27 -53q0 -51 49 -51q40 -1 67 40.5t44.5 154t17.5 298.5t54.5 300t165.5 114
q47 0 77 -36.5t30 -90.5q0 -38 -14 -75t-31.5 -64.5t-55 -65t-62.5 -58.5t-76 -63q79 -64 186 -64l31 2q6 107 48 220t115.5 194.5t155.5 81.5q50 0 76 -28t26 -79q0 -62 -25.5 -123.5t-63.5 -108.5t-87.5 -88.5t-93.5 -68.5t-85 -45q4 -112 106 -112q79 0 152 55.5
t112 117.5q16 -2 16 -26q0 -28 -24.5 -64t-63 -68.5t-93.5 -54.5t-110 -22q-72 0 -113.5 42.5t-47.5 119.5zM441 217q125 65 207.5 165.5t82.5 200.5q0 54 -50 54t-103 -62.5t-90.5 -160t-46.5 -197.5zM133 309q7 6 36 32t45 41t42 43.5t40 51.5t25.5 53t11.5 58
q0 69 -54 69q-60 0 -103 -87.5t-43 -260.5z" />
    </font>
</defs>
</svg>
